<?xml version="1.0" encoding="UTF-8"?>
<svg version="1.1" xmlns="http://www.w3.org/2000/svg" width="512" height="512">
<path d="M0 0 C1.18440674 0.00563965 2.36881348 0.0112793 3.58911133 0.01708984 C28.24517871 0.35759204 49.04873256 7.93629757 66.75 25.3125 C67.44996094 25.98796875 68.14992187 26.6634375 68.87109375 27.359375 C84.78854566 43.86636216 89.52289718 67.51625124 90 89.6875 C89.62254179 107.58345969 86.70922232 125.40044778 80.75 142.3125 C81.77996094 141.85359375 82.80992187 141.3946875 83.87109375 140.921875 C96.9349666 135.24058416 110.38821576 130.85616376 124.75 130.3125 C125.73226562 130.2609375 126.71453125 130.209375 127.7265625 130.15625 C153.51971038 129.43138402 178.63409729 136.38956596 197.75 154.3125 C215.33174898 172.52115089 221.16931879 195.67080026 221.0625 220.4375 C221.06034485 221.11947449 221.0581897 221.80144897 221.05596924 222.50408936 C221.0009456 233.380641 220.38133244 243.74461501 217.75 254.3125 C217.45198486 255.54371582 217.45198486 255.54371582 217.14794922 256.79980469 C213.9768879 269.593315 209.56792062 281.496213 203.75 293.3125 C203.18410156 294.47265625 202.61820312 295.6328125 202.03515625 296.828125 C190.89205799 318.53750232 173.99130465 338.47885222 150.7421875 347.4765625 C147.27789142 348.55726128 144.38932391 349.3125 140.75 349.3125 C140.9672876 349.91723145 141.1845752 350.52196289 141.40844727 351.14501953 C142.39081408 353.90431067 143.35177226 356.67060411 144.3125 359.4375 C144.82586914 360.86449219 144.82586914 360.86449219 145.34960938 362.3203125 C148.43247708 371.2886549 148.43247708 371.2886549 146.75 376.3125 C143.59745763 380.88877119 143.59745763 380.88877119 140.75 382.3125 C140.74635437 383.29333557 140.74270874 384.27417114 140.73895264 385.284729 C140.70202123 394.52542003 140.64426908 403.76577724 140.56609726 413.00621414 C140.52657754 417.75692381 140.4944112 422.50744687 140.47900391 427.25830078 C140.4638668 431.84265166 140.42947409 436.42648969 140.38169098 441.01061249 C140.36684667 442.76006362 140.35895724 444.50958796 140.35811615 446.25910187 C140.35575383 448.70877342 140.32873574 451.15701914 140.29589844 453.60644531 C140.3009288 454.33077255 140.30595917 455.05509979 140.31114197 455.80137634 C140.23985068 459.23566597 139.98196645 461.01527235 137.84088135 463.75872803 C135.58499308 465.43511965 134.52800673 465.88042579 131.75 465.875 C130.76 465.90787109 130.76 465.90787109 129.75 465.94140625 C126.56153636 464.93878389 125.5419528 463.07898357 123.75 460.3125 C123.37985436 457.61609368 123.23433505 455.33560475 123.28344727 452.64819336 C123.28114105 451.89310989 123.27883484 451.13802643 123.27645874 450.36006165 C123.273836 448.7269748 123.28024014 447.09385363 123.29471016 445.46082878 C123.31663321 442.87558014 123.31286925 440.29149908 123.30223083 437.70619202 C123.28058346 431.28854772 123.29795749 424.87116504 123.32373047 418.45355225 C123.34511779 413.02461838 123.34710522 407.59643395 123.32081413 402.16751289 C123.31645973 399.62111669 123.34110793 397.07601909 123.36634827 394.5297699 C123.361078 392.96897805 123.35435588 391.4081902 123.34594727 389.84741211 C123.36085709 389.14029083 123.37576691 388.43316956 123.39112854 387.70462036 C123.41239715 385.46934892 123.41239715 385.46934892 122.75 382.3125 C120.38553141 379.93183837 120.38553141 379.93183837 117.75 378.3125 C115.14268922 373.09787844 116.36553545 367.20190169 118.08984375 361.87109375 C119.54999476 357.64851871 121.12745964 353.47508866 122.75 349.3125 C122.12625488 349.2312085 121.50250977 349.14991699 120.85986328 349.06616211 C108.55258888 347.32507402 97.78958051 340.55739211 88.75 332.3125 C87.79480469 331.45011719 86.83960938 330.58773438 85.85546875 329.69921875 C60.52424315 306.04528684 45.92565714 269.417199 42.75 235.3125 C42.67281788 232.63552522 42.63205579 229.98758165 42.65234375 227.3125 C42.65446617 226.23077515 42.65446617 226.23077515 42.65663147 225.12719727 C42.66216619 222.85558676 42.67470577 220.58408 42.6875 218.3125 C42.69252346 216.75911602 42.69708488 215.20573048 42.70117188 213.65234375 C42.71211411 209.87235672 42.7293324 206.09244586 42.75 202.3125 C42.1938501 202.76778076 41.6377002 203.22306152 41.06469727 203.69213867 C36.15595024 207.62380388 31.34900504 210.89784574 25.6875 213.625 C25.03201172 213.95822266 24.37652344 214.29144531 23.70117188 214.63476562 C19.13393912 216.88470035 14.72223041 218.22049399 9.75 219.3125 C9.93175781 219.85664551 10.11351563 220.40079102 10.30078125 220.96142578 C11.12641438 223.45049797 11.93828587 225.94385569 12.75 228.4375 C13.03617187 229.2934375 13.32234375 230.149375 13.6171875 231.03125 C15.07764431 235.55171154 16.3012018 239.50398957 15.75 244.3125 C12.74406332 250.00230871 12.74406332 250.00230871 9.609375 250.98046875 C8.99578125 251.09003906 8.3821875 251.19960938 7.75 251.3125 C7.77618408 252.44042969 7.80236816 253.56835938 7.8293457 254.73046875 C7.92120023 258.99458244 7.97773011 263.25861281 8.0246582 267.5234375 C8.04949945 269.35431719 8.08338505 271.18510103 8.12719727 273.015625 C8.4174789 285.47382993 7.31949821 295.64448431 2.75 307.3125 C2.43361572 308.12654297 2.11723145 308.94058594 1.79125977 309.77929688 C1.53014404 310.45025391 1.26902832 311.12121094 1 311.8125 C-1.85457246 319.8053029 -1.60924915 325.57361545 1.75 333.3125 C3.90370547 337.10454061 6.31168067 340.69902465 8.75 344.3125 C16.1047448 355.67737248 19.02673118 364.52960656 17.75 378.3125 C15.94139336 386.64500914 11.44526128 393.32538332 6.75 400.3125 C0.07389618 410.35460044 0.07389618 410.35460044 -0.8671875 422.05078125 C0.72213436 428.94697669 3.1798268 435.56649319 5.6640625 442.18359375 C7.85029671 448.48277938 8.45470249 454.67399832 7.75 461.3125 C6.25 464 6.25 464 3.75 465.3125 C0.93251629 465.90140028 -1.43680451 465.94344302 -4.25 465.3125 C-7.08031344 463.22700589 -8.0335994 461.46078787 -8.68359375 458.01171875 C-8.9541728 456.0395601 -9.22064564 454.06683631 -9.484375 452.09375 C-10.45929859 447.27882126 -12.10866622 442.84813399 -13.8125 438.25 C-18.19603011 426.1919477 -19.99029847 415.7011546 -15.09375 403.41015625 C-11.82358063 396.49738155 -7.6901345 390.38084786 -3.203125 384.22265625 C0.93560185 378.05595325 1.68092511 372.62125246 0.75 365.3125 C-1.29955982 359.08422599 -5.24658777 353.75440165 -8.8125 348.3125 C-16.1311747 337.12523295 -19.78860313 327.17355011 -17.1875 313.75 C-16.30077306 309.8896446 -15.27636075 306.37549192 -13.74609375 302.71875 C-6.96131507 286.47104462 -8.23096888 268.63353806 -8.25 251.3125 C-9.18585938 250.86777344 -9.18585938 250.86777344 -10.140625 250.4140625 C-12.82862356 249.01032992 -13.83005957 248.01038683 -15.25 245.3125 C-16.22026561 238.88449032 -14.19383934 233.49745898 -12.02929688 227.50463867 C-10.9885833 224.62155074 -10.25 222.40629558 -10.25 219.3125 C-11.63058594 218.92771484 -11.63058594 218.92771484 -13.0390625 218.53515625 C-39.00789513 210.86246799 -56.35109702 191.37235128 -69.17529297 168.296875 C-86.6888549 135.95924861 -96.1344565 94.27567991 -85.63183594 58.18847656 C-78.6608583 36.17966944 -65.90555246 20.35714255 -45.4375 9.625 C-30.95984106 2.47553879 -16.03578217 -0.08042593 0 0 Z " fill="#24CDEC" transform="translate(96.25,46.6875)"/>
<path d="M0 0 C0.99 0.721875 1.98 1.44375 3 2.1875 C18.11471384 15.08315613 25.71564382 36.58236913 27.83447266 55.84228516 C30.92959054 96.18837929 19.1011928 139.40433687 -7.30078125 170.53369141 C-18.95148578 184.11079124 -32.45902021 194.49531258 -50 199 C-48.75738357 205.05864998 -48.75738357 205.05864998 -46.875 210.9375 C-45.6227904 215.32023361 -45.36713523 219.47953735 -46 224 C-47.79646854 226.93423195 -48.9441071 228.47205355 -52 230 C-52.01458252 231.30445068 -52.02916504 232.60890137 -52.04418945 233.95288086 C-52.10294445 238.87533582 -52.18015918 243.79736943 -52.26245117 248.71948242 C-52.2953426 250.83432079 -52.32348085 252.94923942 -52.34643555 255.06420898 C-52.70264426 287.03962555 -52.70264426 287.03962555 -59.1875 301.5625 C-62.12937538 308.24605139 -63.31378017 313.43003199 -60.71484375 320.4921875 C-60.12832031 321.60851562 -59.54179687 322.72484375 -58.9375 323.875 C-58.62385498 324.47795898 -58.31020996 325.08091797 -57.98706055 325.70214844 C-55.54324171 330.28636508 -52.64430491 334.43335825 -49.57421875 338.62109375 C-44.14312681 346.8283766 -42.07367948 356.27363456 -43 366 C-44.89840682 375.22900185 -48.72342447 382.30736829 -54 390 C-55.11931824 391.78224021 -56.22422981 393.57363345 -57.3125 395.375 C-58.01826172 396.53128906 -58.01826172 396.53128906 -58.73828125 397.7109375 C-62.14328997 403.88844557 -63.02143596 409.0231914 -61.25830078 415.88769531 C-60.24933967 419.15504854 -59.17285612 422.39073193 -58.0625 425.625 C-57.32044499 427.82425112 -56.58203897 430.02473754 -55.84765625 432.2265625 C-55.51773682 433.19158691 -55.18781738 434.15661133 -54.84790039 435.15087891 C-53.1734756 440.77729334 -52.83140212 446.22563736 -52.796875 452.06640625 C-52.79117493 452.82291977 -52.78547485 453.57943329 -52.77960205 454.35887146 C-52.77020287 455.94976421 -52.76363843 457.54067599 -52.75976562 459.1315918 C-52.75001497 461.55877381 -52.71892682 463.98512396 -52.6875 466.41210938 C-52.68097294 467.96353668 -52.67572131 469.51496998 -52.671875 471.06640625 C-52.6595282 471.78735977 -52.6471814 472.50831329 -52.63446045 473.25111389 C-52.65581979 478.09778559 -53.51343318 481.51343318 -57 485 C-64.20036998 485.59019426 -64.20036998 485.59019426 -67.10009766 483.44995117 C-69.64520688 480.16799652 -69.55000416 477.35967458 -69.50390625 473.375 C-69.51332748 472.6322583 -69.52274872 471.8895166 -69.53245544 471.12426758 C-69.56107389 468.74923232 -69.56418864 466.37519333 -69.5625 464 C-69.57865969 453.58238702 -69.73249875 444.02007699 -73 434 C-73.23050049 433.2898877 -73.46100098 432.57977539 -73.69848633 431.84814453 C-74.30612791 430.07405827 -74.96366206 428.31727704 -75.625 426.5625 C-80.22834388 414.30086585 -80.46819983 403.09097559 -75 391 C-72.37927939 386.31696898 -69.36705587 381.94626406 -66.28515625 377.55859375 C-61.57139244 370.74726267 -59.24295437 365.05988505 -60.3359375 356.671875 C-62.08526478 349.63340523 -66.41994916 343.72850751 -70.625 337.9375 C-77.3770321 328.57129618 -80.16862685 318.46795359 -79 307 C-77.62599372 301.88063296 -75.83006804 296.97122961 -74 292 C-73.39819201 290.17264781 -72.81205698 288.33996762 -72.25 286.5 C-72.02828125 285.7884375 -71.8065625 285.076875 -71.578125 284.34375 C-69.25031558 274.90668479 -69.70581221 265.11607235 -69.64990234 255.46557617 C-69.63325748 253.35804264 -69.60585724 251.25056746 -69.56787109 249.14331055 C-69.51324862 246.09133914 -69.49126267 243.0406747 -69.4765625 239.98828125 C-69.44255844 238.57570793 -69.44255844 238.57570793 -69.40786743 237.13459778 C-69.33656509 231.73040144 -69.33656509 231.73040144 -72.44677734 227.48510742 C-73.71062256 226.74997925 -73.71062256 226.74997925 -75 226 C-77.08413831 223.34746033 -76.99950523 221.98639383 -76.875 218.5625 C-76.09654842 213.47853843 -74.43000753 208.63582381 -72.83984375 203.7578125 C-71.90289221 201.16160137 -71.90289221 201.16160137 -72 199 C-72.78761719 198.8040625 -73.57523437 198.608125 -74.38671875 198.40625 C-92.90960538 193.32067639 -107.64485554 181.23573752 -119 166 C-119.59167969 165.22269531 -120.18335938 164.44539062 -120.79296875 163.64453125 C-144.03512829 131.89265654 -155.1575613 89.3332778 -149.75 50.3359375 C-147.23902872 34.58594067 -140.6410357 18.94212304 -130 7 C-129.43023437 6.33742188 -128.86046875 5.67484375 -128.2734375 4.9921875 C-97.14653845 -28.78380934 -33.94799348 -28.49450055 0 0 Z " fill="#C79BFF" transform="translate(477,27)"/>
<path d="M0 0 C16.91202073 14.45821402 25.73227149 33.95493294 28.375 55.8125 C28.6666149 60.85764416 28.70929237 65.88478276 28.6875 70.9375 C28.68426727 71.96046173 28.68426727 71.96046173 28.68096924 73.00408936 C28.6259456 83.880641 28.00633244 94.24461501 25.375 104.8125 C25.17632324 105.63331055 24.97764648 106.45412109 24.77294922 107.29980469 C21.6018879 120.093315 17.19292062 131.996213 11.375 143.8125 C10.80910156 144.97265625 10.24320313 146.1328125 9.66015625 147.328125 C-1.48294201 169.03750232 -18.38369535 188.97885222 -41.6328125 197.9765625 C-45.09710858 199.05726128 -47.98567609 199.8125 -51.625 199.8125 C-51.4077124 200.41723145 -51.1904248 201.02196289 -50.96655273 201.64501953 C-49.98418592 204.40431067 -49.02322774 207.17060411 -48.0625 209.9375 C-47.72025391 210.88882813 -47.37800781 211.84015625 -47.02539062 212.8203125 C-43.94252292 221.7886549 -43.94252292 221.7886549 -45.625 226.8125 C-48.77754237 231.38877119 -48.77754237 231.38877119 -51.625 232.8125 C-51.62864563 233.79333557 -51.63229126 234.77417114 -51.63604736 235.784729 C-51.67297877 245.02542003 -51.73073092 254.26577724 -51.80890274 263.50621414 C-51.84842246 268.25692381 -51.8805888 273.00744687 -51.89599609 277.75830078 C-51.9111332 282.34265166 -51.94552591 286.92648969 -51.99330902 291.51061249 C-52.00815333 293.26006362 -52.01604276 295.00958796 -52.01688385 296.75910187 C-52.01924617 299.20877342 -52.04626426 301.65701914 -52.07910156 304.10644531 C-52.0740712 304.83077255 -52.06904083 305.55509979 -52.06385803 306.30137634 C-52.13514932 309.73566597 -52.39303355 311.51527235 -54.53411865 314.25872803 C-56.79000692 315.93511965 -57.84699327 316.38042579 -60.625 316.375 C-61.615 316.40787109 -61.615 316.40787109 -62.625 316.44140625 C-65.81346364 315.43878389 -66.8330472 313.57898357 -68.625 310.8125 C-68.99514564 308.11609368 -69.14066495 305.83560475 -69.09155273 303.14819336 C-69.09385895 302.39310989 -69.09616516 301.63802643 -69.09854126 300.86006165 C-69.101164 299.2269748 -69.09475986 297.59385363 -69.08028984 295.96082878 C-69.05836679 293.37558014 -69.06213075 290.79149908 -69.07276917 288.20619202 C-69.09441654 281.78854772 -69.07704251 275.37116504 -69.05126953 268.95355225 C-69.02988221 263.52461838 -69.02789478 258.09643395 -69.05418587 252.66751289 C-69.05854027 250.12111669 -69.03389207 247.57601909 -69.00865173 245.0297699 C-69.013922 243.46897805 -69.02064412 241.9081902 -69.02905273 240.34741211 C-69.006688 239.28673019 -69.006688 239.28673019 -68.98387146 238.20462036 C-68.96260285 235.96934892 -68.96260285 235.96934892 -69.625 232.8125 C-71.98946859 230.43183837 -71.98946859 230.43183837 -74.625 228.8125 C-77.23231078 223.59787844 -76.00946455 217.70190169 -74.28515625 212.37109375 C-72.82500524 208.14851871 -71.24754036 203.97508866 -69.625 199.8125 C-70.24874512 199.7312085 -70.87249023 199.64991699 -71.51513672 199.56616211 C-83.82241112 197.82507402 -94.58541949 191.05739211 -103.625 182.8125 C-104.58019531 181.95011719 -105.53539062 181.08773437 -106.51953125 180.19921875 C-131.42067393 156.94689204 -147.28873751 119.61751024 -149.625 85.8125 C-149.78519172 80.95751504 -149.8100628 76.10734231 -149.8125 71.25 C-149.82474609 69.96158203 -149.83699219 68.67316406 -149.84960938 67.34570312 C-149.87237977 52.62843999 -149.87237977 52.62843999 -145.6640625 47.35546875 C-144.86742187 46.57816406 -144.07078125 45.80085938 -143.25 45 C-132.01581145 33.1021202 -124.41041811 19.17494868 -117.68359375 4.359375 C-117.14230835 3.17770752 -117.14230835 3.17770752 -116.59008789 1.97216797 C-115.77314266 0.14401276 -115.01636464 -1.71084746 -114.2734375 -3.5703125 C-112.09869644 -7.02310044 -109.45243224 -8.28084306 -105.8125 -9.8125 C-105.14597412 -10.10535889 -104.47944824 -10.39821777 -103.79272461 -10.69995117 C-70.61124266 -24.8656955 -28.97213886 -22.52052841 0 0 Z " fill="#FCF000" transform="translate(288.625,196.1875)"/>
<path d="M0 0 C0.99 0.721875 1.98 1.44375 3 2.1875 C18.11471384 15.08315613 25.71564382 36.58236913 27.83447266 55.84228516 C30.92959054 96.18837929 19.1011928 139.40433687 -7.30078125 170.53369141 C-18.95148578 184.11079124 -32.45902021 194.49531258 -50 199 C-48.75738357 205.05864998 -48.75738357 205.05864998 -46.875 210.9375 C-45.6227904 215.32023361 -45.36713523 219.47953735 -46 224 C-47.79646854 226.93423195 -48.9441071 228.47205355 -52 230 C-52.01458252 231.30445068 -52.02916504 232.60890137 -52.04418945 233.95288086 C-52.10294445 238.87533582 -52.18015918 243.79736943 -52.26245117 248.71948242 C-52.2953426 250.83432079 -52.32348085 252.94923942 -52.34643555 255.06420898 C-52.70264426 287.03962555 -52.70264426 287.03962555 -59.1875 301.5625 C-62.12937538 308.24605139 -63.31378017 313.43003199 -60.71484375 320.4921875 C-59.83505859 322.16667969 -59.83505859 322.16667969 -58.9375 323.875 C-58.62385498 324.47795898 -58.31020996 325.08091797 -57.98706055 325.70214844 C-55.54324171 330.28636508 -52.64430491 334.43335825 -49.57421875 338.62109375 C-44.14312681 346.8283766 -42.07367948 356.27363456 -43 366 C-44.89840682 375.22900185 -48.72342447 382.30736829 -54 390 C-55.11931824 391.78224021 -56.22422981 393.57363345 -57.3125 395.375 C-58.01826172 396.53128906 -58.01826172 396.53128906 -58.73828125 397.7109375 C-62.14328997 403.88844557 -63.02143596 409.0231914 -61.25830078 415.88769531 C-60.24933967 419.15504854 -59.17285612 422.39073193 -58.0625 425.625 C-57.32044499 427.82425112 -56.58203897 430.02473754 -55.84765625 432.2265625 C-55.51773682 433.19158691 -55.18781738 434.15661133 -54.84790039 435.15087891 C-53.1734756 440.77729334 -52.83140212 446.22563736 -52.796875 452.06640625 C-52.78832489 453.20117653 -52.78832489 453.20117653 -52.77960205 454.35887146 C-52.77020287 455.94976421 -52.76363843 457.54067599 -52.75976562 459.1315918 C-52.75001497 461.55877381 -52.71892682 463.98512396 -52.6875 466.41210938 C-52.68097294 467.96353668 -52.67572131 469.51496998 -52.671875 471.06640625 C-52.6595282 471.78735977 -52.6471814 472.50831329 -52.63446045 473.25111389 C-52.65581979 478.09778559 -53.51343318 481.51343318 -57 485 C-64.20036998 485.59019426 -64.20036998 485.59019426 -67.10009766 483.44995117 C-69.64520688 480.16799652 -69.55000416 477.35967458 -69.50390625 473.375 C-69.51332748 472.6322583 -69.52274872 471.8895166 -69.53245544 471.12426758 C-69.56107389 468.74923232 -69.56418864 466.37519333 -69.5625 464 C-69.57865969 453.58238702 -69.73249875 444.02007699 -73 434 C-73.23050049 433.2898877 -73.46100098 432.57977539 -73.69848633 431.84814453 C-74.30612791 430.07405827 -74.96366206 428.31727704 -75.625 426.5625 C-80.22834388 414.30086585 -80.46819983 403.09097559 -75 391 C-72.37927939 386.31696898 -69.36705587 381.94626406 -66.28515625 377.55859375 C-61.57139244 370.74726267 -59.24295437 365.05988505 -60.3359375 356.671875 C-62.08526478 349.63340523 -66.41994916 343.72850751 -70.625 337.9375 C-77.3770321 328.57129618 -80.16862685 318.46795359 -79 307 C-77.62599372 301.88063296 -75.83006804 296.97122961 -74 292 C-73.39819201 290.17264781 -72.81205698 288.33996762 -72.25 286.5 C-72.02828125 285.7884375 -71.8065625 285.076875 -71.578125 284.34375 C-69.25031558 274.90668479 -69.70581221 265.11607235 -69.64990234 255.46557617 C-69.63325748 253.35804264 -69.60585724 251.25056746 -69.56787109 249.14331055 C-69.51324862 246.09133914 -69.49126267 243.0406747 -69.4765625 239.98828125 C-69.45389313 239.0465657 -69.43122375 238.10485016 -69.40786743 237.13459778 C-69.33656509 231.73040144 -69.33656509 231.73040144 -72.44677734 227.48510742 C-73.71062256 226.74997925 -73.71062256 226.74997925 -75 226 C-77.08413831 223.34746033 -76.99950523 221.98639383 -76.875 218.5625 C-76.09654842 213.47853843 -74.43000753 208.63582381 -72.83984375 203.7578125 C-71.90289221 201.16160137 -71.90289221 201.16160137 -72 199 C-74.64 198.34 -77.28 197.68 -80 197 C-78.68258022 193.04774066 -77.18311763 192.75425799 -73.5625 190.8125 C-67.5111014 187.39870625 -62.23100083 183.56106563 -57 179 C-56.40960938 178.49339844 -55.81921875 177.98679688 -55.2109375 177.46484375 C-39.92200129 163.29902845 -30.24440903 143.18211704 -23 124 C-22.53722656 122.824375 -22.07445312 121.64875 -21.59765625 120.4375 C-13.70554075 98.94407907 -7.58645461 63.16234742 -16.12890625 41.08203125 C-23.37620762 29.60878303 -32.2839431 24.5265255 -44.80078125 20.125 C-47.40066684 18.79504076 -48.49339811 17.4792183 -50 15 C-50.55796707 11.81161672 -50.28172631 10.47381243 -48.625 7.6875 C-44.60769589 5.10494736 -40.64855591 5.68063356 -36 6 C-36.66 5.38125 -37.32 4.7625 -38 4.125 C-40 2 -40 2 -40 0 C-40.52851563 -0.25136719 -41.05703125 -0.50273437 -41.6015625 -0.76171875 C-44.60879433 -2.31431238 -47.47084643 -4.07465982 -50.375 -5.8125 C-59.65168604 -11.22246898 -69.50869408 -14.6919127 -80 -17 C-79.67 -17.66 -79.34 -18.32 -79 -19 C-52.14867182 -24.61502305 -20.91398054 -17.55430495 0 0 Z " fill="#C18FFF" transform="translate(477,27)"/>
<path d="M0 0 C2.54317059 2.21900317 4.97832458 4.50692718 7.38671875 6.87109375 C8.08667969 7.5465625 8.78664063 8.22203125 9.5078125 8.91796875 C25.42526441 25.42495591 30.15961593 49.07484499 30.63671875 71.24609375 C29.74264684 113.63562059 13.17712169 154.36877275 -16.98388672 184.31933594 C-26.03704518 192.94113324 -37.54446349 198.08296123 -49.61328125 200.87109375 C-49.43152344 201.41523926 -49.24976562 201.95938477 -49.0625 202.52001953 C-48.23686687 205.00909172 -47.42499538 207.50244944 -46.61328125 209.99609375 C-46.32710937 210.85203125 -46.0409375 211.70796875 -45.74609375 212.58984375 C-44.28563694 217.11030529 -43.06207945 221.06258332 -43.61328125 225.87109375 C-46.61921793 231.56090246 -46.61921793 231.56090246 -49.75390625 232.5390625 C-50.3675 232.64863281 -50.98109375 232.75820313 -51.61328125 232.87109375 C-51.58709717 233.99902344 -51.56091309 235.12695312 -51.53393555 236.2890625 C-51.44208102 240.55317619 -51.38555114 244.81720656 -51.33862305 249.08203125 C-51.3137818 250.91291094 -51.2798962 252.74369478 -51.23608398 254.57421875 C-50.94580235 267.03242368 -52.04378304 277.20307806 -56.61328125 288.87109375 C-56.92966553 289.68513672 -57.2460498 290.49917969 -57.57202148 291.33789062 C-57.96369507 292.34432617 -57.96369507 292.34432617 -58.36328125 293.37109375 C-61.21785371 301.36389665 -60.9725304 307.1322092 -57.61328125 314.87109375 C-55.45957578 318.66313436 -53.05160058 322.2576184 -50.61328125 325.87109375 C-43.25853645 337.23596623 -40.33655007 346.08820031 -41.61328125 359.87109375 C-43.42188789 368.20360289 -47.91801997 374.88397707 -52.61328125 381.87109375 C-59.28938507 391.91319419 -59.28938507 391.91319419 -60.23046875 403.609375 C-58.64114689 410.50557044 -56.18345445 417.12508694 -53.69921875 423.7421875 C-51.51298454 430.04137313 -50.90857876 436.23259207 -51.61328125 442.87109375 C-53.11328125 445.55859375 -53.11328125 445.55859375 -55.61328125 446.87109375 C-58.43076496 447.45999403 -60.80008576 447.50203677 -63.61328125 446.87109375 C-66.44359469 444.78559964 -67.39688065 443.01938162 -68.046875 439.5703125 C-68.31745405 437.59815385 -68.58392689 435.62543006 -68.84765625 433.65234375 C-69.82257984 428.83741501 -71.47194747 424.40672774 -73.17578125 419.80859375 C-77.55931136 407.75054145 -79.35357972 397.25974835 -74.45703125 384.96875 C-71.18686188 378.0559753 -67.05341575 371.93944161 -62.56640625 365.78125 C-58.4276794 359.614547 -57.68235614 354.17984621 -58.61328125 346.87109375 C-60.66284107 340.64281974 -64.60986902 335.3129954 -68.17578125 329.87109375 C-75.49445595 318.6838267 -79.15188438 308.73214386 -76.55078125 295.30859375 C-75.66405431 291.44823835 -74.639642 287.93408567 -73.109375 284.27734375 C-66.32459632 268.02963837 -67.59425013 250.19213181 -67.61328125 232.87109375 C-68.2371875 232.57460938 -68.86109375 232.278125 -69.50390625 231.97265625 C-72.19190481 230.56892367 -73.19334082 229.56898058 -74.61328125 226.87109375 C-75.58354686 220.44308407 -73.55712059 215.05605273 -71.39257812 209.06323242 C-70.35186455 206.18014449 -69.61328125 203.96488933 -69.61328125 200.87109375 C-72.91328125 199.88109375 -76.21328125 198.89109375 -79.61328125 197.87109375 C-78.15874216 194.96201557 -76.11113789 194.58476595 -73.17578125 193.24609375 C-66.89006868 190.16267683 -61.81037585 186.53870379 -56.61328125 181.87109375 C-55.72898437 181.08089844 -54.8446875 180.29070312 -53.93359375 179.4765625 C-28.16201974 155.12863068 -12.83496038 116.1285606 -11.50878906 81.11206055 C-10.21845521 55.30121181 -10.21845521 55.30121181 -21.28125 33.07421875 C-27.33606265 27.47663452 -34.77627896 24.69216366 -42.4140625 21.8984375 C-44.72218115 20.82022222 -46.03378287 19.859169 -47.61328125 17.87109375 C-48.30592751 13.88837775 -47.9144943 12.32777161 -45.67578125 8.93359375 C-41.8080751 6.32881206 -39.85088446 6.70074539 -35.40625 7.4765625 C-34.51873047 7.67185547 -34.51873047 7.67185547 -33.61328125 7.87109375 C-33.61328125 7.21109375 -33.61328125 6.55109375 -33.61328125 5.87109375 C-34.21527344 5.59523438 -34.81726563 5.319375 -35.4375 5.03515625 C-37.61328125 3.87109375 -37.61328125 3.87109375 -40.42578125 1.24609375 C-51.29109922 -8.26688851 -65.80275182 -12.941861 -79.61328125 -16.12890625 C-79.61328125 -16.45890625 -79.61328125 -16.78890625 -79.61328125 -17.12890625 C-52.46575517 -22.01467292 -21.75634163 -17.72377607 0 0 Z " fill="#0BC5E7" transform="translate(155.61328125,65.12890625)"/>
<path d="M0 0 C5.28 0 10.56 0 16 0 C16.07515048 6.23980185 16.12906613 12.47933009 16.16479492 18.71948242 C16.17971722 20.83443806 16.20006237 22.94936368 16.22631836 25.06420898 C16.41812576 40.93157038 16.40562738 56.79715053 9.8125 71.5625 C6.87062462 78.24605139 5.68621983 83.43003199 8.28515625 90.4921875 C8.87167969 91.60851562 9.45820313 92.72484375 10.0625 93.875 C10.37614502 94.47795898 10.68979004 95.08091797 11.01293945 95.70214844 C13.45675829 100.28636508 16.35569509 104.43335825 19.42578125 108.62109375 C24.85687319 116.8283766 26.92632052 126.27363456 26 136 C24.10159318 145.22900185 20.27657553 152.30736829 15 160 C13.88068176 161.78224021 12.77577019 163.57363345 11.6875 165.375 C11.21699219 166.14585937 10.74648438 166.91671875 10.26171875 167.7109375 C6.85671003 173.88844557 5.97856404 179.0231914 7.74169922 185.88769531 C8.75066033 189.15504854 9.82714388 192.39073193 10.9375 195.625 C11.67955501 197.82425112 12.41796103 200.02473754 13.15234375 202.2265625 C13.48226318 203.19158691 13.81218262 204.15661133 14.15209961 205.15087891 C15.8265244 210.77729334 16.16859788 216.22563736 16.203125 222.06640625 C16.20882507 222.82291977 16.21452515 223.57943329 16.22039795 224.35887146 C16.22979713 225.94976421 16.23636157 227.54067599 16.24023438 229.1315918 C16.24998503 231.55877381 16.28107318 233.98512396 16.3125 236.41210938 C16.31902706 237.96353668 16.32427869 239.51496998 16.328125 241.06640625 C16.3404718 241.78735977 16.3528186 242.50831329 16.36553955 243.25111389 C16.34418021 248.09778559 15.48656682 251.51343318 12 255 C4.79963002 255.59019426 4.79963002 255.59019426 1.89990234 253.44995117 C-0.64520688 250.16799652 -0.55000416 247.35967458 -0.50390625 243.375 C-0.51332748 242.6322583 -0.52274872 241.8895166 -0.53245544 241.12426758 C-0.56107389 238.74923232 -0.56418864 236.37519333 -0.5625 234 C-0.57865969 223.58238702 -0.73249875 214.02007699 -4 204 C-4.23050049 203.2898877 -4.46100098 202.57977539 -4.69848633 201.84814453 C-5.30612791 200.07405827 -5.96366206 198.31727704 -6.625 196.5625 C-11.22834388 184.30086585 -11.46819983 173.09097559 -6 161 C-3.37927939 156.31696898 -0.36705587 151.94626406 2.71484375 147.55859375 C7.42860756 140.74726267 9.75704563 135.05988505 8.6640625 126.671875 C6.91473522 119.63340523 2.58005084 113.72850751 -1.625 107.9375 C-8.3770321 98.57129618 -11.16862685 88.46795359 -10 77 C-8.62599372 71.88063296 -6.83006804 66.97122961 -5 62 C-4.39819201 60.17264781 -3.81205698 58.33996762 -3.25 56.5 C-3.02828125 55.7884375 -2.8065625 55.076875 -2.578125 54.34375 C-0.9543678 47.76095053 -0.8024988 41.21878929 -0.68359375 34.47265625 C-0.66281265 33.48373886 -0.64203156 32.49482147 -0.62062073 31.47593689 C-0.55559446 28.33819062 -0.49645982 25.20036554 -0.4375 22.0625 C-0.39427009 19.92642437 -0.35065442 17.7903565 -0.30664062 15.65429688 C-0.19996157 10.43627728 -0.09856384 5.21817894 0 0 Z " fill="#D1EDF9" transform="translate(408,257)"/>
<path d="M0 0 C5.28 0 10.56 0 16 0 C16.12543987 5.40356375 16.21518755 10.80624437 16.2746582 16.2109375 C16.29949945 18.04181719 16.33338505 19.87260103 16.37719727 21.703125 C16.6674789 34.16132993 15.56949821 44.33198431 11 56 C10.52542358 57.22106445 10.52542358 57.22106445 10.04125977 58.46679688 C9.78014404 59.13775391 9.51902832 59.80871094 9.25 60.5 C6.39542754 68.4928029 6.64075085 74.26111545 10 82 C12.15370547 85.79204061 14.56168067 89.38652465 17 93 C24.3547448 104.36487248 27.27673118 113.21710656 26 127 C24.19139336 135.33250914 19.69526128 142.01288332 15 149 C8.32389618 159.04210044 8.32389618 159.04210044 7.3828125 170.73828125 C8.97213436 177.63447669 11.4298268 184.25399319 13.9140625 190.87109375 C16.10029671 197.17027938 16.70470249 203.36149832 16 210 C14.5 212.6875 14.5 212.6875 12 214 C9.18251629 214.58890028 6.81319549 214.63094302 4 214 C1.16968656 211.91450589 0.2164006 210.14828787 -0.43359375 206.69921875 C-0.7041728 204.7270601 -0.97064564 202.75433631 -1.234375 200.78125 C-2.20929859 195.96632126 -3.85866622 191.53563399 -5.5625 186.9375 C-9.94603011 174.8794477 -11.74029847 164.3886546 -6.84375 152.09765625 C-3.57358063 145.18488155 0.5598655 139.06834786 5.046875 132.91015625 C9.18560185 126.74345325 9.93092511 121.30875246 9 114 C6.95044018 107.77172599 3.00341223 102.44190165 -0.5625 97 C-7.8811747 85.81273295 -11.53860313 75.86105011 -8.9375 62.4375 C-8.05077306 58.5771446 -7.02636075 55.06299192 -5.49609375 51.40625 C1.29636459 35.14015391 -0.01815064 17.33386261 0 0 Z " fill="#D0EDF9" transform="translate(88,298)"/>
<path d="M0 0 C5.28 0 10.56 0 16 0 C16.090345 10.23122342 16.16374114 20.46218221 16.20724869 30.69371414 C16.22812944 35.44456036 16.2564559 40.19511969 16.30175781 44.94580078 C16.3451983 49.52993339 16.36913343 54.11378994 16.37950897 58.69811249 C16.38690359 60.44765316 16.40134355 62.19717862 16.42292023 63.94660187 C16.45193101 66.39604925 16.45595708 68.84435395 16.45410156 71.29394531 C16.47567322 72.38043617 16.47567322 72.38043617 16.49768066 73.48887634 C16.46942983 76.93229578 16.23993387 78.69163669 14.09661865 81.44622803 C11.83750969 83.12041908 10.77910959 83.56792795 8 83.5625 C7.01 83.59537109 7.01 83.59537109 6 83.62890625 C2.80903943 82.62549873 1.79140468 80.77050198 0 78 C-0.36703344 75.2817241 -0.50885792 72.98081611 -0.45410156 70.2722168 C-0.45468567 69.51070816 -0.45526978 68.74919952 -0.45587158 67.96461487 C-0.45309498 65.45901173 -0.42202469 62.95461287 -0.390625 60.44921875 C-0.38316106 58.70759226 -0.37746885 56.96595736 -0.37347412 55.22431946 C-0.35822973 50.64892229 -0.31895843 46.07403614 -0.2746582 41.49884033 C-0.23367959 36.82677116 -0.21545759 32.15461911 -0.1953125 27.48242188 C-0.15246268 18.32135438 -0.08212281 9.16079971 0 0 Z " fill="#D1EDF9" transform="translate(220,429)"/>
<path d="M0 0 C14.63138931 3.99445905 26.65865786 12.19953144 34.45703125 25.2265625 C40.96993828 36.93330679 40.96993828 36.93330679 40 44 C38.875 46.375 38.875 46.375 37 48 C33.62784741 49.09961497 31.8152316 49.33274759 28.51171875 47.984375 C25.15089197 45.32916504 24.12813614 42.20617121 22.6875 38.3125 C18.63637906 28.33905259 13.49507079 22.63840716 3.6015625 18.08984375 C0.10298679 16.62422419 -3.41334168 15.21655808 -6.96875 13.89453125 C-9 13 -9 13 -11 11 C-11.42834085 7.14493238 -11.55897202 4.87199635 -9.4375 1.5625 C-5.94740941 -0.67473756 -4.12840613 -0.52424205 0 0 Z " fill="#F5D400" transform="translate(251,203)"/>
<path d="M0 0 C12.94078592 2.61257376 25.09598057 9.93546103 33.4375 20.125 C38.72582228 28.130354 43.36917352 35.34242809 42.4375 45.125 C40.8125 47.625 40.8125 47.625 38.4375 49.125 C35.4375 49.625 35.4375 49.625 32.4375 49.125 C28.37574837 45.91621622 26.76118675 41.90032119 24.6875 37.3125 C18.57067693 24.49821557 9.57313473 19.88418821 -3.36328125 15.15234375 C-5.6713999 14.07412847 -6.98300162 13.11307525 -8.5625 11.125 C-9.26151676 7.10565362 -8.87385095 5.5822967 -6.5625 2.1875 C-3.5625 0.125 -3.5625 0.125 0 0 Z " fill="#00A9CE" transform="translate(116.5625,71.875)"/>
<path d="M0 0 C13.68220702 3.64040785 25.87982604 11.50289826 33.37109375 23.69921875 C34.11446659 25.00052541 34.84518166 26.30915176 35.5625 27.625 C35.89717285 28.23400146 36.2318457 28.84300293 36.57666016 29.47045898 C38.87870821 33.98545529 39.73953445 37.9288952 40 43 C38.5 46 38.5 46 36 48 C32.5 48.5625 32.5 48.5625 29 48 C25.52621507 45.19099193 24.24864281 42.54586685 22.8125 38.375 C18.99929264 28.85360724 12.95196927 22.19296679 3.5625 18.01171875 C1.7964942 17.31446951 0.02527695 16.63032521 -1.75 15.95703125 C-3.0803125 15.45236328 -3.0803125 15.45236328 -4.4375 14.9375 C-5.24058594 14.65777344 -6.04367187 14.37804688 -6.87109375 14.08984375 C-9.43048528 12.77962313 -10.51186549 11.43810717 -12 9 C-12.57035173 5.74084723 -12.30684791 4.4730572 -10.5 1.6875 C-6.96549586 -0.69829029 -4.06631949 -0.66750303 0 0 Z " fill="#AD6BFF" transform="translate(439,33)"/>
<path d="M0 0 C5.94 0 11.88 0 18 0 C19.20436276 3.36981301 20.3887291 6.74453979 21.5625 10.125 C22.07586914 11.55199219 22.07586914 11.55199219 22.59960938 13.0078125 C25.68247708 21.9761549 25.68247708 21.9761549 24 27 C20.84745763 31.57627119 20.84745763 31.57627119 18 33 C15.0479965 33.17776132 12.14127402 33.27764035 9.1875 33.3125 C8.37990234 33.34150391 7.57230469 33.37050781 6.74023438 33.40039062 C2.63551763 33.44409359 0.54378257 33.34206816 -3.01171875 31.10546875 C-6.31542441 27.60704566 -6.44047509 24.95758586 -6.43359375 20.28515625 C-5.50011869 13.21261096 -2.5246083 6.6270968 0 0 Z " fill="#F4D400" transform="translate(219,396)"/>
<path d="M0 0 C5.94 0 11.88 0 18 0 C25.88568257 19.3063263 25.88568257 19.3063263 25 25 C23.49987532 27.5647293 22.10816535 29.89183465 20 32 C16.5939463 32.36239123 13.17272306 32.37159099 9.75 32.4375 C8.31720703 32.50614258 8.31720703 32.50614258 6.85546875 32.57617188 C0.12583859 32.68380852 0.12583859 32.68380852 -2.78710938 30.91455078 C-5.3899618 28.20431693 -6.01508468 25.88592214 -6.5 22.21875 C-6.17892963 17.40269442 -4.63070673 13.01015284 -3 8.5 C-2.71382813 7.67757813 -2.42765625 6.85515625 -2.1328125 6.0078125 C-1.4328788 4.00133589 -0.71798093 2.00008974 0 0 Z " fill="#00A9CE" transform="translate(87,266)"/>
<path d="M0 0 C6.27 0 12.54 0 19 0 C26.26299694 15.97859327 26.26299694 15.97859327 25 25 C23.20353146 27.93423195 22.0558929 29.47205355 19 31 C16.0479965 31.17776132 13.14127402 31.27764035 10.1875 31.3125 C8.97610352 31.35600586 8.97610352 31.35600586 7.74023438 31.40039062 C3.63209147 31.44413007 1.55514332 31.35485632 -1.98828125 29.08984375 C-5.15998229 25.79496985 -6.02559286 24.3564216 -5.9375 19.6875 C-4.90896364 12.93773012 -2.2311177 6.40731238 0 0 Z " fill="#AD6BFE" transform="translate(406,226)"/>
<path d="M0 0 C2.71753319 1.68674474 3.04570031 3.12948422 4.125 6.1875 C3.98683715 10.40146683 3.69498928 10.79191158 0.9921875 13.7109375 C0.35265137 14.40759521 -0.28688477 15.10425293 -0.94580078 15.82202148 C-1.96262939 16.90012085 -1.96262939 16.90012085 -3 18 C-3.6482373 18.70261963 -4.29647461 19.40523926 -4.96435547 20.12915039 C-6.94965761 22.25913738 -8.96951555 24.35061321 -11 26.4375 C-11.67289062 27.15615234 -12.34578125 27.87480469 -13.0390625 28.61523438 C-16.32439402 31.97350279 -18.22632174 33.79619418 -22.85546875 35.015625 C-26.02175017 34.99989192 -27.51614046 34.93189076 -30 33 C-32.01811253 30.40528389 -32.00076165 29.01605167 -31.84326172 25.69677734 C-30.8360293 21.28116839 -29.40687102 19.68372556 -26.1953125 16.5390625 C-25.71552948 16.06302582 -25.23574646 15.58698914 -24.74142456 15.0965271 C-23.73123869 14.0997133 -22.7139175 13.11008387 -21.68994141 12.12744141 C-20.12242372 10.62252661 -18.57754574 9.09702551 -17.03515625 7.56640625 C-7.43232333 -1.85808083 -7.43232333 -1.85808083 0 0 Z " fill="#50D9B1" transform="translate(352,385)"/>
<path d="M0 0 C2.79833984 2.02197266 2.79833984 2.02197266 5.4609375 4.6640625 C6.17499252 5.36950699 6.17499252 5.36950699 6.9034729 6.08920288 C7.90055193 7.08221999 8.89017859 8.08277107 9.87255859 9.09033203 C11.37139749 10.62132022 12.89959336 12.11761858 14.43359375 13.61328125 C15.40297114 14.58662386 16.37048542 15.56182628 17.3359375 16.5390625 C18.64377197 17.85704834 18.64377197 17.85704834 19.97802734 19.20166016 C22.398629 22.55168868 22.79496456 24.90836366 23 29 C22.21270916 31.64816011 21.47719891 32.62884529 19.3125 34.3125 C15.89510611 35.32848197 13.4631037 34.78172556 10 34 C7.20166016 31.97802734 7.20166016 31.97802734 4.5390625 29.3359375 C4.06302582 28.86564117 3.58698914 28.39534485 3.0965271 27.91079712 C2.09944807 26.91778001 1.10982141 25.91722893 0.12744141 24.90966797 C-1.37139749 23.37867978 -2.89959336 21.88238142 -4.43359375 20.38671875 C-5.40297114 19.41337614 -6.37048542 18.43817372 -7.3359375 17.4609375 C-8.20782715 16.58228027 -9.0797168 15.70362305 -9.97802734 14.79833984 C-12.40820571 11.43505749 -12.83930059 9.11498815 -13 5 C-11.75 2.125 -11.75 2.125 -10 0 C-6.15890028 -1.28036657 -3.93499766 -0.91972617 0 0 Z " fill="#FF6381" transform="translate(229,44)"/>
<path d="M0 0 C2.89013672 2.00024414 2.89013672 2.00024414 5.6796875 4.78515625 C6.17792023 5.27906357 6.67615295 5.77297089 7.18948364 6.28184509 C8.23480929 7.32679066 9.27148421 8.38045419 10.29980469 9.44213867 C11.86913416 11.05646596 13.47015686 12.63324448 15.078125 14.20898438 C16.09323019 15.23231159 17.10632218 16.25764058 18.1171875 17.28515625 C19.03097168 18.21207275 19.94475586 19.13898926 20.88623047 20.09399414 C23.37993797 23.52233792 23.86723134 25.79308618 24 30 C22.5625 32.9375 22.5625 32.9375 20 35 C16.01341908 35.79731618 13.70017238 36.02304745 10.1953125 33.9140625 C7.99633544 32.05484156 6.01587989 30.05814834 4 28 C2.81970046 26.85081496 1.63722338 25.70386414 0.453125 24.55859375 C-0.82426894 23.31127922 -2.10030031 22.06256781 -3.375 20.8125 C-3.99455566 20.20647949 -4.61411133 19.60045898 -5.25244141 18.97607422 C-5.83687012 18.39229004 -6.42129883 17.80850586 -7.0234375 17.20703125 C-7.54856934 16.6860083 -8.07370117 16.16498535 -8.61474609 15.62817383 C-11.28368745 12.49120345 -12.02113342 10.60230241 -11.875 6.4375 C-11 3 -11 3 -9.375 1.0625 C-6.02100291 -0.43797238 -3.65247457 -0.36014718 0 0 Z " fill="#50D9B1" transform="translate(469,477)"/>
<path d="M0 0 C3.38608973 0.79672699 4.3463354 1.5240916 6.859375 3.79296875 C7.56167236 4.4267041 8.26396973 5.06043945 8.98754883 5.71337891 C12.57773026 9.03701596 16.12978272 12.38894608 19.625 15.8125 C20.34365234 16.49376953 21.06230469 17.17503906 21.80273438 17.87695312 C24.8735512 20.89557477 26.92197148 22.91716146 28.24609375 27.0703125 C28.16572861 30.74567826 26.7750928 33.1624072 24.1875 35.75 C20.45863539 36.27334942 17.72446709 36.64319359 14.40625 34.71484375 C12.20917331 32.83094686 10.21274194 30.81968298 8.1875 28.75 C6.9210102 27.50343869 5.65260507 26.25882182 4.3828125 25.015625 C1.67337738 22.34736378 -1.03137771 19.6748668 -3.71484375 16.98046875 C-4.57323853 16.12038208 -4.57323853 16.12038208 -5.44897461 15.24291992 C-7.4012958 13.10532922 -7.80046589 11.84025585 -8.1875 8.9375 C-7.8125 5.75 -7.8125 5.75 -5.6875 2.875 C-2.8125 0.75 -2.8125 0.75 0 0 Z " fill="#FF6381" transform="translate(286.8125,476.25)"/>
<path d="M0 0 C4.91804825 2.56822515 8.60310968 7.02089434 12.41259766 10.97167969 C13.31816406 11.88304687 14.22373047 12.79441406 15.15673828 13.73339844 C22.69620629 21.41342327 22.69620629 21.41342327 24.10009766 25.09667969 C23.95259735 28.63668697 23.47106266 30.57458079 21.41259766 33.47167969 C19.10009766 35.09667969 19.10009766 35.09667969 16.35009766 35.78417969 C12.8713993 35.04830119 11.98179996 34.37062126 9.42431641 32.05371094 C8.72258301 31.41925049 8.02084961 30.78479004 7.29785156 30.13110352 C6.57259277 29.45974365 5.84733398 28.78838379 5.10009766 28.09667969 C4.39675293 27.44916748 3.6934082 26.80165527 2.96875 26.13452148 C0.84102439 24.14705578 -1.25063799 22.12704501 -3.33740234 20.09667969 C-4.05605469 19.42378906 -4.77470703 18.75089844 -5.51513672 18.05761719 C-8.8442277 14.80082941 -10.69065994 12.83544889 -11.98193359 8.27636719 C-11.89990234 5.09667969 -11.89990234 5.09667969 -10.14990234 2.22167969 C-6.82002543 -0.92320407 -4.35649141 -1.36777564 0 0 Z " fill="#50D9B1" transform="translate(30.89990234375,407.9033203125)"/>
<path d="M0 0 C1.9375 1.0625 1.9375 1.0625 3 3 C3.65719029 6.8774227 3.96122429 9.38751143 1.921875 12.80859375 C0.05536562 15.00032824 -1.94247622 16.98473184 -4 19 C-5.14918504 20.18029954 -6.29613586 21.36277662 -7.44140625 22.546875 C-8.68872078 23.82426894 -9.93743219 25.10030031 -11.1875 26.375 C-11.79352051 26.99455566 -12.39954102 27.61411133 -13.02392578 28.25244141 C-13.60770996 28.83687012 -14.19149414 29.42129883 -14.79296875 30.0234375 C-15.3139917 30.54856934 -15.83501465 31.07370117 -16.37182617 31.61474609 C-19.50879655 34.28368745 -21.39769759 35.02113342 -25.5625 34.875 C-29 34 -29 34 -30.9375 32.375 C-32.44082176 29.01463372 -32.37166584 26.65929361 -32 23 C-30.3865001 20.75761778 -29.01838811 19.1681993 -27.0390625 17.3203125 C-26.53329681 16.82207977 -26.02753113 16.32384705 -25.50643921 15.81051636 C-23.89503 14.23150726 -22.26068592 12.6788053 -20.625 11.125 C-19.53231291 10.05886903 -18.44114883 8.99117474 -17.3515625 7.921875 C-7.58679422 -1.59721984 -7.58679422 -1.59721984 0 0 Z " fill="#FF6281" transform="translate(509,246)"/>
<path d="M0 0 C3.27269748 2.04543593 3.84566918 3.40641993 4.8125 7.125 C3.51774266 13.29999653 -0.61732832 16.6480193 -5 21 C-6.05596798 22.07817446 -7.11061195 23.15764695 -8.1640625 24.23828125 C-18.58028582 34.84512209 -18.58028582 34.84512209 -23.4375 35.375 C-27 35 -27 35 -29.4375 33.5 C-31.58393538 30.06570339 -31.65735091 26.90513761 -31 23 C-29.015625 19.98046875 -29.015625 19.98046875 -26.25 17.1875 C-25.75846436 16.68831055 -25.26692871 16.18912109 -24.76049805 15.67480469 C-23.72107196 14.62996065 -22.67157693 13.59504721 -21.61279297 12.56982422 C-20.00337446 11.00328456 -18.44117537 9.39856669 -16.87890625 7.78515625 C-15.85932579 6.77086274 -14.83726617 5.75905398 -13.8125 4.75 C-12.89082031 3.83734375 -11.96914063 2.9246875 -11.01953125 1.984375 C-6.93308935 -0.70115215 -4.81838164 -0.50119109 0 0 Z " fill="#4FD9B2" transform="translate(31,0)"/>
<path d="M0 0 C3.32920557 0.56667329 4.71584456 0.94921042 6.9375 3.5 C8.04123378 7.47344161 8.35293583 9.58999772 6.625 13.375 C4.47209333 16.08606766 3.55285634 16.41795249 0.125 16.875 C-3.0625 16.5 -3.0625 16.5 -5.9375 14.375 C-8.0625 11.5 -8.0625 11.5 -8.6875 8.5 C-7.64069281 3.47532551 -5.09100787 0.83118496 0 0 Z " fill="#FDBB00" transform="translate(297.0625,13.5)"/>
<path d="M0 0 C2.5625 2.0625 2.5625 2.0625 4 5 C3.93971156 8.49672962 3.69777177 10.8982551 1.8125 13.875 C-0.7941818 15.49294043 -2.95262103 15.81342578 -6 16 C-8.59824558 15.20609163 -9.6521811 14.44719573 -11.3125 12.3125 C-12.31858949 8.92838082 -11.80442399 6.40333226 -11 3 C-8.73470302 -1.13083567 -4.20080762 -0.88571245 0 0 Z " fill="#FDBB00" transform="translate(159,469)"/>
<path d="M0 0 C2.562964 2.23225897 2.93752331 3.58051369 3.4375 6.9375 C2.88008526 10.83940315 1.97118368 12.40973731 -1 15 C-4.63450273 15.51921468 -7.01506272 15.37882203 -10.4375 14.0625 C-12.64493213 11.14868959 -12.39547534 8.72852041 -12.3359375 5.15625 C-12 3 -12 3 -10 0 C-6.20519658 -1.26493447 -3.87641726 -0.89988258 0 0 Z " fill="#FDBC00" transform="translate(12,263)"/>
<path d="M0 0 C3.32274404 2.45594125 4.77618008 3.9256644 5.625 8 C4.77618008 12.0743356 3.32274404 13.54405875 0 16 C-3.65126535 16.67064058 -5.23686002 16.48198314 -8.375 14.5 C-10.65416433 10.99359333 -10.81753559 8.07099353 -10 4 C-7.317936 -0.12625231 -4.78913194 -0.87963648 0 0 Z " fill="#FDBB00" transform="translate(468,336)"/>
<path d="M0 0 C2.4375 1.5 2.4375 1.5 4 4 C4.80414661 8.04560357 4.63828902 10.97873756 2.4375 14.5 C-0.94888329 16.58392818 -3.09385318 16.55802097 -7 16 C-9.4375 14.5 -9.4375 14.5 -11 12 C-11.80414661 7.95439643 -11.63828902 5.02126244 -9.4375 1.5 C-6.05111671 -0.58392818 -3.90614682 -0.55802097 0 0 Z " fill="#FDBA00" transform="translate(46,334)"/>
<path d="M0 0 C2.30760361 2.59605406 1.99668242 4.06303397 1.8125 7.5625 C1 11 1 11 -0.0625 12.9375 C-3.27905997 14.70141999 -6.49385409 14.73924763 -10 14 C-12.5625 11.9375 -12.5625 11.9375 -14 9 C-13.93822484 5.41704089 -13.76840164 3.04782042 -11.625 0.125 C-7.42822284 -2.78046111 -4.52007081 -1.72584522 0 0 Z " fill="#FDBB00" transform="translate(363,292)"/>
<path d="M0 0 C3.32274404 2.45594125 4.77618008 3.9256644 5.625 8 C4.77618008 12.0743356 3.32274404 13.54405875 0 16 C-3.65126535 16.67064058 -5.23686002 16.48198314 -8.375 14.5 C-10.65416433 10.99359333 -10.81753559 8.07099353 -10 4 C-7.317936 -0.12625231 -4.78913194 -0.87963648 0 0 Z " fill="#FDBC00" transform="translate(268,128)"/>
<path d="M0 0 C1.9375 1.0625 1.9375 1.0625 3 3 C4.12962701 7.06665724 4.43625505 9.10852228 2.5625 12.9375 C-0.11335266 15.09123507 -0.7955237 15.36136447 -4.0625 15.5 C-8 15 -8 15 -9.9375 13.9375 C-11.56269287 10.97391301 -11.82357605 8.35205511 -12 5 C-9.99184765 -0.86998381 -5.60189908 -0.60840297 0 0 Z " fill="#FDBC00" transform="translate(139,0)"/>
<path d="M0 0 C2.48896378 2.89040956 3.02797399 4.3006502 2.875 8.125 C1.53492334 12.52810903 1.53492334 12.52810903 -1 14 C-4.54329495 14.53260383 -7.74841596 14.68635254 -10.9375 12.9375 C-12.91221188 9.3365548 -13.44749344 5.65572574 -12.375 1.6875 C-8.75977266 -2.74936991 -4.81625378 -2.40812689 0 0 Z " fill="#FDBC00" transform="translate(490,409)"/>
<path d="M0 0 C2.09765625 0.37890625 2.09765625 0.37890625 4.16015625 1.94140625 C5.75720945 6.09374457 5.75720945 9.66406793 4.16015625 13.81640625 C1.23229034 16.03448648 -1.20328326 15.9393467 -4.8046875 15.7578125 C-6.90234375 15.37890625 -6.90234375 15.37890625 -8.96484375 13.81640625 C-10.56189695 9.66406793 -10.56189695 6.09374457 -8.96484375 1.94140625 C-6.03697784 -0.27667398 -3.60140424 -0.1815342 0 0 Z " fill="#FDBB00" transform="translate(9.90234375,496.62109375)"/>
</svg>
