<?xml version="1.0" encoding="UTF-8"?>
<svg version="1.1" xmlns="http://www.w3.org/2000/svg" width="512" height="512">
<path d="M0 0 C6.44686964 3.14773609 8.55712483 8.03772019 11.58984375 14.328125 C12.09745743 15.34992859 12.60507111 16.37173218 13.12806702 17.42449951 C14.74633055 20.6924534 16.34167284 23.97104186 17.9375 27.25 C19.00577065 29.40954272 20.07541912 31.56840445 21.14648438 33.7265625 C41.76158255 75.43255625 41.76158255 75.43255625 36.5 93.1875 C32.69507203 103.18711771 26.56950669 111.09144025 17 116 C14.03 117.32 11.06 118.64 8 120 C7.67 133.86 7.34 147.72 7 162 C35.71 162 64.42 162 94 162 C94 152.43 94 142.86 94 133 C92.02 132.67 90.04 132.34 88 132 C76.24101998 126.22923456 69.55246643 118.11482801 65 106 C63.68069683 102.0757033 63.74197798 98.03787603 63.6875 93.9375 C63.65849609 93.23689453 63.62949219 92.53628906 63.59960938 91.81445312 C63.47536047 81.23418125 68.83495988 71.92771279 73.5625 62.75 C78.27250727 53.48225019 82.83834784 44.16073188 87.25805664 34.75097656 C95.69597977 16.90458251 95.69597977 16.90458251 101 14 C106.08721534 13.36409808 108.89917379 13.99435562 113 17 C114.68203735 19.50210571 114.68203735 19.50210571 116.18212891 22.52197266 C116.75266998 23.65390045 117.32321106 24.78582825 117.91104126 25.95205688 C118.5166853 27.18916196 119.121847 28.42650327 119.7265625 29.6640625 C120.36136324 30.93911343 120.99723511 32.21363158 121.63412476 33.48764038 C122.96559541 36.15830264 124.28765401 38.83334112 125.60253906 41.51220703 C127.27784918 44.92483451 128.97030465 48.32857169 130.66927528 51.72947121 C131.98348072 54.36261487 133.29120291 56.99893432 134.59678268 59.63636398 C135.21819348 60.89114772 135.84088913 62.14529609 136.46495438 63.39876175 C143.36198916 77.28236001 149.20304591 91.43881661 144 107 C139.0805176 119.40354743 132.59610791 126.21109273 120.63671875 131.96875 C118 133 118 133 115 133 C115 142.57 115 152.14 115 162 C118.90585937 161.89558594 118.90585937 161.89558594 122.890625 161.7890625 C125.4524295 161.7420805 128.01418342 161.70575768 130.57617188 161.67041016 C132.33746316 161.6404978 134.0986089 161.59975134 135.859375 161.54736328 C147.86676206 161.19942195 157.79543482 161.54535529 167.24462891 170.01098633 C175.15981152 178.12707809 176.15550273 188.02218561 176.11352539 198.83911133 C176.11367142 199.82495209 176.11381744 200.81079285 176.1139679 201.82650757 C176.11327237 205.07837134 176.10549681 208.33017751 176.09765625 211.58203125 C176.09579079 213.83932972 176.09436749 216.09662859 176.09336853 218.35392761 C176.08955343 224.29032512 176.07973172 230.22669811 176.06866455 236.16308594 C176.0584288 242.22265287 176.05386627 248.28222378 176.04882812 254.34179688 C176.03810857 266.22787535 176.02104421 278.11393563 176 290 C176.57509308 289.99345398 177.15018616 289.98690796 177.7427063 289.98016357 C180.37272402 289.95402453 183.0027143 289.93786899 185.6328125 289.921875 C186.53749268 289.91140137 187.44217285 289.90092773 188.37426758 289.89013672 C198.36340935 289.8445866 206.47162055 291.54310821 213.8125 298.7890625 C220.99324207 306.53827998 223.12891483 313.98173552 223.12025452 324.52999878 C223.12231651 326.47341911 223.12231651 326.47341911 223.12442017 328.45610046 C223.12088169 329.87942528 223.11724689 331.30274987 223.11352539 332.72607422 C223.11324313 334.2343292 223.11340202 335.74258433 223.1139679 337.25083923 C223.11425434 341.33507652 223.10838234 345.41928432 223.10139394 349.50351477 C223.09513493 353.77562656 223.09455458 358.04773906 223.09336853 362.31985474 C223.09026273 370.40512676 223.08205946 378.49038523 223.07201904 386.57565129 C223.06083459 395.78238486 223.05534157 404.98911909 223.05032361 414.19585776 C223.03987622 433.13057952 223.02229132 452.06528867 223 471 C223.6705542 470.98428955 224.3411084 470.9685791 225.03198242 470.95239258 C228.0837351 470.88985342 231.13535268 470.85094937 234.1875 470.8125 C235.77014648 470.77479492 235.77014648 470.77479492 237.38476562 470.73632812 C238.40634766 470.72666016 239.42792969 470.71699219 240.48046875 470.70703125 C241.41785889 470.6913208 242.35524902 470.67561035 243.32104492 470.65942383 C246.55787288 471.07092251 248.3796095 472.0816351 251 474 C253.67134463 478.00701694 253.82653281 481.28876296 253 486 C250.47031526 489.28175318 248.92268669 490.69243777 245 492 C242.2918921 492.09748609 239.60962145 492.13752337 236.90140057 492.13142776 C236.06230326 492.1334804 235.22320596 492.13553303 234.35868147 492.13764787 C231.52228419 492.14334177 228.6859351 492.14185768 225.84953308 492.14044189 C223.80531852 492.14302416 221.76110446 492.14603693 219.71689111 492.1494453 C214.08006971 492.15753479 208.44326103 492.15930595 202.80643451 492.16004276 C196.73473764 492.16188992 190.66304742 492.16943551 184.59135437 492.17617798 C170.61341137 492.19048467 156.63547147 492.19628948 142.65752299 492.20086992 C135.75246967 492.20320481 128.84741719 492.20680733 121.94236452 492.2105653 C98.31270082 492.22340118 74.68303759 492.23412068 51.05337048 492.2375679 C49.56971346 492.23778954 48.08605644 492.23801132 46.60239943 492.23823325 C45.11512958 492.23845389 43.62785974 492.23867438 42.14058989 492.2388947 C39.15679626 492.23933726 36.17300262 492.23978437 33.18920898 492.24023438 C32.44940022 492.24034377 31.70959146 492.24045316 30.94736425 492.24056586 C6.95244067 492.24419748 -17.04245271 492.2601213 -41.03736471 492.28342474 C-66.39728957 492.3080089 -91.75719716 492.32174007 -117.11713427 492.32293582 C-119.89984843 492.32310728 -122.68256257 492.32332271 -125.46527672 492.32357025 C-126.49307462 492.3236539 -126.49307462 492.3236539 -127.54163611 492.32373925 C-138.57834916 492.32489089 -149.61503128 492.33592239 -160.65173389 492.35045731 C-171.74041266 492.36480841 -182.82906005 492.36781418 -193.91774777 492.36001733 C-199.92751671 492.35610002 -205.93718134 492.35709299 -211.94693756 492.37107468 C-217.44479955 492.38374883 -222.94247815 492.38267342 -228.44033965 492.37048396 C-230.43294286 492.36851568 -232.42555877 492.37165716 -234.41814408 492.38032833 C-237.12027998 492.39134598 -239.82176007 492.38398602 -242.52387714 492.3719368 C-243.30301286 492.37953199 -244.08214857 492.38712718 -244.88489446 492.39495254 C-249.66060363 492.34877128 -252.96856251 491.58524444 -257 489 C-259.68209911 484.97685134 -259.68843415 481.72780081 -259 477 C-256.88608123 473.50109996 -255.88263941 472.29421314 -252 471 C-250.22686149 470.91790208 -248.45079225 470.89253706 -246.67578125 470.90234375 C-245.64775391 470.90556641 -244.61972656 470.90878906 -243.56054688 470.91210938 C-242.48869141 470.92048828 -241.41683594 470.92886719 -240.3125 470.9375 C-239.22904297 470.94201172 -238.14558594 470.94652344 -237.02929688 470.95117188 C-234.35280915 470.96296257 -231.67643223 470.97941937 -229 471 C-229.00184359 470.21977509 -229.00368717 469.43955019 -229.00558662 468.63568211 C-229.04980048 449.63051181 -229.08287351 430.62535182 -229.10362434 411.62014103 C-229.11392661 402.42927768 -229.12796687 393.2384487 -229.15087891 384.04760742 C-229.17084492 376.03468424 -229.18372406 368.02178596 -229.18817699 360.00883859 C-229.19077893 355.76804326 -229.19687273 351.52731916 -229.21146011 347.28654671 C-229.2250948 343.29013475 -229.2292108 339.29382299 -229.22621536 335.29738998 C-229.2267629 333.83535021 -229.23070515 332.37330688 -229.23841095 330.91128731 C-229.2994064 318.73529884 -228.90280369 308.23634252 -220.140625 299.05078125 C-213.39117564 292.81146469 -206.41056226 289.8425125 -197.13671875 289.90234375 C-196.25048828 289.90556641 -195.36425781 289.90878906 -194.45117188 289.91210938 C-193.53916016 289.92048828 -192.62714844 289.92886719 -191.6875 289.9375 C-190.75615234 289.94201172 -189.82480469 289.94652344 -188.86523438 289.95117188 C-186.57675627 289.96290766 -184.28841192 289.97932637 -182 290 C-182.00999275 288.13863655 -182.00999275 288.13863655 -182.02018738 286.2396698 C-182.08114536 274.51435656 -182.12604305 262.78907571 -182.15543652 251.06363964 C-182.17105625 245.03625544 -182.19222701 239.00899973 -182.22631836 232.98168945 C-182.25904352 227.15912433 -182.27688076 221.33668239 -182.28463173 215.51403236 C-182.29015166 213.29860815 -182.30093047 211.08319026 -182.31719017 208.86781883 C-182.33913925 205.75182179 -182.34195963 202.63632625 -182.34057617 199.52026367 C-182.351362 198.61538712 -182.36214783 197.71051056 -182.3732605 196.7782135 C-182.33003307 187.71185393 -180.68807535 178.92557406 -174.80859375 171.78515625 C-168.50582187 165.56406176 -161.50644117 161.77164555 -152.63981628 161.77340698 C-151.4317205 161.78889084 -151.4317205 161.78889084 -150.19921875 161.8046875 C-148.9446563 161.80893234 -148.9446563 161.80893234 -147.66474915 161.81326294 C-145.00551774 161.8244168 -142.34662882 161.84951237 -139.6875 161.875 C-137.87956217 161.88503601 -136.07161904 161.89416077 -134.26367188 161.90234375 C-129.84221128 161.92263499 -125.42148695 161.96179224 -121 162 C-121 152.43 -121 142.86 -121 133 C-122.98 132.67 -124.96 132.34 -127 132 C-138.63954641 126.63897244 -145.25278531 118.76220709 -150 107 C-155.86668975 89.50757643 -147.4572472 73.46595473 -139.78125 58.0234375 C-139.20088989 56.85036041 -138.62052979 55.67728333 -138.02258301 54.46865845 C-136.80662985 52.01453804 -135.58573154 49.56295136 -134.36181641 47.11279297 C-132.79821916 43.98026161 -131.25340038 40.83884754 -129.71268463 37.69501305 C-128.22714141 34.67326923 -126.72169964 31.661561 -125.21875 28.6484375 C-124.39509949 26.96105972 -124.39509949 26.96105972 -123.55480957 25.23959351 C-123.03076538 24.20065948 -122.50672119 23.16172546 -121.96679688 22.09130859 C-121.51332886 21.17787689 -121.05986084 20.26444519 -120.59265137 19.32333374 C-118.70250288 16.56601607 -116.9977738 15.43765396 -114 14 C-109.85045683 13.39643008 -107.78607003 13.51609616 -104.1953125 15.7265625 C-99.35719247 19.98729992 -97.03692455 26.16131963 -94.3125 31.875 C-93.70177273 33.12939544 -93.08985989 34.3832143 -92.47680664 35.63647461 C-90.92936821 38.8091616 -89.39938038 41.98989505 -87.87536621 45.17388916 C-86.5313302 47.9776971 -85.17490482 50.77549908 -83.8203125 53.57421875 C-81.18623748 59.03681032 -78.56867565 64.50631854 -76 70 C-75.54383301 70.97437012 -75.08766602 71.94874023 -74.61767578 72.95263672 C-74.16763184 73.92604004 -73.71758789 74.89944336 -73.25390625 75.90234375 C-72.84599854 76.78269287 -72.43809082 77.66304199 -72.01782227 78.57006836 C-68.39209541 87.22606724 -68.60558816 99.16728071 -71.625 108 C-76.64404851 119.605449 -83.52675743 126.56756035 -94.765625 132.1171875 C-97 133 -97 133 -100 133 C-100 142.57 -100 152.14 -100 162 C-71.29 162 -42.58 162 -13 162 C-13.33 148.14 -13.66 134.28 -14 120 C-18.62 117.69 -23.24 115.38 -28 113 C-36.59633964 106.12292829 -41.78344142 97.84530447 -44 87 C-45.51629055 71.45802188 -39.76600629 59.89185273 -33.0625 46.375 C-32.29607609 44.8197732 -31.53004767 43.26435144 -30.7644043 41.70874023 C-29.61114028 39.36736996 -28.45664882 37.02664625 -27.29829407 34.68778992 C-24.96736734 29.98007611 -22.67893467 25.2552929 -20.421875 20.51171875 C-19.38562098 18.36188067 -18.3491777 16.21213381 -17.3125 14.0625 C-16.62909546 12.60046143 -16.62909546 12.60046143 -15.93188477 11.10888672 C-12.52009235 4.12611438 -8.69553475 -1.44925579 0 0 Z M-4 36 C-6.54772377 41.07074188 -9.09282532 46.14278789 -11.63549805 51.21606445 C-12.50098749 52.94201238 -13.36719438 54.66760072 -14.23413086 56.39282227 C-15.47958824 58.87161752 -16.72246601 61.35169133 -17.96484375 63.83203125 C-18.35341049 64.60400345 -18.74197723 65.37597565 -19.14231873 66.17134094 C-19.50261673 66.89186142 -19.86291473 67.6123819 -20.23413086 68.35473633 C-20.55167831 68.98761063 -20.86922577 69.62048492 -21.19639587 70.27253723 C-23.57564837 75.38708302 -23.98083422 80.7384308 -22.3515625 86.15625 C-19.45530044 92.59238792 -15.04522631 96.72654172 -8.5625 99.4375 C-2.05850749 100.46444619 3.40514261 99.64882004 9 96 C13.99889441 91.16853268 16.73001826 87.05079365 17.3515625 80.02734375 C17.29890684 73.9388796 14.73771224 69.25851697 12 63.9375 C11.25592896 62.43981079 11.25592896 62.43981079 10.49682617 60.91186523 C9.01333849 57.9331863 7.50751194 54.96657355 6 52 C5.16060005 50.3161794 4.3231912 48.63136394 3.48828125 46.9453125 C1.67537091 43.28835705 -0.15562706 39.64118326 -2 36 C-2.66 36 -3.32 36 -4 36 Z M-111 49 C-116.18569169 58.66768826 -121.28754382 68.37169299 -126.0625 78.25 C-126.44398193 79.02255127 -126.82546387 79.79510254 -127.21850586 80.59106445 C-130.45927196 87.38784627 -131.73574582 93.39414731 -129.85546875 100.7890625 C-127.92373888 105.78156983 -124.53979225 108.99578766 -120.125 111.875 C-112.55776103 114.59920603 -107.23902853 114.32828898 -100 111 C-95.12393142 108.07435885 -92.75326285 104.29886892 -91 99 C-89.80958284 90.44947675 -92.07957434 84.29892997 -96 76.8125 C-96.49604736 75.82306396 -96.99209473 74.83362793 -97.50317383 73.81420898 C-98.5066634 71.81740852 -99.51932448 69.82518845 -100.54150391 67.83789062 C-101.88696856 65.21993262 -103.20596971 62.59106595 -104.51171875 59.953125 C-106.3234941 56.29294493 -108.15454896 52.64331165 -110 49 C-110.33 49 -110.66 49 -111 49 Z M104 49 C101.45227623 54.07074188 98.90717468 59.14278789 96.36450195 64.21606445 C95.49901251 65.94201238 94.63280562 67.66760072 93.76586914 69.39282227 C92.52041176 71.87161752 91.27753399 74.35169133 90.03515625 76.83203125 C89.64658951 77.60400345 89.25802277 78.37597565 88.85768127 79.17134094 C88.49738327 79.89186142 88.13708527 80.6123819 87.76586914 81.35473633 C87.44832169 81.98761063 87.13077423 82.62048492 86.80360413 83.27253723 C84.18016985 88.91198691 84.06311128 95.29042708 85.578125 101.2890625 C88.04205942 107.09050809 92.37245524 110.37622511 98 113 C103.40981977 114.63211512 107.99277965 114.28144063 113.1484375 112.01171875 C118.40569482 109.13908237 121.90499327 105.73370262 124 100 C127.09988384 88.31927827 119.36593502 77.3080216 114.39941406 67.0559082 C113.36344746 64.91361026 112.3378345 62.7665439 111.3125 60.61914062 C110.65426533 59.25490925 109.99543354 57.8909658 109.3359375 56.52734375 C109.0307016 55.88578842 108.7254657 55.24423309 108.41098022 54.58323669 C106.88743869 51.17100429 106.88743869 51.17100429 104 49 Z M-158.1951313 185.35092068 C-161.12659821 189.6535541 -161.1355103 193.27285737 -161.09765625 198.29296875 C-161.0962413 198.99899734 -161.09482635 199.70502594 -161.09336853 200.43244934 C-161.08777764 202.68417626 -161.07522688 204.93580321 -161.0625 207.1875 C-161.05748382 208.71549335 -161.05292112 210.24348827 -161.04882812 211.77148438 C-161.0378112 215.51436135 -161.02055287 219.25716373 -161 223 C-148.8331162 226.27319168 -135.69755956 226.45225136 -124.40625 220.078125 C-121.87564074 218.56644975 -119.38547845 216.99390015 -116.89453125 215.41796875 C-98.66780325 203.9289086 -80.33632905 199.23141998 -58.875 203 C-47.39476014 205.8201748 -37.308252 212.02587931 -27.5234375 218.4609375 C-16.39686145 225.24711546 -3.40648124 226.70158216 9.23828125 223.8828125 C17.25161573 221.32126569 24.63433237 216.98500737 31.625 212.375 C47.26310115 202.17125365 65.96089766 199.31133174 84.203125 203.02783203 C94.52324198 205.48343073 103.55358096 210.40014455 112.37109375 216.19140625 C123.21828598 223.26226505 133.98482076 226.3273759 147 225 C149.69340317 224.41029814 152.33585486 223.71672072 155 223 C155.07449251 218.55260587 155.12876257 214.1055481 155.16479492 209.65771484 C155.17982543 208.14658273 155.20025564 206.63549382 155.22631836 205.12451172 C155.26295689 202.94487813 155.27978338 200.76582425 155.29296875 198.5859375 C155.3086792 197.2767334 155.32438965 195.9675293 155.34057617 194.61865234 C154.97091495 190.69096869 154.09301761 188.32397034 152 185 C148.70223153 182.80148769 147.7270608 182.74806265 143.89714241 182.73993778 C142.8353005 182.73287219 141.7734586 182.7258066 140.67943966 182.7185269 C139.5087405 182.72094198 138.33804135 182.72335707 137.13186646 182.72584534 C135.27121341 182.71799032 135.27121341 182.71799032 133.37297142 182.70997661 C129.92325909 182.69753998 126.47375031 182.69413387 123.02402949 182.69457352 C119.3061414 182.69292791 115.58829066 182.67986626 111.87042236 182.66838074 C103.73829279 182.64551243 95.60618929 182.63760829 87.47403193 182.63255429 C82.39826092 182.62929966 77.32249752 182.62277863 72.2467308 182.6155529 C58.19870052 182.59598526 44.15067731 182.57958179 30.10263252 182.57667637 C29.20334188 182.5764888 28.30405123 182.57630123 27.37750935 182.57610798 C25.55436063 182.57574172 23.73121191 182.57537802 21.90806319 182.57501686 C21.00302636 182.57483405 20.09798953 182.57465124 19.16552734 182.57446289 C18.25938851 182.57428234 17.35324968 182.57410179 16.41965209 182.57391577 C1.73120676 182.57037281 -12.95709207 182.54334357 -27.64548658 182.505965 C-42.71884898 182.46791308 -57.79213864 182.44851912 -72.86555016 182.44821686 C-81.33160165 182.44763161 -89.79747836 182.43909654 -98.26348495 182.41021919 C-105.47127579 182.38574697 -112.67882812 182.37839416 -119.88664924 182.39346672 C-123.56534812 182.40065263 -127.24357564 182.39970685 -130.92222214 182.37705612 C-134.90765883 182.35275108 -138.89241752 182.36705485 -142.87789917 182.38526917 C-144.62725574 182.36546921 -144.62725574 182.36546921 -146.41195285 182.34526926 C-152.74955512 182.36388364 -152.74955512 182.36388364 -158.1951313 185.35092068 Z M-109.7578125 234.71484375 C-122.76601409 242.72773282 -134.96662243 245.37680575 -150.1875 245.125 C-153.755625 245.08375 -157.32375 245.0425 -161 245 C-161 259.85 -161 274.7 -161 290 C-147.73223624 290.24939039 -147.73223624 290.24939039 -134.46411133 290.47802734 C-132.79506866 290.51324821 -131.12604059 290.54917111 -129.45703125 290.5859375 C-128.59734741 290.59729736 -127.73766357 290.60865723 -126.85192871 290.62036133 C-122.51158786 290.72503902 -118.8996626 290.86949389 -115 293 C-112.99287074 295.2747465 -112.07339609 296.91416956 -111.8671875 299.96484375 C-112.10313855 303.69148233 -112.34489161 305.33151498 -115.04980469 308.09165955 C-118.75463204 310.48813543 -121.74733652 310.55442065 -126.015625 310.49829102 C-127.20436218 310.50656921 -127.20436218 310.50656921 -128.41711426 310.51501465 C-130.13201422 310.52431672 -131.84698327 310.52445462 -133.56188965 310.51642036 C-136.27761276 310.5037777 -138.99232142 310.51509092 -141.70800781 310.53245544 C-146.49338772 310.55914804 -151.27851854 310.56475141 -156.06396484 310.56335449 C-163.72324675 310.56112536 -171.38222056 310.57524801 -179.04138184 310.61894035 C-181.71427625 310.62877481 -184.38668591 310.62006387 -187.05957031 310.61024475 C-188.7011751 310.61638955 -190.34277725 310.62330148 -191.984375 310.63110352 C-192.72530396 310.62338425 -193.46623291 310.61566498 -194.22961426 310.60771179 C-199.87585778 310.66303964 -203.0487481 312.0487481 -207 316 C-208.46920854 319.85065938 -208.1257825 323.98736477 -208.09765625 328.046875 C-208.0962413 328.81807678 -208.09482635 329.58927856 -208.09336853 330.3838501 C-208.08778534 332.83927338 -208.07523595 335.29460442 -208.0625 337.75 C-208.05748283 339.41796743 -208.0529203 341.08593629 -208.04882812 342.75390625 C-208.03782141 346.83597287 -208.02056836 350.91797081 -208 355 C-206.98824707 355.2568457 -205.97649414 355.51369141 -204.93408203 355.77832031 C-203.58358526 356.12797108 -202.23316617 356.477922 -200.8828125 356.828125 C-200.21870361 356.99586426 -199.55459473 357.16360352 -198.87036133 357.33642578 C-189.84724821 359.69316777 -182.22713324 364.18989757 -174.375 369.125 C-162.02274412 376.85254764 -149.37543532 380.10734937 -134.93359375 376.953125 C-126.38385042 374.17531225 -118.32100973 369.49974281 -110.6875 364.8125 C-94.77741561 355.04828433 -76.95495865 352.26860045 -58.625 356.07861328 C-47.68578296 358.7252842 -38.68224281 364.30429886 -29.25 370.25 C-16.37589834 378.26916935 -3.4179257 379.49470805 11.2734375 376.17578125 C17.77368912 374.12486328 23.27088402 370.62889919 29 367 C46.74193316 355.93649338 64.37246957 352.39087817 85.125 355.9375 C93.79254745 358.07913177 101.33464014 362.55808685 109 367 C109.66692871 367.38478516 110.33385742 367.76957031 111.02099609 368.16601562 C111.99093506 368.72579102 111.99093506 368.72579102 112.98046875 369.296875 C113.60695313 369.6575708 114.2334375 370.0182666 114.87890625 370.38989258 C116.57544812 371.37259522 118.26269382 372.37129753 119.94921875 373.37109375 C130.06740285 378.77350447 141.83205911 379.1446894 152.921875 376.9453125 C160.59471213 374.58893359 167.67449912 370.17261338 174.390625 365.8359375 C183.24362607 360.12639333 191.69791363 357.02811486 202 355 C202.04955872 350.10702988 202.0857946 345.21420695 202.10986328 340.32104492 C202.11990057 338.65760756 202.13353331 336.99418775 202.15087891 335.33081055 C202.17522749 332.93533995 202.18650588 330.54010332 202.1953125 328.14453125 C202.20563507 327.4047554 202.21595764 326.66497955 202.22659302 325.90278625 C202.22766047 320.95390851 201.75344107 317.13462392 198.5625 313.25 C195.83900164 311.07120131 193.26083728 310.87449907 189.9122715 310.86971474 C188.65913971 310.86427822 188.65913971 310.86427822 187.38069212 310.85873187 C186.00401084 310.86033424 186.00401084 310.86033424 184.59951782 310.86196899 C183.62451336 310.85914771 182.6495089 310.85632643 181.64495885 310.85341966 C178.36307008 310.84505649 175.08121497 310.84373395 171.79931641 310.84228516 C169.45233566 310.83761826 167.10535582 310.8324749 164.75837708 310.82688904 C159.69685577 310.81559811 154.63534039 310.80716879 149.57381058 310.80076981 C141.5742001 310.79010576 133.57462729 310.76988347 125.57504272 310.74765015 C122.83853354 310.74017041 120.10202418 310.73275669 117.36551476 310.72536278 C116.33967907 310.72258693 116.33967907 310.72258693 115.29311944 310.719755 C107.50759148 310.69882625 99.72205893 310.67999851 91.93652344 310.66210938 C90.86890013 310.6596521 90.86890013 310.6596521 89.77970867 310.65714519 C78.24376759 310.63085612 66.7078233 310.61221475 55.17186494 310.59551747 C43.33030818 310.5781009 31.48881429 310.5492608 19.64730775 310.5106281 C12.99778836 310.48932278 6.34833712 310.47409601 -0.30121994 310.47182083 C-6.55402684 310.4696789 -12.80664675 310.45385593 -19.05939674 310.42743111 C-21.35679532 310.42021962 -23.65421652 310.41814605 -25.95162392 310.42153358 C-29.08315581 310.42541412 -32.21408634 310.41101923 -35.34555054 310.39199829 C-36.25887661 310.39752799 -37.17220269 310.40305768 -38.11320531 310.40875494 C-42.88018921 310.35862701 -46.150811 310.14462617 -50 307 C-51.17635297 304.64729407 -51.13359359 303.179248 -51.125 300.5625 C-51.12757813 299.78003906 -51.13015625 298.99757813 -51.1328125 298.19140625 C-51 296 -51 296 -50 293 C-45.32161709 290.84924869 -40.78321285 290.7085929 -35.72366333 290.7215271 C-34.90590986 290.7157347 -34.08815639 290.7099423 -33.24562252 290.70397437 C-30.51413119 290.68701186 -27.78280921 290.6841011 -25.05126953 290.68115234 C-23.08981412 290.67185158 -21.12836267 290.66168269 -19.16691589 290.65071106 C-13.8472013 290.62341372 -8.52751319 290.60826238 -3.20774698 290.59528303 C2.35364919 290.57965138 7.91499131 290.55286125 13.47634888 290.5272522 C24.0052958 290.48046507 34.5342529 290.4437206 45.06325066 290.41057932 C57.05110325 290.37235751 69.03890154 290.32294748 81.02670836 290.27259517 C105.68443715 290.16927625 130.34218876 290.08149262 155 290 C155 275.15 155 260.3 155 245 C151.49375 245.061875 147.9875 245.12375 144.375 245.1875 C123.57860267 245.26184052 109.12422321 238.59152205 91.83984375 227.6953125 C81.31782451 221.413942 69.13344323 220.5251934 57.25 222.9375 C49.87950574 224.97206352 43.61638854 228.96118374 37.07324219 232.79931641 C18.53491595 243.53547849 -0.12543282 248.33691313 -21.4453125 243.1640625 C-29.85244693 240.41095694 -37.54182072 236.04398316 -45.1484375 231.58203125 C-68.6050629 217.8410856 -87.26006384 220.72545046 -109.7578125 234.71484375 Z M-109.72265625 387.71484375 C-126.64708122 398.25572967 -145.76835717 400.48748947 -165.17578125 396.16796875 C-176.03337008 392.85191251 -185.61412087 386.72527947 -195.14453125 380.69921875 C-199.05993188 378.36926078 -203.33780848 376 -208 376 C-208 407.35 -208 438.7 -208 471 C-72.7 471 62.6 471 202 471 C202 439.65 202 408.3 202 376 C195.74623232 377.56344192 192.3825354 378.61733456 187.125 381.75 C186.52131592 382.10416992 185.91763184 382.45833984 185.2956543 382.82324219 C182.59169046 384.41596342 179.91978234 386.0503506 177.26171875 387.71875 C160.36958468 398.27970144 141.20253559 400.48101106 121.82421875 396.16796875 C110.95840985 392.84940199 101.38481499 386.71253788 91.83984375 380.6953125 C81.07552707 374.26929676 68.26534086 373.49302596 56.125 375.9375 C49.71164435 377.72179317 44.51055962 381.08012088 38.92578125 384.58203125 C21.05919848 395.73131557 3.08878159 400.69053678 -18 397 C-28.4921903 394.45138624 -37.77091268 389.06845968 -46.8503418 383.37524414 C-68.84135251 369.62556323 -88.93912452 374.6244988 -109.72265625 387.71484375 Z " fill="#000000" transform="translate(259,10)"/>
<path d="M0 0 C3.14373796 2.67217727 3.87287599 4.52540369 4.9375 8.5 C5.00870535 12.48749959 4.47505731 13.92751507 2 17 C-0.52414681 19.61429492 -1.76807058 19.97469861 -5.4375 20.375 C-9.20656993 19.9782558 -11.02618388 19.29408672 -14 17 C-16.66836411 12.99745384 -16.8340238 9.70686701 -16 5 C-11.19115788 -1.07432689 -7.28495761 -1.86660835 0 0 Z " fill="#000000" transform="translate(201,419)"/>
<path d="M0 0 C3.20613573 1.89993229 5.39902918 3.33474007 6.69921875 6.9375 C7.30870926 10.39783321 7.19122681 12.52193297 5.875 15.8125 C2.9521097 19.22253869 0.52943688 20.77221153 -3.9375 21.4375 C-7.8124426 20.88393677 -9.95425348 19.40826469 -13 17 C-14.73631636 13.52736727 -14.60190402 9.78806987 -14 6 C-9.78502349 0.67581915 -6.7408423 -0.67408423 0 0 Z " fill="#000000" transform="translate(198,247)"/>
<path d="M0 0 C5.53846154 3.07692308 5.53846154 3.07692308 7 6 C7.42071592 9.05920574 7.48514117 11.9467746 7 15 C4.81840855 17.75569447 3.12822506 19.43588747 0 21 C-4.5406461 21.12272016 -7.98402339 20.86358012 -11.5 17.875 C-13.32927958 14.36888081 -14 11.9683693 -14 8 C-10.54401038 1.45830537 -7.42534238 -0.75511956 0 0 Z " fill="#000000" transform="translate(314,448)"/>
<path d="M0 0 C3.5386994 1.65139305 4.81070153 2.71605229 7 6 C7.54531842 9.06526351 7.54325893 11.93408329 7 15 C4.81840855 17.75569447 3.12822506 19.43588747 0 21 C-4.22672392 21.04079849 -7.88623137 20.69610539 -11.5 18.4375 C-13.59404613 15.03467504 -14.20639604 11.98503118 -14 8 C-11.14641315 1.24150483 -7.2032171 -0.75823338 0 0 Z " fill="#000000" transform="translate(91,448)"/>
<path d="M0 0 C3.14373796 2.67217727 3.87287599 4.52540369 4.9375 8.5 C5.02387834 13.33718716 3.51764453 15.36993736 0.3125 18.8125 C-3.08364801 20.5564679 -6.3104216 20.68081506 -10 20 C-12.8100346 18.20636089 -14.50940468 16.98119065 -16 14 C-16.42950108 5.12364425 -16.42950108 5.12364425 -14 2 C-9.69764334 -1.78085889 -5.26101625 -1.59305539 0 0 Z " fill="#000000" transform="translate(183,301)"/>
<path d="M0 0 C2.89583692 1.57382441 4.55413169 2.68441325 5.6328125 5.8671875 C6.25043506 9.34952744 6.20172633 11.49568418 4.875 14.8125 C1.9521097 18.22253869 -0.47056312 19.77221153 -4.9375 20.4375 C-8.8124426 19.88393677 -10.95425348 18.40826469 -14 16 C-15.87174644 12.25650712 -15.44771687 7.6565524 -14.375 3.6875 C-10.41034844 -1.17820873 -5.75652358 -1.56996098 0 0 Z " fill="#000000" transform="translate(429,425)"/>
<path d="M0 0 C3.18637361 0.64073817 4.95955678 2.09960721 7.15625 4.43359375 C8.77613799 7.67336973 8.72145367 10.93192965 8.15625 14.43359375 C6.81584381 17.24063271 5.60879539 18.29413926 3.15625 20.43359375 C-0.90266233 21.68816665 -3.06059156 21.68962632 -7.09375 20.37109375 C-10.46922612 17.9929174 -11.5625101 16.3526805 -12.84375 12.43359375 C-12.84375 8.15922781 -12.25188237 6.03303817 -9.84375 2.49609375 C-6.288827 0.05208419 -4.22614619 -0.23243804 0 0 Z " fill="#000000" transform="translate(326.84375,260.56640625)"/>
</svg>
