<?xml version="1.0" encoding="UTF-8"?>
<svg version="1.1" xmlns="http://www.w3.org/2000/svg" width="512" height="512">
<path d="M0 0 C4.6548604 3.21608537 5.16020153 7.51155566 6.125 12.75 C6.37310425 14.01710815 6.37310425 14.01710815 6.6262207 15.30981445 C12.91573895 48.35848681 12.03414227 81.97312799 6 115 C6.6703125 115.20753906 7.340625 115.41507812 8.03125 115.62890625 C12.04861984 117.4842968 15.11938536 120.11192377 18.5 122.9375 C19.20125 123.51580566 19.9025 124.09411133 20.625 124.68994141 C22.7565626 126.45224554 24.87966035 128.22421554 27 130 C27.62132812 130.51933105 28.24265625 131.03866211 28.8828125 131.57373047 C35.32547396 136.96804036 41.70797045 142.43031825 48 148 C51.03726958 146.63389732 53.20915026 145.06926193 55.609375 142.76953125 C56.28226563 142.13080078 56.95515625 141.49207031 57.6484375 140.83398438 C58.34195313 140.16689453 59.03546875 139.49980469 59.75 138.8125 C64.45336316 134.31926808 69.19596254 129.91018546 74.11181641 125.6496582 C77.42740858 122.75290926 80.64064527 119.74550838 83.86132812 116.74414062 C88.1803318 112.75088756 90.86834753 110.43683009 96.9921875 110.62890625 C99 111 99 111 102 113 C103.96990503 115.95485754 105.093341 118.08195657 104.875 121.69140625 C102.78728988 127.19960571 97.3169331 131.18891259 93 135 C91.96552734 135.92619141 91.96552734 135.92619141 90.91015625 136.87109375 C89.66873577 137.96553844 88.41852719 139.05008765 87.16015625 140.125 C83.85750613 142.99167641 80.65794573 145.97030898 77.4440918 148.93554688 C73.86979298 152.22524778 70.23574193 155.42975365 66.5234375 158.5625 C64.75657708 160.12194583 64.75657708 160.12194583 63 163 C63.92941406 163.9178125 64.85882813 164.835625 65.81640625 165.78125 C77.97857355 177.84155936 77.97857355 177.84155936 82.66796875 183.64453125 C84.06893079 185.27575278 84.06893079 185.27575278 87 186 C89.78453278 184.89339481 92.40973363 183.71483871 95.09375 182.3984375 C95.90406677 182.01057068 96.71438354 181.62270386 97.54925537 181.2230835 C100.20404763 179.94960445 102.85191527 178.66236069 105.5 177.375 C107.33387184 176.49241603 109.16818449 175.61074744 111.00292969 174.72998047 C115.52916377 172.55455902 120.05017158 170.36854618 124.5690918 168.17797852 C129.05596095 166.00371481 133.5474446 163.83903147 138.03857422 161.67358398 C140.1865902 160.63778762 142.33404811 159.60083317 144.48095703 158.56274414 C152.07591874 154.89858959 159.71615385 151.34084893 167.375 147.8125 C177.72538129 143.04280336 187.98949145 138.11499623 198.22750854 133.10916138 C204.42836888 130.07878205 210.63575669 127.06178297 216.84429932 124.04718018 C218.25052029 123.36407666 219.6564196 122.68031046 221.06195068 121.99578857 C225.3011669 119.93201607 229.55269873 117.89607134 233.8125 115.875 C234.84262207 115.37218506 235.87274414 114.86937012 236.93408203 114.35131836 C242.58423949 111.70140879 246.7419391 110.23544052 253 111 C255.43119623 112.87015094 256.64069173 114.28138345 258 117 C258.39024105 120.51216941 258.37113084 122.39994002 256.49243164 125.4375 C253.28027305 128.73996024 249.96648059 130.30206101 245.80859375 132.1875 C244.99969193 132.56687714 244.1907901 132.94625427 243.3573761 133.33712769 C240.72271191 134.56982401 238.08027162 135.78479645 235.4375 137 C233.60711085 137.85296478 231.77736168 138.7073042 229.94824219 139.56298828 C226.30668513 141.26575619 222.66275664 142.96327745 219.01708984 144.65722656 C212.56212181 147.66313391 206.15428328 150.76263803 199.75 153.875 C189.89974068 158.64175937 179.98666282 163.25996782 170.04882812 167.84082031 C160.38867704 172.31311248 150.81509676 176.95341577 141.25 181.625 C130.85522023 186.69901454 120.44631546 191.72805723 109.9375 196.5625 C108.44814941 197.25110107 108.44814941 197.25110107 106.92871094 197.95361328 C105.58534668 198.5663208 105.58534668 198.5663208 104.21484375 199.19140625 C103.44261475 199.54404541 102.67038574 199.89668457 101.87475586 200.26000977 C100 201 100 201 98 201 C102.46554897 207.87459512 107.19340768 214.55820128 111.94824219 221.23413086 C112.45645508 221.94964111 112.96466797 222.66515137 113.48828125 223.40234375 C113.94759033 224.04679443 114.40689941 224.69124512 114.88012695 225.35522461 C116 227 116 227 117 229 C117.8029248 229.01458252 118.60584961 229.02916504 119.43310547 229.04418945 C199.76446155 230.66041111 199.76446155 230.66041111 230 249 C232.4596 252.6894 232.7996897 255.71832808 232 260 C229.9375 263 229.9375 263 227 265 C220.34767274 265.79652866 214.78493463 263.47558955 208.5625 261.3125 C182.96997927 252.80544172 156.01176421 248.0791444 129 249 C129.27150879 249.53141602 129.54301758 250.06283203 129.82275391 250.61035156 C139.76754768 270.26426055 151.09868849 294.02770762 144.078125 316.4296875 C141.0099567 323.74437859 136.49421461 327.0643261 129.3125 330.1875 C127.58848293 330.85806363 125.86378688 331.52712344 124.1315918 332.17626953 C121.55698899 333.17119679 119.01959426 334.24334858 116.4765625 335.31640625 C109.39601977 338.27913975 102.23564935 341.0220302 95.0625 343.75 C93.57874841 344.31576414 92.09502539 344.88160318 90.61132812 345.44750977 C76.86495617 350.68629952 63.10171708 355.88061136 49.33813477 361.07397461 C33.7184058 366.96836504 18.10829195 372.8878994 2.5 378.8125 C-17.24569629 386.30705453 -36.9994269 393.77988706 -56.76205444 401.22967529 C-72.9058112 407.31569486 -89.03960061 413.42753256 -105.16827393 419.55340576 C-134.74709848 430.78758273 -164.36480335 441.9155246 -194 453 C-194.94267755 449.98494341 -195.00773784 448.02252477 -194.25672913 444.96444702 C-194.06566306 444.16683803 -193.874597 443.36922903 -193.67774105 442.54745007 C-193.45932332 441.6776265 -193.24090559 440.80780294 -193.01586914 439.91162109 C-192.79070146 438.98369153 -192.56553377 438.05576197 -192.33354282 437.09971333 C-191.57625395 433.98872174 -190.80568339 430.88117449 -190.03515625 427.7734375 C-189.49344326 425.55967154 -188.95255801 423.3457029 -188.41244507 421.13154602 C-186.94603753 415.13006853 -185.46820916 409.13145499 -183.98841476 403.13326645 C-182.43674004 396.83505492 -180.89575349 390.53422991 -179.35375977 384.23364258 C-176.81595414 373.86971849 -174.2722266 363.5072712 -171.72363281 353.14599609 C-168.30369649 339.2415667 -164.89537803 325.33431762 -161.4921875 311.42578125 C-160.47074262 307.2517807 -159.4492424 303.07779369 -158.42773438 298.90380859 C-158.17963139 297.88997604 -157.9315284 296.87614349 -157.67590714 295.83158875 C-155.93451255 288.71630012 -154.19135511 281.60144491 -152.44726562 274.48681641 C-147.02401253 252.3630541 -141.61129837 230.23680301 -136.22944736 208.10292912 C-135.13301037 203.59389866 -134.03502732 199.08524901 -132.9355669 194.57695484 C-129.41830864 180.15272093 -125.92545294 165.72343369 -122.5030365 151.27636719 C-121.15143233 145.57157781 -119.79040736 139.86904708 -118.42735004 134.16698456 C-117.32854551 129.56622579 -116.24262192 124.96269069 -115.16697407 120.35646629 C-114.50265942 117.52564332 -113.82594761 114.69788709 -113.14595985 111.87079239 C-112.6912588 109.9640946 -112.25144362 108.05386545 -111.81230164 106.14352417 C-109.56292178 96.87077989 -106.75644379 86.65946532 -99.125 80.375 C-88.10207734 74.11323889 -73.75079539 75.47432135 -62.01123047 78.51513672 C-44.52329977 83.35257372 -26.76648768 91.42156261 -12 102 C-4.84845478 77.07520526 -7.36795793 48.36709085 -11.62744141 23.15625 C-14.40129586 6.55888809 -14.40129586 6.55888809 -11.5625 1.375 C-7.83843719 -0.6232776 -4.12403445 -0.98744487 0 0 Z " fill="#D1E1EC" transform="translate(199,51)"/>
<path d="M0 0 C0.66 0 1.32 0 2 0 C2.18997559 0.71728271 2.37995117 1.43456543 2.57568359 2.17358398 C12.60906622 39.64246244 27.43201182 75.26864209 53 105 C53.90978456 106.09167322 54.81855729 107.18419011 55.7265625 108.27734375 C65.53270602 119.99966724 75.9136573 130.59101169 88 140 C89.2787425 141.01941 90.5573814 142.03894997 91.8359375 143.05859375 C112.56533732 159.42288376 135.48639566 171.3445459 160 181 C160 181.66 160 182.32 160 183 C159.24348145 183.27859863 158.48696289 183.55719727 157.70751953 183.84423828 C135.5817595 192.00370126 113.52225791 200.33390029 91.47689629 208.70789719 C88.31014221 209.91079635 85.14336306 211.11362948 81.9765625 212.31640625 C81.34742573 212.55537125 80.71828896 212.79433624 80.07008743 213.0405426 C65.81435822 218.45480421 51.54676335 223.83747271 37.27694702 229.21447754 C25.0028427 233.83976812 12.73334152 238.47676062 0.47430038 243.141819 C-1.49936694 243.89280403 -3.47315839 244.64346188 -5.44699097 245.39401245 C-6.75372464 245.89092625 -8.06045682 246.38784396 -9.3671875 246.88476562 C-10.01061663 247.12944139 -10.65404575 247.37411716 -11.31697273 247.62620735 C-15.65117818 249.27472295 -19.98390709 250.92708217 -24.31640625 252.58007812 C-37.47723647 257.59133808 -50.67565837 262.44024916 -64 267 C-63.41215149 261.73303559 -62.56181848 256.70732027 -61.3112793 251.54736328 C-61.14092195 250.83925916 -60.97056459 250.13115503 -60.7950449 249.40159321 C-60.22570637 247.04011123 -59.65001013 244.68022871 -59.07421875 242.3203125 C-58.65898122 240.60474251 -58.24409487 238.88908748 -57.82952881 237.1733551 C-56.69348741 232.47730229 -55.55158976 227.7826908 -54.40851974 223.08834457 C-53.43843136 219.10134396 -52.47172634 215.11352586 -51.5048914 211.12573528 C-42.36635656 173.43978723 -33.11450331 135.78134025 -23.8364954 98.1295166 C-15.78285272 65.44530156 -7.84500729 32.73491036 0 0 Z " fill="#FEFDFD" transform="translate(68,237)"/>
<path d="M0 0 C0.78672309 2.76181821 1.10355018 5.1449218 1.02734375 8.01171875 C1.00897461 9.14963867 1.00897461 9.14963867 0.99023438 10.31054688 C0.95550917 11.87575328 0.91655536 13.44087249 0.87304688 15.00585938 C0.79274723 20.61266408 1.53534855 25.59331267 3 31 C3.18151611 31.67297119 3.36303223 32.34594238 3.55004883 33.03930664 C16.36017802 77.98703229 50.09953183 118.72422426 83 151 C85.74043856 153.7265512 88.46214828 156.46974788 91.1640625 159.234375 C97.27025453 165.45499761 103.39678097 171.39973047 110.25 176.80859375 C112.71501406 178.77290183 115.10080137 180.80644441 117.47729492 182.8762207 C146.21866817 207.78423045 188.39209469 238.55690206 228.23828125 237.20703125 C231.54008326 236.95951285 234.74479366 236.60561978 238 236 C226.0048249 243.9967834 210.41002827 248.08740376 196.98544312 253.10290527 C193.97163132 254.22890367 190.95829861 255.35616909 187.9453125 256.484375 C186.94472305 256.85882751 185.94413361 257.23328003 184.91322327 257.61907959 C178.30015076 260.10489549 171.73262251 262.68842436 165.1796875 265.328125 C162.68259169 266.32086962 160.18446232 267.31095571 157.68582153 268.29980469 C156.11890134 268.92714498 154.55613973 269.56498639 152.99801636 270.21386719 C139.57484473 275.79854267 139.57484473 275.79854267 133.703125 274.17578125 C132.11390959 273.49894561 130.54577667 272.77089984 129 272 C128.09660889 271.62375488 127.19321777 271.24750977 126.26245117 270.85986328 C123.28719876 269.61730663 120.36289628 268.29306161 117.4375 266.9375 C116.38900879 266.45289307 115.34051758 265.96828613 114.26025391 265.46899414 C99.86556745 258.70738672 86.68456499 250.56451232 74 241 C73.43216797 240.57638184 72.86433594 240.15276367 72.27929688 239.71630859 C62.57602697 232.44432588 53.72821207 224.40574118 45 216 C44.2059375 215.2471875 43.411875 214.494375 42.59375 213.71875 C37.24363918 208.53848397 32.6163907 202.83406971 28 197 C26.82630859 195.55173828 26.82630859 195.55173828 25.62890625 194.07421875 C4.84373882 167.90153592 -9.18944356 137.98429312 -18.625 106.0625 C-18.98037842 104.88357178 -19.33575684 103.70464355 -19.7019043 102.48999023 C-20.0194165 101.37052002 -20.33692871 100.2510498 -20.6640625 99.09765625 C-20.94717285 98.11289307 -21.2302832 97.12812988 -21.52197266 96.11352539 C-22.52776668 89.56250845 -20.64136236 82.96290948 -19.06640625 76.61206055 C-18.8727951 75.81591843 -18.67918396 75.01977631 -18.47970581 74.19950867 C-17.84495654 71.59416872 -17.20383599 68.99044439 -16.5625 66.38671875 C-16.11756344 64.5669664 -15.67298899 62.74712547 -15.22875977 60.92720032 C-14.30008422 57.12649427 -13.36850826 53.32651591 -12.43457031 49.52709961 C-11.23685338 44.65447192 -10.04416557 39.78063176 -8.85334778 34.9063139 C-7.71643679 30.25353113 -6.57707525 25.60134956 -5.4375 20.94921875 C-5.11158371 19.61742867 -5.11158371 19.61742867 -4.77908325 18.25873375 C-4.16527233 15.75247712 -3.54972404 13.24665411 -2.93359375 10.7409668 C-2.7517453 9.99756042 -2.56989685 9.25415405 -2.38253784 8.48822021 C-1.67511415 5.6178453 -0.93536228 2.80608685 0 0 Z " fill="#DC1C4B" transform="translate(91,144)"/>
<path d="M0 0 C0.33 0 0.66 0 1 0 C1.06731323 1.10734497 1.06731323 1.10734497 1.13598633 2.23706055 C3.34127155 37.66717838 8.58177111 70.54765526 26 102 C26.33580078 102.61359375 26.67160156 103.2271875 27.01757812 103.859375 C34.88971301 118.08000577 44.8538667 131.18038432 56 143 C53.76554069 145.23445931 52.21051714 145.82235667 49.26708984 146.91674805 C47.77724075 147.47529984 47.77724075 147.47529984 46.2572937 148.0451355 C44.62559738 148.64734421 44.62559738 148.64734421 42.9609375 149.26171875 C41.82761993 149.68494415 40.69430237 150.10816956 39.52664185 150.54421997 C36.44856101 151.6926311 33.36874956 152.83624449 30.28811646 153.97778702 C27.10530141 155.15852285 23.92479399 156.34543852 20.74414062 157.53198242 C16.25173766 159.20731688 11.758679 160.88086823 7.26467514 162.55190372 C-2.79818034 166.29372095 -12.85095001 170.06222994 -22.90155029 173.83682251 C-27.00676768 175.37826785 -31.11277465 176.91760633 -35.21875 178.45703125 C-36.55143625 178.95677656 -37.88411902 179.45653115 -39.21679688 179.95629883 C-40.13525391 180.30072021 -41.05371094 180.6451416 -42 181 C-42.98257508 177.90061761 -42.9759707 175.89381929 -42.20289612 172.74911499 C-41.89891639 171.48317804 -41.89891639 171.48317804 -41.58879566 170.1916666 C-41.35783538 169.27167346 -41.1268751 168.35168032 -40.88891602 167.40380859 C-40.53223736 165.93621424 -40.53223736 165.93621424 -40.16835308 164.43897152 C-39.37232953 161.17324036 -38.56309802 157.91092856 -37.75390625 154.6484375 C-37.18925442 152.34291029 -36.62544823 150.03717582 -36.06243896 147.73124695 C-34.55156108 141.55259462 -33.02955048 135.37673409 -31.5055275 129.20131302 C-29.94050843 122.8512831 -28.3859297 116.49870052 -26.83081055 110.14624023 C-24.6670688 101.31092733 -22.50052902 92.47631151 -20.32982349 83.64270687 C-15.95959397 65.85713016 -11.63203007 48.06142969 -7.3276062 30.25982666 C-6.3264403 26.11938254 -5.32372048 21.97931592 -4.32055664 17.83935547 C-2.87974846 11.89305428 -1.43953391 5.9466098 0 0 Z " fill="#DD1D4B" transform="translate(47,323)"/>
<path d="M0 0 C19.16711719 10.5744474 34.1354232 25.06960769 46.68310547 42.82739258 C49.85994041 47.21849711 53.16522674 50.40443772 57.6171875 53.5390625 C68.94834956 61.90305119 74.66113871 76.32115482 77.42578125 89.68359375 C78.48864627 104.03227158 76.92311485 118.27855734 68.36328125 130.30859375 C64.45635737 132.85263721 62.29783297 132.64552095 57.67578125 132.05859375 C55.23828125 131.12109375 55.23828125 131.12109375 53.67578125 129.05859375 C51.68345029 123.45055104 52.75345361 119.224866 55.05078125 113.87109375 C55.51226562 112.90816406 55.97375 111.94523437 56.44921875 110.953125 C60.41583677 101.59241177 58.8258539 92.36431296 55.67578125 83.05859375 C55.03821099 81.71110483 54.38142955 80.3717132 53.67578125 79.05859375 C53.45664062 80.03699219 53.2375 81.01539063 53.01171875 82.0234375 C49.98985403 94.80272718 45.10551794 104.1605265 33.62109375 111.34375 C25.61427244 115.4351477 15.52841482 116.30813076 6.859375 113.90625 C-3.58864299 109.85040044 -10.81333703 102.9858405 -15.59765625 92.91796875 C-19.04749957 84.08933747 -18.16352042 74.17072145 -14.578125 65.55078125 C-8.0598055 52.59536742 3.56675632 44.55742003 17.0390625 39.89453125 C17.90917969 39.61867188 18.77929688 39.3428125 19.67578125 39.05859375 C2.45307144 20.63429953 -19.79090665 9.30745991 -44.46508789 4.55932617 C-47.3677024 3.77754517 -48.67625181 2.53054416 -50.32421875 0.05859375 C-51.54283769 -3.67850433 -51.49080713 -5.46015093 -50.19921875 -9.19140625 C-41.39998933 -22.09694274 -10.64763002 -5.67064335 0 0 Z M7.40234375 66.140625 C3.59288455 70.37239982 0.44395551 74.31728186 0.17578125 80.18359375 C0.91183943 85.88804464 2.39241202 88.83102318 6.55078125 92.80859375 C11.48982667 96.36470645 14.49790511 97.60011418 20.6875 96.59765625 C26.04501767 95.1451269 29.67262147 91.56333342 32.67578125 87.05859375 C34.53433723 82.46216498 34.97320831 78.50251656 34.98828125 73.55859375 C35.00503906 72.29015625 35.02179688 71.02171875 35.0390625 69.71484375 C34.56230401 64.9165002 33.2147574 61.50138389 29.67578125 58.18359375 C22.67714997 54.24686366 12.38676983 61.33055127 7.40234375 66.140625 Z " fill="#2AB3CE" transform="translate(430.32421875,379.94140625)"/>
<path d="M0 0 C2.43119623 1.87015094 3.64069173 3.28138345 5 6 C5.39024105 9.51216941 5.37113084 11.39994002 3.49243164 14.4375 C0.28027305 17.73996024 -3.03351941 19.30206101 -7.19140625 21.1875 C-8.00030807 21.56687714 -8.8092099 21.94625427 -9.6426239 22.33712769 C-12.27728809 23.56982401 -14.91972838 24.78479645 -17.5625 26 C-19.39288915 26.85296478 -21.22263832 27.7073042 -23.05175781 28.56298828 C-26.69331487 30.26575619 -30.33724336 31.96327745 -33.98291016 33.65722656 C-40.43787819 36.66313391 -46.84571672 39.76263803 -53.25 42.875 C-61.95977077 47.08985162 -70.7127101 51.19944347 -79.5 55.25 C-90.27676851 60.21809485 -100.96210888 65.35513209 -111.625 70.5625 C-129.60380982 79.33892633 -147.6603219 87.95440749 -166.05737305 95.8269043 C-169.30130962 97.22044189 -172.41228586 98.72801842 -175.5 100.4375 C-179.89730174 102.40058113 -182.23810213 102.63491972 -187 102 C-190.32199976 99.87051297 -190.89590149 98.3367893 -192.0625 94.5625 C-192 91 -192 91 -190.00390625 88.546875 C-186.50369829 85.57920844 -182.99002291 83.66256109 -178.875 81.6875 C-178.15957031 81.32849609 -177.44414062 80.96949219 -176.70703125 80.59960938 C-171.40877976 78 -171.40877976 78 -168 78 C-168 77.34 -168 76.68 -168 76 C-154.54919708 69.47316416 -141.07982463 63.00480021 -127.5 56.75 C-116.00441929 51.4504169 -104.61465797 45.95193159 -93.24090576 40.39657593 C-82.49332491 35.14961434 -71.69606935 30.04109943 -60.82788086 25.04760742 C-48.85318854 19.51996306 -37.01183624 13.72073695 -25.17041016 7.91430664 C-24.3991127 7.5367926 -23.62781525 7.15927856 -22.83314514 6.77032471 C-21.38558768 6.06156943 -19.93878943 5.35126055 -18.49290466 4.63909912 C-11.90083547 1.41175793 -7.34294741 -0.69932832 0 0 Z " fill="#FEBF41" transform="translate(452,162)"/>
<path d="M0 0 C4.6548604 3.21608537 5.16020153 7.51155566 6.125 12.75 C6.29040283 13.59473877 6.45580566 14.43947754 6.6262207 15.30981445 C13.09979077 49.32559875 13.94944164 87.57909564 4 121 C3.72800781 121.99257812 3.45601562 122.98515625 3.17578125 124.0078125 C2.15763598 127.68419224 1.09081183 131.34467424 0 135 C-0.3098584 136.04607422 -0.3098584 136.04607422 -0.62597656 137.11328125 C-4.5323416 150.06929606 -9.53510427 162.56331582 -14.6875 175.0625 C-15.01714752 175.87052063 -15.34679504 176.67854126 -15.68643188 177.51104736 C-16.63798622 179.83634678 -17.60369466 182.15522004 -18.57421875 184.47265625 C-19.00213211 185.52295265 -19.00213211 185.52295265 -19.43869019 186.59446716 C-21.08522473 190.4693986 -22.72244126 193.31957921 -26 196 C-28.74791413 196.72991469 -31.22011721 196.54686219 -34 196 C-36.5 194.5 -36.5 194.5 -38 192 C-38.48942335 185.76131641 -37.3994862 181.44009464 -34.9296875 175.7578125 C-34.45162155 174.60694656 -34.45162155 174.60694656 -33.96389771 173.43283081 C-32.94747512 170.99109706 -31.9126391 168.5577841 -30.875 166.125 C-11.39842756 120.04170336 -3.19608454 73.05938897 -11.62744141 23.15625 C-14.40129586 6.55888809 -14.40129586 6.55888809 -11.5625 1.375 C-7.83843719 -0.6232776 -4.12403445 -0.98744487 0 0 Z " fill="#FEBF42" transform="translate(199,51)"/>
<path d="M0 0 C2.4596 3.6894 2.7996897 6.71832808 2 11 C-0.0625 14 -0.0625 14 -3 16 C-9.65232726 16.79652866 -15.21506537 14.47558955 -21.4375 12.3125 C-47.85141357 3.53240739 -75.23115517 -0.22989106 -103 -1 C-104.73056641 -1.061875 -104.73056641 -1.061875 -106.49609375 -1.125 C-128.32510274 -1.56103514 -151.07729608 2.78351959 -172.47485352 6.65112305 C-176.00715633 7.1391498 -178.56139157 6.95110446 -182 6 C-184.09224429 4.3875375 -184.89400954 3.47960683 -185.46875 0.87890625 C-185.4790625 0.11449219 -185.489375 -0.64992188 -185.5 -1.4375 C-185.54640625 -2.58025391 -185.54640625 -2.58025391 -185.59375 -3.74609375 C-184.69362055 -7.16303252 -182.92130404 -8.07427906 -180 -10 C-177.20681612 -10.7172807 -174.63986617 -11.23792691 -171.8046875 -11.6328125 C-171.01659698 -11.75558563 -170.22850647 -11.87835876 -169.41653442 -12.00485229 C-166.90468004 -12.3929975 -164.39024505 -12.75954117 -161.875 -13.125 C-160.20810934 -13.37743154 -158.5414393 -13.6313245 -156.875 -13.88671875 C-154.44692268 -14.25857423 -152.01871576 -14.62885348 -149.5892334 -14.99142456 C-145.32060774 -15.63006034 -141.07637813 -16.33141981 -136.8359375 -17.140625 C-132.46706225 -17.95638313 -128.18806379 -18.42942256 -123.75 -18.625 C-122.96826416 -18.66077148 -122.18652832 -18.69654297 -121.38110352 -18.73339844 C-83.3594853 -20.24433416 -33.690741 -20.43536749 0 0 Z " fill="#FEBF41" transform="translate(429,300)"/>
<path d="M0 0 C0.66 0 1.32 0 2 0 C2.38647705 1.15000488 2.38647705 1.15000488 2.78076172 2.32324219 C7.65362704 17.11459738 7.65362704 17.11459738 18.11914062 27.60791016 C24.79991706 29.50650688 31.55417317 29.95384512 38.47900391 29.93188477 C41 30 41 30 44 31 C42.42347865 35.09511034 39.46072904 37.54790318 36.25 40.375 C35.16789755 41.36059892 34.08586555 42.34627519 33.00390625 43.33203125 C31.31482598 44.8519408 29.62745491 46.29305084 27.83984375 47.69921875 C25.635674 49.51778906 24.1092848 51.07472204 23.765625 53.984375 C23.96781864 56.72317978 24.45590491 59.30639343 25 62 C25.25633934 63.439444 25.50864038 64.87961054 25.7578125 66.3203125 C26.15503095 68.61532541 26.5571088 70.90845527 26.98217773 73.19848633 C27.53438625 76.17905302 28 78.96119109 28 82 C21.468877 80.16577227 15.83257016 76.7275617 9.98828125 73.36914062 C5.28629356 70.77742228 5.28629356 70.77742228 0.078125 69.8515625 C-4.76318826 71.65783928 -9.22401433 74.0828047 -13.75 76.5625 C-15.63869762 77.58819245 -17.52923319 78.61051013 -19.421875 79.62890625 C-20.25299805 80.08338135 -21.08412109 80.53785645 -21.94042969 81.00610352 C-24 82 -24 82 -26 82 C-25.87882812 81.175 -25.75765625 80.35 -25.6328125 79.5 C-25.27627998 77.04266817 -24.94800071 74.58115084 -24.640625 72.1171875 C-24.26258277 69.33474382 -23.67281582 66.75627799 -22.859375 64.0703125 C-21.74915853 59.9423351 -20.83980801 56.20717079 -22 52 C-26.49693562 44.97469789 -33.46075962 39.18476576 -40.24755859 34.4230957 C-41.11501709 33.71866333 -41.11501709 33.71866333 -42 33 C-42 32.34 -42 31.68 -42 31 C-38.1263657 30.32523211 -34.25089817 29.66162968 -30.375 29 C-29.28058594 28.80921875 -28.18617187 28.6184375 -27.05859375 28.421875 C-25.46337891 28.15117188 -25.46337891 28.15117188 -23.8359375 27.875 C-22.86188965 27.70742188 -21.8878418 27.53984375 -20.88427734 27.3671875 C-17.89195244 26.98624483 -15.01314583 26.93747038 -12 27 C-11.88664307 26.28432861 -11.77328613 25.56865723 -11.65649414 24.83129883 C-10.95770881 21.81760845 -9.89735488 19.45342166 -8.49609375 16.69921875 C-7.75649414 15.23452148 -7.75649414 15.23452148 -7.00195312 13.74023438 C-6.48568359 12.73283203 -5.96941406 11.72542969 -5.4375 10.6875 C-4.91736328 9.66076172 -4.39722656 8.63402344 -3.86132812 7.57617188 C-2.57959638 5.0479854 -1.29233939 2.522776 0 0 Z " fill="#FFDB42" transform="translate(46,8)"/>
<path d="M0 0 C3.87559382 1.46958933 7.65734707 3.09237952 11.44140625 4.78125 C15.72901925 6.68420173 20.00712253 8.57685089 24.37890625 10.28125 C24.37890625 10.94125 24.37890625 11.60125 24.37890625 12.28125 C23.6223877 12.55984863 22.86586914 12.83844727 22.08642578 13.12548828 C-2.26055945 22.10408718 -26.52980453 31.28571602 -50.78640747 40.50509644 C-53.13858384 41.39834565 -55.49134193 42.29006462 -57.84469604 43.1802063 C-63.4581163 45.30575245 -69.06381686 47.4475319 -74.64990044 49.64383888 C-77.31907406 50.69195556 -79.99186046 51.73066877 -82.66502762 52.76855087 C-83.94156311 53.26716688 -85.21633124 53.7703343 -86.4891777 54.27829361 C-88.2533878 54.98199776 -90.02428501 55.6688664 -91.79541016 56.35498047 C-93.30525986 56.95027054 -93.30525986 56.95027054 -94.84561157 57.55758667 C-97.92475356 58.36042452 -99.61726281 58.27104251 -102.62109375 57.28125 C-104.97265625 55.171875 -104.97265625 55.171875 -107.24609375 52.53125 C-108.00148438 51.67015625 -108.756875 50.8090625 -109.53515625 49.921875 C-111.47510845 47.46605536 -113.0840372 45.00291702 -114.62109375 42.28125 C-107.49676401 39.41222893 -100.3507877 36.60388936 -93.18359375 33.84375 C-92.08466797 33.42053467 -90.98574219 32.99731934 -89.85351562 32.5612793 C-79.37306725 28.54150997 -68.85019389 24.6391848 -58.32321167 20.74334717 C-48.77883912 17.21030713 -39.25555176 13.63789013 -29.78515625 9.91015625 C-23.66025352 7.50167374 -17.50014589 5.18401536 -11.34423828 2.85620117 C-10.49716309 2.53498291 -9.65008789 2.21376465 -8.77734375 1.8828125 C-8.02259766 1.59744629 -7.26785156 1.31208008 -6.49023438 1.01806641 C-2.30452735 -0.63194193 -2.30452735 -0.63194193 0 0 Z " fill="#F5F3E5" transform="translate(203.62109375,407.71875)"/>
<path d="M0 0 C3.80501298 2.53667532 4.78692901 4.22761767 6 8.625 C5.65789521 14.28041984 0.85750297 17.82510467 -3.06640625 21.41015625 C-4.03449219 22.26480469 -5.00257813 23.11945313 -6 24 C-7.03447266 24.92619141 -7.03447266 24.92619141 -8.08984375 25.87109375 C-9.33126423 26.96553844 -10.58147281 28.05008765 -11.83984375 29.125 C-14.6098601 31.52935416 -17.30344727 34.01412198 -20 36.5 C-32.30914406 47.81322762 -32.30914406 47.81322762 -37.765625 51.765625 C-41.95422684 54.88774735 -45.7277786 58.33072259 -49.5 61.9375 C-50.81815972 63.18319247 -52.13716014 64.42799597 -53.45703125 65.671875 C-54.38443115 66.54682617 -54.38443115 66.54682617 -55.33056641 67.43945312 C-57.82479242 69.77099636 -60.39451755 72.00656942 -62.984375 74.23046875 C-65.14785572 76.12980357 -67.25758165 78.08286343 -69.3659668 80.04296875 C-83.89616975 93.51450071 -83.89616975 93.51450071 -89.25 94.75 C-93.15702722 93.68444712 -94.66134211 92.30163466 -97 89 C-97.93905192 84.14823175 -97.93905192 84.14823175 -97 81 C-95.02841793 78.22672041 -92.60615707 76.16764498 -90 74 C-88.77005865 72.91754627 -87.54090856 71.83419288 -86.3125 70.75 C-85.64863281 70.17765625 -84.98476562 69.6053125 -84.30078125 69.015625 C-81.4922698 66.55519731 -78.74538121 64.03025008 -76 61.5 C-72.69986653 58.46095466 -69.3905024 55.43843541 -66 52.5 C-58.08146986 45.61861622 -50.43749647 38.50245617 -43.06640625 31.0390625 C-40.54908127 28.55504806 -37.91313943 26.2478043 -35.23046875 23.9453125 C-32.44133825 21.51276086 -29.72094155 19.00809029 -27 16.5 C-22.93355791 12.75833939 -18.86234688 9.02705093 -14.66015625 5.4375 C-13.22749635 4.19698507 -11.85688953 2.8854673 -10.5 1.5625 C-6.97576743 -0.64014536 -4.0425759 -0.92099007 0 0 Z " fill="#FEBF42" transform="translate(298,162)"/>
<path d="M0 0 C3.54140275 3.52064727 6.96421644 7.10706619 10.3125 10.8125 C11.63701172 12.27623047 11.63701172 12.27623047 12.98828125 13.76953125 C13.65214844 14.50558594 14.31601563 15.24164063 15 16 C12.76554069 18.23445931 11.21051714 18.82235667 8.26708984 19.91674805 C6.77724075 20.47529984 6.77724075 20.47529984 5.2572937 21.0451355 C4.16949615 21.44660797 3.08169861 21.84808044 1.9609375 22.26171875 C0.82761993 22.68494415 -0.30569763 23.10816956 -1.47335815 23.54421997 C-4.55143899 24.6926311 -7.63125044 25.83624449 -10.71188354 26.97778702 C-13.89469859 28.15852285 -17.07520601 29.34543852 -20.25585938 30.53198242 C-24.74826234 32.20731688 -29.241321 33.88086823 -33.73532486 35.55190372 C-43.79818034 39.29372095 -53.85095001 43.06222994 -63.90155029 46.83682251 C-68.00676768 48.37826785 -72.11277465 49.91760633 -76.21875 51.45703125 C-77.55143625 51.95677656 -78.88411902 52.45653115 -80.21679688 52.95629883 C-81.13525391 53.30072021 -82.05371094 53.6451416 -83 54 C-85.08847789 46.69445481 -83.99499078 39.2112699 -80.76416016 32.38769531 C-75.38726519 25.11035891 -63.9655219 23.0410589 -55.63301086 20.45654297 C-45.37997215 17.25560448 -35.39272562 13.32743821 -25.36001587 9.50299072 C-20.05138705 7.48581691 -14.73079205 5.50086361 -9.41015625 3.515625 C-7.57818722 2.83110597 -5.74623535 2.14654099 -3.91430664 1.46191406 C-2.6095508 0.97457445 -1.30478748 0.4872549 0 0 Z " fill="#B21D47" transform="translate(88,450)"/>
<path d="M0 0 C0.72414597 0.16647034 1.44829193 0.33294067 2.19438171 0.50445557 C4.22214221 0.99226655 6.23449787 1.5264723 8.25 2.0625 C17.901418 4.47908544 27.1895353 4.82520274 37 3 C25.0048249 10.9967834 9.41002827 15.08740376 -4.01455688 20.10290527 C-7.02836868 21.22890367 -10.04170139 22.35616909 -13.0546875 23.484375 C-14.05527695 23.85882751 -15.05586639 24.23328003 -16.08677673 24.61907959 C-22.69984924 27.10489549 -29.26737749 29.68842436 -35.8203125 32.328125 C-38.31740831 33.32086962 -40.81553768 34.31095571 -43.31417847 35.29980469 C-44.88109866 35.92714498 -46.44386027 36.56498639 -48.00198364 37.21386719 C-61.42582916 42.79882304 -61.42582916 42.79882304 -67.44921875 41.12109375 C-68.98931774 40.46607004 -70.50824757 39.75870656 -72 39 C-72.77722412 38.66339355 -73.55444824 38.32678711 -74.35522461 37.97998047 C-76.64319383 36.97981447 -78.88310742 35.91158386 -81.125 34.8125 C-82.27355469 34.26045898 -82.27355469 34.26045898 -83.4453125 33.69726562 C-85.30002187 32.80468674 -87.15048833 31.90329978 -89 31 C-87.62889539 28.25779078 -86.28424185 28.15751274 -83.43383789 27.09570312 C-82.45673355 26.72771606 -81.47962921 26.359729 -80.47291565 25.98059082 C-79.40033005 25.58480835 -78.32774445 25.18902588 -77.22265625 24.78125 C-76.10934433 24.36387573 -74.99603241 23.94650146 -73.84898376 23.51647949 C-70.25594427 22.17097533 -66.65938221 20.8351935 -63.0625 19.5 C-59.57098044 18.19708189 -56.08022651 16.89214241 -52.5899353 15.5859375 C-50.25638934 14.71414341 -47.92160122 13.84566725 -45.58560181 12.98046875 C-39.60891114 10.76022517 -33.66768308 8.47954551 -27.76123047 6.078125 C-26.59321396 5.60918823 -25.42519745 5.14025146 -24.2217865 4.65710449 C-22.010616 3.76578394 -19.80562278 2.85891824 -17.6084137 1.93371582 C-11.29137495 -0.59639695 -6.6650492 -1.58033715 0 0 Z " fill="#B31D48" transform="translate(292,377)"/>
<path d="M0 0 C14.52 0 29.04 0 44 0 C44 14.52 44 29.04 44 44 C33.3884375 44.0309375 33.3884375 44.0309375 22.5625 44.0625 C19.20880249 44.07615601 19.20880249 44.07615601 15.78735352 44.09008789 C14.02620504 44.09300696 12.26505589 44.09555554 10.50390625 44.09765625 C9.58057495 44.10277222 8.65724365 44.10788818 7.70593262 44.11315918 C6.83303589 44.11328003 5.96013916 44.11340088 5.06079102 44.11352539 C4.29912125 44.115746 3.53745148 44.11796661 2.75270081 44.12025452 C1 44 1 44 0 43 C-0.09268999 41.64905018 -0.11747326 40.29332909 -0.11352539 38.93920898 C-0.11340454 38.06631226 -0.11328369 37.19341553 -0.11315918 36.29406738 C-0.10804321 35.37073608 -0.10292725 34.44740479 -0.09765625 33.49609375 C-0.09664917 32.6517981 -0.09564209 31.80750244 -0.09460449 30.93762207 C-0.0893557 27.77090098 -0.07539456 24.60419919 -0.0625 21.4375 C-0.041875 14.363125 -0.02125 7.28875 0 0 Z " fill="#C8DA53" transform="translate(319,102)"/>
<path d="M0 0 C5.45772292 2.33902411 8.80064814 6.54373559 11 12 C11.89294145 16.9616486 11.66761226 21.36746957 9.3125 25.875 C5.63908728 30.83907124 2.10497524 33.70856293 -4 35 C-10.05886263 35.09807511 -14.26226159 33.96647867 -19 30 C-23.46861216 25.04829464 -24.41995798 21.16202708 -24.34375 14.63671875 C-23.60860773 8.99784341 -20.4067581 5.4067581 -16.5 1.5 C-11.04802429 -0.83656102 -5.83744172 -0.71478878 0 0 Z " fill="#7ECCCB" transform="translate(190,0)"/>
<path d="M0 0 C4.28191908 3.10164651 6.84339292 6.99568711 7.828125 12.19921875 C8.12271269 16.94944529 7.10645842 21.15240552 4.828125 25.32421875 C1.36045357 29.23352758 -2.08346524 32.04780342 -7.44140625 32.52734375 C-14.51996821 32.65782415 -18.60046269 31.72030749 -23.921875 26.76171875 C-26.98970516 22.73768179 -27.99108137 18.32617573 -28.171875 13.32421875 C-27.49559736 8.46731567 -26.00551387 4.67261122 -22.296875 1.38671875 C-14.87235986 -3.51346124 -7.866818 -4.41347073 0 0 Z " fill="#D5547D" transform="translate(475.171875,317.67578125)"/>
<path d="M0 0 C4.64899836 4.09554618 7.39614461 8.33737995 7.875 14.5625 C7.50095275 20.17320882 5.86380118 23.88311402 2.1875 28.125 C-2.90984741 32.47639413 -6.86217645 32.7493216 -13.4609375 32.62890625 C-18.7111502 32.05884294 -21.27300985 29.53362422 -24.6875 25.75 C-28.17505836 20.7124157 -27.99437977 15.23478873 -27.375 9.3125 C-25.625 5.875 -25.625 5.875 -23.375 3.3125 C-22.75625 2.57 -22.1375 1.8275 -21.5 1.0625 C-15.17025965 -4.15022734 -7.019575 -3.5097875 0 0 Z " fill="#DD94C1" transform="translate(270.375,78.6875)"/>
<path d="M0 0 C2.1796875 1.52734375 2.1796875 1.52734375 4 4 C4.45528489 6.97709014 4.65035896 9.46796625 4.625 12.4375 C4.65722656 13.18837891 4.68945312 13.93925781 4.72265625 14.71289062 C4.72817693 17.85139517 4.68797773 20.09543669 2.74755859 22.64672852 C-0.15526665 25.22292914 -1.70809436 25.99496714 -5.625 26.0625 C-9.22152729 24.93025993 -10.6929775 23.92814395 -13 21 C-14.40053506 18.19892988 -14.2075504 15.81108319 -14.25 12.6875 C-14.27578125 11.55699219 -14.3015625 10.42648438 -14.328125 9.26171875 C-13.96851267 5.68700099 -13.10969196 3.86980157 -11 1 C-7.44544736 -1.79286279 -4.2131487 -1.05328717 0 0 Z " fill="#2175BB" transform="translate(427,43)"/>
<path d="M0 0 C1.21429688 -0.03738281 2.42859375 -0.07476563 3.6796875 -0.11328125 C7.70984619 0.38477691 9.27896989 1.48222282 12.125 4.3125 C13.5149408 7.0923816 13.30988204 9.2311326 13.125 12.3125 C11.91793121 15.65515205 11.20443151 16.25954566 8.125 18.3125 C5.4503355 18.56090297 2.92422387 18.68268158 0.25 18.6875 C-0.45769531 18.71199219 -1.16539062 18.73648438 -1.89453125 18.76171875 C-5.54715144 18.78212445 -7.68572853 18.42912943 -10.81640625 16.5 C-13.68873277 13.44781243 -13.9466675 11.46921492 -13.875 7.3125 C-10.36486756 0.54295887 -7.27257856 0.14606659 0 0 Z " fill="#2175BB" transform="translate(443.875,24.6875)"/>
<path d="M0 0 C1.23492187 -0.01417969 2.46984375 -0.02835938 3.7421875 -0.04296875 C6.91007691 0.17285743 8.56052766 0.39236936 11.125 2.1875 C13.23712504 5.35568756 13.45656464 7.31969252 13.68359375 11.0546875 C12.76329764 14.56854537 10.96844517 16.00540804 8.125 18.1875 C5.21081227 18.69509417 3.0144271 18.89246569 0.125 18.8125 C-0.92300781 18.84150391 -0.92300781 18.84150391 -1.9921875 18.87109375 C-5.88889781 18.83433233 -7.73362261 18.29646676 -10.83984375 15.90234375 C-13.88903627 11.83480287 -13.58546028 10.16072196 -12.875 5.1875 C-9.07170434 0.24321564 -6.02845983 0.03133295 0 0 Z " fill="#2276BB" transform="translate(400.875,24.8125)"/>
<path d="M0 0 C0.77085937 -0.03738281 1.54171875 -0.07476563 2.3359375 -0.11328125 C5.66545174 0.50603113 6.69196285 1.5361916 8.625 4.3125 C9.05306075 7.28530809 9.23051118 9.78728876 9.1875 12.75 C9.21134766 13.50087891 9.23519531 14.25175781 9.25976562 15.02539062 C9.24868676 19.22428018 8.95838815 20.8807258 6.30859375 24.3125 C3.625 26.3125 3.625 26.3125 0.125 26.875 C-3.89839163 26.22838349 -5.55803517 25.21231674 -8.375 22.3125 C-9.47611689 19.00914934 -9.57726528 16.41417863 -9.625 12.9375 C-9.65078125 11.81601563 -9.6765625 10.69453125 -9.703125 9.5390625 C-9.34180751 5.98610717 -8.50054458 4.14999883 -6.375 1.3125 C-4.07513269 0.16256634 -2.56030912 0.0808071 0 0 Z " fill="#2175BA" transform="translate(422.375,-0.3125)"/>
<path d="M0 0 C5.25291883 1.06839027 8.00431786 4.01076943 11.6875 7.75 C12.24179687 8.26304687 12.79609375 8.77609375 13.3671875 9.3046875 C15.5007264 11.64021825 15.56574478 13.64524194 15.6875 16.75 C14.52643875 19.92764131 13.56552343 22.02876647 10.9375 24.1875 C7.3835238 25.07599405 5.23703643 24.75570199 1.6875 23.75 C-2.33230555 20.90778667 -5.58092205 17.84736693 -8.3125 13.75 C-8.86627603 8.84512657 -9.06889171 6.85020612 -6.25 2.75 C-3.3125 0.75 -3.3125 0.75 0 0 Z " fill="#FFDB43" transform="translate(480.3125,185.25)"/>
<path d="M0 0 C0.75087891 -0.02384766 1.50175781 -0.04769531 2.27539062 -0.07226562 C6.47428018 -0.06118676 8.1307258 0.22911185 11.5625 2.87890625 C13.5625 5.5625 13.5625 5.5625 14.125 9.0625 C13.47499932 13.10694865 12.52244621 14.76699524 9.5625 17.5625 C3.93183413 19.49231607 -3.09809844 19.61284356 -8.5 17.1875 C-12.37528035 13.93726487 -12.37528035 13.93726487 -12.7734375 11.5390625 C-12.78632813 10.76304687 -12.79921875 9.98703125 -12.8125 9.1875 C-12.84085937 8.41664063 -12.86921875 7.64578125 -12.8984375 6.8515625 C-11.51446561 -0.02138263 -5.96625843 -0.08661519 0 0 Z " fill="#FFDA43" transform="translate(494.4375,161.4375)"/>
<path d="M0 0 C5.56670681 1.69496328 9.31958539 6.0912792 12.52734375 10.76953125 C13.53041459 14.06388067 13.52498439 16.48200404 12.52734375 19.76953125 C11.08984375 22.33203125 11.08984375 22.33203125 8.52734375 23.76953125 C4.32968252 24.77565044 1.01073353 24.66521124 -2.73046875 22.40625 C-6.70692111 19.09743079 -9.87179346 15.785568 -11.47265625 10.76953125 C-11.40233481 7.25345919 -10.84521993 5.35942374 -8.97265625 2.39453125 C-5.84174904 0.35944157 -3.7196748 -0.16710685 0 0 Z " fill="#FFDB42" transform="translate(428.47265625,131.23046875)"/>
<path d="M0 0 C2.68860072 1.99691129 4.66105144 3.5802397 5.46313477 6.93994141 C5.63684619 9.16825734 5.63343853 11.32889502 5.5625 13.5625 C5.57345703 14.31724609 5.58441406 15.07199219 5.59570312 15.84960938 C5.54923239 19.36589529 5.28710102 21.59140857 3.24609375 24.49609375 C-0.41122565 26.94490761 -3.75820293 26.78753953 -8 26 C-11.03215675 23.80168636 -11.81654398 22.55036806 -13 19 C-13.1190686 17.21120198 -13.17522113 15.4177144 -13.1875 13.625 C-13.20167969 12.68914062 -13.21585937 11.75328125 -13.23046875 10.7890625 C-12.91003879 6.91131692 -11.97711514 4.04949404 -9.3125 1.1875 C-5.95694997 -0.53562029 -3.71982635 -0.52208089 0 0 Z " fill="#FFDB42" transform="translate(460,119)"/>
<path d="M0 0 C3.34010047 0.77690982 4.8338388 1.94124112 7.1328125 4.49609375 C7.87020741 7.51246913 7.83188885 10.40464061 7.7578125 13.49609375 C7.78681641 14.70652344 7.78681641 14.70652344 7.81640625 15.94140625 C7.78204933 20.10546495 7.70679444 21.86993164 4.8125 25.02734375 C1.27338192 26.96715191 -0.88448288 27.06505155 -4.8671875 26.49609375 C-9.45859037 23.70132678 -9.45859037 23.70132678 -10.48828125 20.6640625 C-11.68172474 13.83559719 -11.43194326 7.62820025 -7.7421875 1.68359375 C-5.24849643 0.10425608 -2.90216551 0.08535781 0 0 Z " fill="#FFDB42" transform="translate(457.8671875,195.50390625)"/>
<path d="M0 0 C2.92409359 0.9130333 4.25244886 2.03600188 5.9140625 4.59765625 C7.26035257 7.91850509 6.94297019 9.49358855 5.9765625 12.97265625 C3.73291535 17.59192979 0.32409588 21.00351897 -4.0859375 23.59765625 C-8.45178654 24.65691143 -11.73273854 24.35676786 -15.6484375 22.16015625 C-17.42461209 18.99393198 -18.01846636 16.75320602 -17.85546875 13.125 C-15.5345076 5.50235094 -8.14288824 -1.02145771 0 0 Z " fill="#FFDB43" transform="translate(489.0859375,131.40234375)"/>
<path d="M0 0 C0.66 0.33 1.32 0.66 2 1 C-0.64 3.64 -3.28 6.28 -6 9 C-6 6 -6 6 -3.5625 3.375 C-2.716875 2.59125 -1.87125 1.8075 -1 1 C-0.67 0.67 -0.34 0.34 0 0 Z " fill="#D4B6C8" transform="translate(101,131)"/>
</svg>
