<?xml version="1.0" encoding="UTF-8"?>
<svg version="1.1" xmlns="http://www.w3.org/2000/svg" width="512" height="512">
<path d="M0 0 C0.78109131 -0.02239746 1.56218262 -0.04479492 2.36694336 -0.06787109 C6.34498333 -0.05163943 8.29735837 0.14897058 11.734375 2.33984375 C14.1378974 4.84118392 14.67957534 5.8036781 15.0625 9.25 C14.67835642 13.1682645 13.45743683 14.65043267 10.75 17.4375 C6.82477625 19.40011187 1.87442693 18.79844049 -2.453125 18.9609375 C-6.36220922 19.45158387 -8.83444499 20.54782903 -12.25 22.4375 C-12.91 22.4375 -13.57 22.4375 -14.25 22.4375 C-20.37315291 37.54127717 -17.02233108 52.5405524 -10.97412109 67.21435547 C1.74614702 96.77306936 20.370097 123.49830843 41.75 147.4375 C42.51699219 148.30375 43.28398437 149.17 44.07421875 150.0625 C46.28269994 152.53663332 48.51258876 154.98950888 50.75 157.4375 C51.18747559 157.92009277 51.62495117 158.40268555 52.07568359 158.89990234 C62.39613743 170.28217555 72.95604612 181.56144142 84.75 191.4375 C85.67683594 192.241875 86.60367188 193.04625 87.55859375 193.875 C114.71117422 217.36244982 146.93233082 240.33178403 181.75 250.4375 C182.56855469 250.68371094 183.38710938 250.92992187 184.23046875 251.18359375 C191.88890015 253.20631243 201.02466018 254.09352474 208.375 250.75 C212.17845061 248.48394417 214.04408055 245.83762612 215.296875 241.578125 C217.60750549 230.66238785 214.11615686 219.45265518 210.640625 209.1484375 C209.59949558 205.97938567 209.32683591 203.75228538 209.75 200.4375 C211.54993774 197.73759338 212.833773 195.8956135 215.75 194.4375 C219.73143733 194.17784104 222.36151935 194.29740696 225.75 196.4375 C234.51781466 209.19345258 236.74131129 230.458273 234.25390625 245.421875 C231.84927985 254.17091117 227.31321163 261.32347503 219.75 266.4375 C214.67252077 269.25481767 209.10149433 271.07157302 203.67578125 273.1015625 C202.98157074 273.36160065 202.28736023 273.62163879 201.57211304 273.88955688 C196.13763258 275.92312137 190.69835725 277.94366297 185.2578125 279.9609375 C165.34768406 287.34395565 145.46828934 294.80043436 125.63134766 302.37792969 C123.87143196 303.05016342 122.11150354 303.72236386 120.3515625 304.39453125 C119.04162827 304.89483353 119.04162827 304.89483353 117.70523071 305.40524292 C107.89616566 309.14907205 98.07335766 312.85637257 88.25 316.5625 C72.14210754 322.64050173 56.04162143 328.73776197 39.94564819 334.84725952 C19.7832943 342.50019305 -0.38424485 350.13908472 -20.5625 357.75 C-21.64729645 358.15919678 -22.7320929 358.56839355 -23.84976196 358.98999023 C-32.38034327 362.20769853 -40.9112406 365.42456865 -49.44226074 368.64111328 C-55.64370191 370.97938104 -61.84482482 373.31848919 -68.04550171 375.65878296 C-69.92934305 376.36959934 -71.81330901 377.08008558 -73.69741821 377.79019165 C-75.45544362 378.45278546 -77.21328631 379.11586432 -78.97093201 379.77946472 C-80.64401041 380.41083421 -82.31763261 381.04076484 -83.99183655 381.66914368 C-88.09480185 383.21531095 -92.17346259 384.80328279 -96.22900391 386.47021484 C-97.03497513 386.79724899 -97.84094635 387.12428314 -98.67134094 387.46122742 C-100.17960563 388.07575136 -101.68349925 388.70117823 -103.18156433 389.34016418 C-108.09311933 391.33056174 -111.94306992 391.88512341 -117.25 391.4375 C-120.25 389.5 -120.25 389.5 -122.25 386.4375 C-122.99339944 378.14975357 -120.85562467 370.48958489 -118.85546875 362.515625 C-118.50326018 361.08331519 -118.15173499 359.65083717 -117.80085754 358.21820068 C-117.06683702 355.23117882 -116.32557976 352.24607819 -115.57885742 349.26220703 C-114.62452589 345.44681915 -113.6870863 341.62752105 -112.75481701 337.80669022 C-112.03266512 334.85398525 -111.30236917 331.90334224 -110.56954384 328.95326996 C-110.22077097 327.5456969 -109.87433257 326.13754317 -109.53032494 324.72879791 C-109.04815461 322.76021522 -108.55398054 320.79458448 -108.05932617 318.82910156 C-107.78174973 317.71263245 -107.50417328 316.59616333 -107.21818542 315.44586182 C-105.73935747 310.85082305 -104.29384918 308.13339946 -100.25 305.4375 C-95.61152243 304.93331766 -92.99169381 305.65795603 -89.25 308.4375 C-85.93268772 315.07212457 -89.11653156 324.09372555 -90.875 330.81640625 C-91.14135254 331.86908188 -91.40770508 332.92175751 -91.68212891 334.0063324 C-92.52810387 337.340193 -93.38879243 340.67004555 -94.25 344 C-94.82910418 346.27123493 -95.40723924 348.5427172 -95.984375 350.81445312 C-97.39505188 356.35837916 -98.81780086 361.89909729 -100.25 367.4375 C-66.17016729 354.64512757 -66.17016729 354.64512757 -32.25 341.4375 C-33.46623047 340.29087891 -33.46623047 340.29087891 -34.70703125 339.12109375 C-50.46579395 323.99459752 -61.78878202 306.86981567 -69.125 286.25 C-69.53637207 285.09431519 -69.53637207 285.09431519 -69.95605469 283.9152832 C-74.35913658 270.84688145 -75.9426325 257.65871913 -77.13037109 243.99853516 C-77.37346291 241.2051627 -77.62896801 238.41314795 -77.88671875 235.62109375 C-78.29854443 231.1028746 -78.68011873 226.58297245 -79.03967285 222.06030273 C-79.17992484 220.31134493 -79.32535509 218.56279468 -79.47595215 216.81469727 C-79.68610744 214.34099676 -79.87359699 211.86660183 -80.0546875 209.390625 C-80.12035919 208.65785339 -80.18603088 207.92508179 -80.25369263 207.17010498 C-80.55119566 202.6534619 -80.09294055 199.99668843 -77.25 196.4375 C-73.7413604 194.09840693 -72.37910567 194.02458943 -68.25 194.4375 C-65.5 195.5 -65.5 195.5 -63.25 197.4375 C-61.14277775 203.21009844 -60.71532298 208.92604706 -60.28515625 215.0234375 C-60.12306147 217.11067822 -59.9609516 219.19791776 -59.79882812 221.28515625 C-59.555359 224.53384836 -59.314692 227.78273305 -59.07543945 231.03173828 C-57.40751498 255.09508777 -57.40751498 255.09508777 -51.625 278.4375 C-51.37339111 279.1711377 -51.12178223 279.90477539 -50.86254883 280.66064453 C-43.76816058 300.43701784 -30.56433958 321.21561324 -13.25 333.4375 C-8.60704001 333.07497251 -4.16261798 331.03177231 0.16796875 329.40234375 C1.00211807 329.0917804 1.8362674 328.78121704 2.69569397 328.46124268 C5.44445385 327.43643935 8.1910287 326.40591952 10.9375 325.375 C12.85052753 324.65975588 14.7636143 323.94467018 16.67675781 323.22973633 C30.46694982 318.06996957 44.23811939 312.85976083 58 307.625 C59.34836441 307.11258255 59.34836441 307.11258255 60.72396851 306.58981323 C63.28020514 305.6176496 65.83557853 304.64325551 68.390625 303.66796875 C69.50982079 303.24236664 69.50982079 303.24236664 70.65162659 302.8081665 C75.06576979 301.11915158 79.41744701 299.32633111 83.75 297.4375 C82.05810547 296.59832031 82.05810547 296.59832031 80.33203125 295.7421875 C58.89017383 284.89908953 38.97346458 271.41156588 21.44921875 254.94921875 C19.26195414 252.91389148 17.04182197 250.97628948 14.75 249.0625 C3.53455192 239.25765467 -5.45743974 227.37851523 -14.25 215.4375 C-14.92933594 214.52097656 -15.60867187 213.60445312 -16.30859375 212.66015625 C-37.18143704 183.68884258 -63.34791382 136.34071897 -60.25 99.4375 C-56.98706897 93.93130388 -56.98706897 93.93130388 -53.3125 92.88671875 C-49.53757111 92.63648672 -47.89490734 92.99805857 -44.6875 95.18359375 C-40.70669686 99.46493535 -40.30619348 105.65532779 -39.25 111.1875 C-38.7381761 113.64792919 -38.22255797 116.10757219 -37.703125 118.56640625 C-37.45498047 119.75508301 -37.20683594 120.94375977 -36.95117188 122.16845703 C-24.60687875 179.72071504 14.81255952 232.15365875 63.64990234 264.0625 C73.60013281 270.41344702 83.90122229 276.05181607 94.47070312 281.30126953 C95.87926979 282.00344062 97.28281469 282.71591862 98.67773438 283.44482422 C100.24829846 284.26547529 101.8420421 285.04136201 103.4375 285.8125 C104.64986328 286.41191406 104.64986328 286.41191406 105.88671875 287.0234375 C113.10477392 288.06724903 121.49307278 283.51459148 128.1953125 280.96875 C129.05003143 280.64716919 129.90475037 280.32558838 130.78536987 279.9942627 C133.48310282 278.97846432 136.17907639 277.95808928 138.875 276.9375 C140.6886859 276.25359806 142.50248714 275.57000192 144.31640625 274.88671875 C147.65452588 273.62884228 150.99196074 272.36918455 154.32861328 271.10742188 C158.46626165 269.54323192 162.60754983 267.9889264 166.75 266.4375 C165.9971875 266.0971875 165.244375 265.756875 164.46875 265.40625 C160.88572781 263.77127871 157.31396811 262.11350407 153.75 260.4375 C152.82743408 260.0038916 152.82743408 260.0038916 151.88623047 259.56152344 C109.25965368 239.33993224 68.19445822 207.57159612 37.57421875 171.5390625 C35.73406693 169.41914456 33.82826249 167.36966479 31.90893555 165.3215332 C25.9589773 158.94886089 20.52109662 152.27846144 15.22412109 145.35742188 C13.66654321 143.32880438 12.09392043 141.31246745 10.51953125 139.296875 C-6.73920374 117.11142189 -21.97895548 93.17757289 -31.5625 66.625 C-31.92674072 65.62098145 -31.92674072 65.62098145 -32.29833984 64.59667969 C-37.10550161 50.72293187 -39.69620022 32.34594528 -33.4375 18.58984375 C-33.045625 17.87957031 -32.65375 17.16929687 -32.25 16.4375 C-31.899375 15.77878906 -31.54875 15.12007812 -31.1875 14.44140625 C-27.04265658 7.74921115 -19.57533649 3.12359004 -12.11328125 0.91015625 C-8.07395138 0.24336373 -4.08940875 0.07437518 0 0 Z " fill="#000000" transform="translate(122.25,120.5625)"/>
<path d="M0 0 C0.86367188 0.26248535 1.72734375 0.5249707 2.6171875 0.79541016 C29.35897108 9.24044188 52.64131808 26.20968252 68.70898438 49.22314453 C72.3546085 54.42662097 76.49653962 58.6711213 81.375 62.75 C94.16046312 73.9762603 101.49296737 88.03403751 102.77734375 105.12890625 C103.10047239 117.73092336 101.16167585 131.00189347 93.12109375 141.18359375 C90.44142451 143.25630177 87.93125295 142.90748995 84.66015625 142.78515625 C82.5 142.4375 82.5 142.4375 80 140.8125 C78.14833232 137.88069284 77.77320234 135.89806293 77.5 132.4375 C78.4609375 129.1484375 78.4609375 129.1484375 79.875 125.8125 C84.64279536 114.38577258 84.84537228 104.51998635 80.375 92.80078125 C79.5 90.4375 79.5 90.4375 79.5 88.4375 C78.84 88.4375 78.18 88.4375 77.5 88.4375 C77.5825 89.365625 77.665 90.29375 77.75 91.25 C77.71481946 99.95718389 73.15174965 108.99572082 67.5 115.4375 C60.15013067 122.07692502 50.81203603 126.27846789 40.72265625 125.78125 C30.2478732 124.1612484 21.38567911 120.57618733 14.6875 112.16015625 C9.24663465 104.29967529 6.3961517 96.11982656 7.5 86.4375 C9.34742405 77.64554216 12.27862525 70.93992248 18.5 64.4375 C19.09683594 63.81230469 19.69367188 63.18710937 20.30859375 62.54296875 C27.1135545 56.0492536 35.61139963 52.24650872 44.5 49.4375 C28.53240354 31.94918007 7.84735892 21.02684757 -15.125 15.9375 C-19.85470141 14.78375882 -22.815547 13.75179947 -25.5 9.4375 C-26.156549 6.41376056 -25.95529166 4.62454162 -25.5 1.4375 C-19.28459397 -6.92114949 -8.42901282 -2.56382473 0 0 Z M35.890625 73.3125 C29.9231819 78.46088228 26.02709618 83.06106712 25.37109375 91.09375 C25.66125869 96.36947623 28.22479307 100.16229307 31.875 103.8125 C36.74077233 106.82464477 40.71364674 108.00869587 46.48046875 107.02734375 C51.06178963 105.68927905 54.32793597 103.39804346 56.7890625 99.28125 C60.88195195 90.44767566 61.51758164 82.73938728 58.44921875 73.453125 C57.37908113 71.180734 56.50201095 69.95847857 54.5 68.4375 C47.82827083 66.23936407 41.33957658 69.39708569 35.890625 73.3125 Z " fill="#000000" transform="translate(409.5,369.5625)"/>
<path d="M0 0 C5.73856202 3.28722865 7.69368406 8.85196575 10.3125 14.625 C10.76689453 15.59179688 11.22128906 16.55859375 11.68945312 17.5546875 C15 24.68356438 15 24.68356438 15 27 C16.77503906 27.18175781 16.77503906 27.18175781 18.5859375 27.3671875 C41.18847058 29.7319294 41.18847058 29.7319294 46.125 33.1875 C48 36 48 36 48.75 39.3125 C47.43201576 45.7925892 42.72539142 49.54765001 37.828125 53.71875 C31.61231473 58.92530818 31.61231473 58.92530818 28.3828125 66.09765625 C28.64459626 69.50506751 29.25158827 72.66549229 30 76 C30.35576179 78.11844555 30.66877459 80.23774281 30.95849609 82.36621094 C31.14867727 83.75832439 31.36156035 85.14757906 31.60009766 86.53222656 C32.10410754 89.89172775 32.10635189 91.77183811 30.65625 94.8828125 C28.80092055 97.25448364 27.90055115 98.19429135 25 99 C19.11190419 98.84024546 15.68202367 96.72356976 10.7800293 93.59204102 C3.18650996 88.6111713 3.18650996 88.6111713 -5.50341797 87.20410156 C-10.15914824 88.60014854 -14.10747749 91.01810731 -18.09912109 93.74291992 C-22.51873458 96.66567741 -26.40343281 98.97339055 -31.75 99.0625 C-35.77559984 97.74643852 -37.01245896 96.73657716 -39 93 C-39.30394268 87.21888611 -38.62250445 81.97052918 -37.5 76.3125 C-36.05054876 69.69856243 -36.05054876 69.69856243 -36 63 C-37.73663291 60.71996808 -37.73663291 60.71996808 -40.15625 58.671875 C-41.01347656 57.87136719 -41.87070312 57.07085937 -42.75390625 56.24609375 C-44.57687845 54.58908203 -46.40758234 52.94053467 -48.24609375 51.30078125 C-55.60316484 44.38624075 -55.60316484 44.38624075 -55.84375 39.140625 C-55.68209295 36.25862427 -55.08653281 35.11476131 -53.33032227 32.78564453 C-50.37561599 30.52155635 -48.56676052 30.4547085 -44.87109375 30.2890625 C-31.75485753 29.70864654 -31.75485753 29.70864654 -20.69238281 23.68603516 C-17.13627867 18.26168094 -15.07010691 12.41230726 -12.97900391 6.31005859 C-10.43541456 0.30820264 -6.07364153 -0.86766308 0 0 Z M-4 30 C-4.42410156 30.84304687 -4.84820312 31.68609375 -5.28515625 32.5546875 C-10.11199207 41.57185332 -10.11199207 41.57185332 -14.5 43.6875 C-15.655 43.790625 -16.81 43.89375 -18 44 C-19.299375 44.20625 -20.59875 44.4125 -21.9375 44.625 C-22.948125 44.74875 -23.95875 44.8725 -25 45 C-25.32448773 48.00381473 -25.32448773 48.00381473 -23.50390625 49.75390625 C-22.86324219 50.35074219 -22.22257812 50.94757812 -21.5625 51.5625 C-18.08571429 54.82857143 -18.08571429 54.82857143 -17 57 C-17.08924852 59.7235195 -17.23353332 62.41013311 -17.4375 65.125 C-17.48970703 65.87910156 -17.54191406 66.63320312 -17.59570312 67.41015625 C-17.72545004 69.2737937 -17.86207488 71.13694996 -18 73 C-16.93072266 72.45859375 -16.93072266 72.45859375 -15.83984375 71.90625 C-5.75930454 67.02200489 -5.75930454 67.02200489 0 68 C2.18146966 68.9309202 4.23669326 69.95710738 6.30078125 71.125 C7.97780435 72.15260325 7.97780435 72.15260325 10 72 C9.95359375 70.90300781 9.9071875 69.80601563 9.859375 68.67578125 C9.8218421 67.2213815 9.78544357 65.76695217 9.75 64.3125 C9.69972656 63.2306543 9.69972656 63.2306543 9.6484375 62.12695312 C9.58075243 58.42119527 9.68603283 56.49903497 11.703125 53.29296875 C12.46109375 52.53628906 13.2190625 51.77960937 14 51 C14.9075 50.071875 15.815 49.14375 16.75 48.1875 C17.4925 47.465625 18.235 46.74375 19 46 C17.97519531 45.8040625 16.95039062 45.608125 15.89453125 45.40625 C5.17420979 43.11698709 5.17420979 43.11698709 1.99609375 40.09375 C0.81098408 38.10246855 -0.08656174 36.12581996 -1 34 C-1.96962061 32.64441391 -2.96310953 31.30485093 -4 30 Z " fill="#000000" transform="translate(55,0)"/>
<path d="M0 0 C3 2.0625 3 2.0625 5 5 C5.65274418 9.06151934 5.61362756 11.07526757 3.32421875 14.52539062 C0.76836384 17.24662438 -1.38190851 18.51014861 -4.75 20.09375 C-5.90064941 20.64200439 -7.05129883 21.19025879 -8.23681641 21.75512695 C-9.4910932 22.33700517 -10.74549118 22.9186222 -12 23.5 C-13.31088087 24.11898488 -14.62125708 24.73903952 -15.93115234 25.36010742 C-19.94575061 27.25816578 -23.97135686 29.13197206 -28 31 C-29.75231934 31.81331787 -29.75231934 31.81331787 -31.54003906 32.64306641 C-36.04249656 34.73009555 -40.54587973 36.81505937 -45.05273438 38.89257812 C-55.35592732 43.65801939 -65.55784338 48.62082044 -75.75762939 53.60269165 C-86.56802688 58.88018201 -97.4289792 64.01825493 -108.35888672 69.04467773 C-117.08227715 73.0720574 -125.72934027 77.24257904 -134.36294556 81.45828247 C-145.81850358 87.0502911 -157.27889706 92.63292872 -168.8125 98.0625 C-170.39442139 98.82252319 -170.39442139 98.82252319 -172.00830078 99.59790039 C-172.98138184 100.05156982 -173.95446289 100.50523926 -174.95703125 100.97265625 C-175.79210205 101.36718994 -176.62717285 101.76172363 -177.48754883 102.16821289 C-180.49161763 103.16275787 -182.85368025 103.26825753 -186 103 C-188.69990662 101.20006226 -190.5418865 99.916227 -192 97 C-192.51763274 93.20402655 -192.27460079 91.44166986 -190.234375 88.16015625 C-186.16984025 83.54208009 -180.40090842 81.59220806 -174.875 79.1875 C-172.33770047 78.05318583 -169.80577726 76.90705458 -167.2734375 75.76171875 C-166.60797913 75.46244476 -165.94252075 75.16317078 -165.25689697 74.85482788 C-158.00849142 71.58265668 -150.86957406 68.09230759 -143.72906494 64.59243774 C-131.42960967 58.56462361 -119.08114589 52.67669428 -106.63671875 46.953125 C-97.19548173 42.59397099 -87.84367435 38.06366881 -78.5 33.5 C-66.71693457 27.7453198 -54.89856082 22.09464246 -42.97753906 16.63012695 C-37.27327118 14.00991106 -31.61044761 11.33178466 -25.9921875 8.53125 C-24.85861816 7.97026611 -23.72504883 7.40928223 -22.55712891 6.83129883 C-20.41989367 5.76899226 -18.28883082 4.69413431 -16.16552734 3.60424805 C-10.46867338 0.78267944 -6.37831164 -0.82946654 0 0 Z " fill="#000000" transform="translate(456,162)"/>
<path d="M0 0 C2.11328125 1.015625 2.11328125 1.015625 4 3 C4.90560343 5.80559495 5.57132121 8.3758304 6.125 11.25 C6.29040283 12.05268311 6.45580566 12.85536621 6.6262207 13.68237305 C17.65716648 68.73914582 8.01195692 122.46603067 -13.1104126 173.69882202 C-13.82501687 175.43289249 -14.5353095 177.16874642 -15.2411499 178.90640259 C-16.24145922 181.35783538 -17.26362545 183.79892059 -18.29296875 186.23828125 C-18.59177444 186.97780029 -18.89058014 187.71731934 -19.19844055 188.47924805 C-21.05833016 192.8004447 -22.62385709 195.13022988 -27 197 C-30.52138934 197.29667383 -33.85183191 196.66667825 -36.9375 194.875 C-38.61180473 191.92034459 -38.78004081 189.38285734 -39 186 C-38.15954077 183.18215958 -37.27473972 180.73105743 -36.09765625 178.06640625 C-35.62825371 176.94686302 -35.62825371 176.94686302 -35.14936829 175.80470276 C-34.48000889 174.21063854 -33.80369513 172.61947955 -33.12103271 171.03106689 C-31.33644328 166.86928868 -29.613739 162.68201389 -27.88671875 158.49609375 C-27.54505676 157.67081177 -27.20339478 156.84552979 -26.85137939 155.99523926 C-8.99253856 112.66818556 -2.62410613 64.86541139 -12.03442383 18.67797852 C-14.34463971 7.01695957 -14.34463971 7.01695957 -11 2 C-6.86334406 -0.75777063 -4.91307062 -0.62388198 0 0 Z " fill="#000000" transform="translate(203,51)"/>
<path d="M0 0 C0.8856665 -0.00067474 1.77133301 -0.00134949 2.68383789 -0.00204468 C17.62374661 0.01596535 32.17768569 0.75067144 46.9375 3.25 C47.92492187 3.41628906 48.91234375 3.58257812 49.9296875 3.75390625 C96.64669641 11.94455067 96.64669641 11.94455067 104.875 21.5 C106.32001709 25.24004424 106.05250247 27.417179 104.9375 31.25 C102.3720533 34.19271827 100.86003432 35.14790134 96.97265625 35.578125 C91.55023723 35.44723414 86.56847269 33.32430425 81.5 31.5625 C69.12186586 27.4506726 56.79392561 24.4250543 43.9375 22.25 C42.98037109 22.08628906 42.02324219 21.92257812 41.03710938 21.75390625 C11.48077141 16.9308221 -18.69779696 18.26776132 -48.10984802 23.27085876 C-49.52763234 23.51196209 -50.94565292 23.75168019 -52.36390686 23.99000549 C-55.81353972 24.5699151 -59.25841096 25.16529151 -62.69848633 25.79956055 C-74.49168207 27.85184333 -74.49168207 27.85184333 -80.0625 25.25 C-82.80147267 22.25424864 -83.0713886 20.75664993 -83 16.6875 C-81.95301539 12.84855645 -81.09370153 11.72831037 -78.0625 9.25 C-75.46313477 8.38452148 -75.46313477 8.38452148 -72.50390625 7.87109375 C-71.405625 7.67354492 -70.30734375 7.47599609 -69.17578125 7.27246094 C-68.00402344 7.07942383 -66.83226562 6.88638672 -65.625 6.6875 C-64.42101562 6.47770508 -63.21703125 6.26791016 -61.9765625 6.05175781 C-51.37635014 4.23177426 -40.74377466 2.52360016 -30.0625 1.25 C-29.28205322 1.15428711 -28.50160645 1.05857422 -27.69750977 0.95996094 C-18.49088439 -0.02864619 -9.24908636 0.00634707 0 0 Z " fill="#000000" transform="translate(330.0625,280.75)"/>
<path d="M0 0 C0.96472733 -0.01283524 1.92945465 -0.02567047 2.92341614 -0.03889465 C4.49212715 -0.04997505 4.49212715 -0.04997505 6.0925293 -0.0612793 C7.16544724 -0.06935104 8.23836517 -0.07742279 9.34379578 -0.08573914 C11.61768982 -0.09958665 13.89160471 -0.11030581 16.16552734 -0.11816406 C19.64224666 -0.13537674 23.11801524 -0.17925793 26.59448242 -0.22338867 C28.80215771 -0.23351539 31.00984109 -0.24203156 33.2175293 -0.2487793 C34.25726395 -0.26628738 35.2969986 -0.28379547 36.36824036 -0.30183411 C43.60099652 -0.28011344 43.60099652 -0.28011344 47.48779297 2.07861328 C50.21058983 5.13975638 50.48491543 6.81747999 50.53125 10.82275391 C50.55050285 12.26984489 50.55050285 12.26984489 50.57014465 13.74617004 C50.57753159 14.79197739 50.58491852 15.83778473 50.5925293 16.9152832 C50.60060104 17.98820114 50.60867279 19.06111908 50.61698914 20.16654968 C50.63083665 22.44044373 50.64155581 24.71435862 50.64941406 26.98828125 C50.66662674 30.46500057 50.71050793 33.94076915 50.75463867 37.41723633 C50.76476539 39.62491162 50.77328156 41.832595 50.7800293 44.0402832 C50.79753738 45.08001785 50.81504547 46.1197525 50.83308411 47.19099426 C50.81136344 54.42375043 50.81136344 54.42375043 48.45263672 58.31054688 C45.39149362 61.03334373 43.71377001 61.30766934 39.70849609 61.35400391 C38.74376877 61.36683914 37.77904144 61.37967438 36.78507996 61.39289856 C35.73927261 61.40028549 34.69346527 61.40767242 33.6159668 61.4152832 C32.54304886 61.42335495 31.47013092 61.4314267 30.36470032 61.43974304 C28.09080627 61.45359056 25.81689138 61.46430971 23.54296875 61.47216797 C20.06624943 61.48938065 16.59048085 61.53326183 13.11401367 61.57739258 C10.90633838 61.5875193 8.698655 61.59603547 6.4909668 61.6027832 C5.45123215 61.62029129 4.4114975 61.63779938 3.34025574 61.65583801 C-3.89250043 61.63411735 -3.89250043 61.63411735 -7.77929688 59.27539062 C-10.50209373 56.21424753 -10.77641934 54.53652392 -10.82275391 50.53125 C-10.83558914 49.56652267 -10.84842438 48.60179535 -10.86164856 47.60783386 C-10.86903549 46.56202652 -10.87642242 45.51621918 -10.8840332 44.4387207 C-10.89210495 43.36580276 -10.9001767 42.29288483 -10.90849304 41.18745422 C-10.92234056 38.91356018 -10.93305971 36.63964529 -10.94091797 34.36572266 C-10.95813065 30.88900334 -11.00201183 27.41323476 -11.04614258 23.93676758 C-11.0562693 21.72909229 -11.06478547 19.52140891 -11.0715332 17.3137207 C-11.08904129 16.27398605 -11.10654938 15.2342514 -11.12458801 14.16300964 C-11.10286735 6.93025348 -11.10286735 6.93025348 -8.74414062 3.04345703 C-5.68299753 0.32066017 -4.00527392 0.04633457 0 0 Z M7.35424805 18.17700195 C7.35424805 26.42700195 7.35424805 34.67700195 7.35424805 43.17700195 C15.60424805 43.17700195 23.85424805 43.17700195 32.35424805 43.17700195 C32.35424805 34.92700195 32.35424805 26.67700195 32.35424805 18.17700195 C24.10424805 18.17700195 15.85424805 18.17700195 7.35424805 18.17700195 Z " fill="#000000" transform="translate(325.645751953125,92.822998046875)"/>
<path d="M0 0 C3.03437855 2.02291903 3.81161043 3.42227198 4.9375 6.875 C5.04025434 12.01271706 2.86396203 15.10019955 -0.63671875 18.74609375 C-1.64528884 19.65261404 -2.66258745 20.54949836 -3.6875 21.4375 C-4.22568359 21.91703125 -4.76386719 22.3965625 -5.31835938 22.890625 C-6.87072279 24.27009045 -8.43312335 25.63706436 -10 27 C-10.70769531 27.62003906 -11.41539062 28.24007812 -12.14453125 28.87890625 C-13.38585019 29.963427 -14.62935984 31.0454452 -15.875 32.125 C-18.61823418 34.54550075 -21.30884568 37.02200642 -24 39.5 C-27.90981595 43.10012756 -31.85866468 46.64417605 -35.875 50.125 C-38.61823418 52.54550075 -41.30884568 55.02200642 -44 57.5 C-47.90981595 61.10012756 -51.85866468 64.64417605 -55.875 68.125 C-58.61824058 70.54550639 -61.30856918 73.02230045 -64 75.5 C-68.60931665 79.73572394 -73.2168437 83.96044363 -78 88 C-78.65484375 88.58007812 -79.3096875 89.16015625 -79.984375 89.7578125 C-83.30634506 92.52612089 -85.84306053 94.38833103 -90.25 94.625 C-94 94 -94 94 -96.4375 92.375 C-98.3861606 89.41303588 -98.92895147 87.55242634 -99 84 C-97.04237917 79.09924374 -94.23713347 75.96286908 -90.3125 72.5625 C-89.77431641 72.08296875 -89.23613281 71.6034375 -88.68164062 71.109375 C-87.12927721 69.72990955 -85.56687665 68.36293564 -84 67 C-82.93845703 66.06994141 -82.93845703 66.06994141 -81.85546875 65.12109375 C-80.61414981 64.036573 -79.37064016 62.9545548 -78.125 61.875 C-75.38176582 59.45449925 -72.69115432 56.97799358 -70 54.5 C-66.09018405 50.89987244 -62.14133532 47.35582395 -58.125 43.875 C-55.38176582 41.45449925 -52.69115432 38.97799358 -50 36.5 C-46.09018405 32.89987244 -42.14133532 29.35582395 -38.125 25.875 C-35.38175942 23.45449361 -32.69143082 20.97769955 -30 18.5 C-25.39068335 14.26427606 -20.7831563 10.03955637 -16 6 C-15.34515625 5.41992188 -14.6903125 4.83984375 -14.015625 4.2421875 C-9.21779096 0.24399246 -6.25902096 -1.04317016 0 0 Z " fill="#000000" transform="translate(303,162)"/>
<path d="M0 0 C6.16870227 4.45577615 10.0134102 9.52840864 11.8515625 16.9609375 C12.93323777 24.66929704 11.87668962 32.24316302 7.22265625 38.60546875 C1.82449067 44.67535177 -3.97350776 47.89130522 -12.03125 48.8828125 C-19.20894927 49.19488638 -25.7859758 47.42977154 -31.52734375 43.04296875 C-36.81797183 38.0845429 -40.37077253 30.93857267 -40.83984375 23.66796875 C-40.5464406 13.98566495 -37.29758618 7.89390387 -30.33984375 1.29296875 C-20.87950833 -4.93700823 -10.02412886 -5.81888456 0 0 Z M-21.77734375 18.60546875 C-22.30505963 22.29947994 -22.25457885 24.59797243 -20.65234375 27.98046875 C-18.02799777 30.25490193 -16.22886813 30.53643826 -12.77734375 30.60546875 C-9.19486562 29.22132947 -8.05918391 28.14566239 -6.27734375 24.73046875 C-5.47953819 21.58851161 -5.47953819 21.58851161 -7.02734375 18.85546875 C-9.5892052 15.36656637 -9.5892052 15.36656637 -13.58984375 14.23046875 C-17.59803978 14.70202122 -19.12800919 15.56652616 -21.77734375 18.60546875 Z " fill="#000000" transform="translate(278.77734375,71.39453125)"/>
<path d="M0 0 C5.92879726 3.1244872 9.58128774 8.06316693 13 13.6875 C15.36312395 22.16694475 15.00240833 30.62018334 11.0625 38.5 C7.87328796 43.85787623 2.56194932 46.82230203 -2.9375 49.5 C-10.62319479 51.42715929 -17.71786125 50.68613165 -24.9375 47.5 C-31.44053119 43.28362643 -35.35308361 37.92769667 -37.515625 30.51953125 C-39.42399768 21.38408057 -36.74843905 13.88175792 -31.8125 6.1875 C-22.99863492 -2.05154779 -11.44979242 -4.35717357 0 0 Z M-17.3125 18.1875 C-19.15671807 20.81196417 -19.85919023 22.28929947 -19.9375 25.5 C-18.677747 28.35101994 -17.57867799 30.0298028 -15.0625 31.875 C-12.23908614 32.70541584 -10.71363862 32.47164852 -7.9375 31.5 C-4.96694298 29.33229623 -4.05887115 28.21305549 -3.4375 24.5625 C-4.06993896 20.68881135 -4.97614454 19.08169451 -7.9375 16.5 C-11.94495494 15.85594474 -13.97009292 15.81263181 -17.3125 18.1875 Z " fill="#000000" transform="translate(480.9375,308.5)"/>
<path d="M0 0 C7.26311164 6.71837827 7.26311164 6.71837827 7.73828125 11.921875 C7.98734758 22.46131343 7.98734758 22.46131343 3.5 27.3125 C-0.42795792 31.03372329 -4.11436778 33.14258909 -9.6015625 33.41796875 C-15.86167942 33.12755095 -20.23471888 30.89742748 -24.5 26.3125 C-27.71261664 21.42555547 -27.94991232 16.39454845 -27.13671875 10.7109375 C-25.78500757 5.61921563 -23.07686411 2.50476311 -18.9375 -0.625 C-12.54567636 -2.60065458 -6.08801902 -2.93529488 0 0 Z " fill="#000000" transform="translate(197.5,1.6875)"/>
<path d="M0 0 C1.23492187 -0.01417969 2.46984375 -0.02835938 3.7421875 -0.04296875 C6.91007691 0.17285743 8.56052766 0.39236936 11.125 2.1875 C13.23712504 5.35568756 13.45656464 7.31969252 13.68359375 11.0546875 C12.76329764 14.56854537 10.96844517 16.00540804 8.125 18.1875 C5.21081227 18.69509417 3.0144271 18.89246569 0.125 18.8125 C-0.92300781 18.84150391 -0.92300781 18.84150391 -1.9921875 18.87109375 C-5.88889781 18.83433233 -7.73362261 18.29646676 -10.83984375 15.90234375 C-13.88903627 11.83480287 -13.58546028 10.16072196 -12.875 5.1875 C-9.07170434 0.24321564 -6.02845983 0.03133295 0 0 Z " fill="#000000" transform="translate(447.875,24.8125)"/>
<path d="M0 0 C5.18824967 1.63402169 9.61573498 6.16015779 12.453125 10.70703125 C13.72481997 14.10714201 13.36094922 17.3384865 12.1953125 20.69140625 C9.09071512 23.72208464 7.19049513 24.5975211 2.8828125 25.00390625 C-2.81224168 22.97685307 -8.06432737 18.17212651 -10.8046875 12.69140625 C-11.29071338 8.39817766 -11.26710358 6.37057986 -8.8046875 2.75390625 C-5.7725478 0.66931021 -3.71688617 -0.21905603 0 0 Z " fill="#000000" transform="translate(486.8046875,185.30859375)"/>
<path d="M0 0 C3.65279913 3.5349669 4.16837348 7.39450222 4.25 12.3125 C4.20109695 16.93383813 3.76641178 20.14678359 1 24 C-1.64444635 26.17222379 -3.02987018 25.99893321 -6.5 25.875 C-10.4836147 24.87909632 -11.60027081 24.27894032 -14 21 C-14.58416633 18.15331253 -14.5590189 15.3968441 -14.5 12.5 C-14.51546875 11.74074219 -14.5309375 10.98148438 -14.546875 10.19921875 C-14.52044903 6.42691156 -14.45367807 4.58755029 -12.09375 1.53125 C-8.06005279 -1.41876736 -4.75247862 -1.27576783 0 0 Z " fill="#000000" transform="translate(432,43)"/>
<path d="M0 0 C1.83498047 -0.03867187 1.83498047 -0.03867187 3.70703125 -0.078125 C7.4399269 0.27379782 9.2679283 0.93778446 12.1875 3.25 C13.7277467 6.86623139 14.44021313 9.13806222 13.5625 13 C11.94630829 15.64467735 10.88472967 16.7006205 8.1875 18.25 C5.42095011 18.56988233 2.94693789 18.7149944 0.1875 18.6875 C-0.5240625 18.70748047 -1.235625 18.72746094 -1.96875 18.74804688 C-5.49874062 18.74475397 -7.43265977 18.54644582 -10.25 16.34765625 C-12.87114473 12.82876945 -13.24366741 10.64790761 -12.8125 6.25 C-9.01201189 0.54926783 -6.67736111 0.08390401 0 0 Z " fill="#000000" transform="translate(404.8125,24.75)"/>
<path d="M0 0 C4.02339163 0.64661651 5.68303517 1.66268326 8.5 4.5625 C9.60111689 7.86585066 9.70226528 10.46082137 9.75 13.9375 C9.77578125 15.05898437 9.8015625 16.18046875 9.828125 17.3359375 C9.46680751 20.88889283 8.62554458 22.72500117 6.5 25.5625 C4.21273777 26.70613112 2.67147573 26.82751932 0.125 26.9375 C-1.03128906 27.01097656 -1.03128906 27.01097656 -2.2109375 27.0859375 C-4.5 26.5625 -4.5 26.5625 -6.75390625 24.5390625 C-8.92739131 20.8339269 -9.1280431 17.74183664 -9.0625 13.5625 C-9.08634766 12.86382812 -9.11019531 12.16515625 -9.13476562 11.4453125 C-9.12364147 7.51477744 -8.62238182 5.71914047 -6.18359375 2.59765625 C-3.5 0.5625 -3.5 0.5625 0 0 Z " fill="#000000" transform="translate(460.5,118.4375)"/>
<path d="M0 0 C2.70325301 0.72486422 4.47674834 1.98944896 6.0859375 4.27734375 C8.24566653 9.96396972 8.24566653 17.07509278 6.0859375 22.76171875 C4.47674834 25.04961354 2.70325301 26.31419828 0 27.0390625 C-3.97639989 27.3628981 -5.48862066 26.95200804 -8.7734375 24.4765625 C-11.61711351 20.80307659 -11.81109061 17.98527194 -11.6875 13.51953125 C-11.70683594 12.82085937 -11.72617187 12.1221875 -11.74609375 11.40234375 C-11.70932262 7.50460436 -11.17490761 5.66474039 -8.7734375 2.5625 C-5.48862066 0.08705446 -3.97639989 -0.3238356 0 0 Z " fill="#000000" transform="translate(463.0625,195.48046875)"/>
<path d="M0 0 C0.75474609 -0.01095703 1.50949219 -0.02191406 2.28710938 -0.03320312 C5.80339529 0.01326761 8.02890857 0.27539898 10.93359375 2.31640625 C13.38240761 5.97372565 13.22503953 9.32070293 12.4375 13.5625 C10.23918636 16.59465675 8.98786806 17.37904398 5.4375 18.5625 C3.48274991 18.7072963 1.5223862 18.78317502 -0.4375 18.8125 C-1.98050781 18.85117188 -1.98050781 18.85117188 -3.5546875 18.890625 C-7.0017797 18.51457858 -8.79842829 17.62351514 -11.5625 15.5625 C-14.06281654 11.81202518 -14.09853554 10.00393734 -13.5625 5.5625 C-9.56812586 0.16617886 -6.26729725 -0.19904721 0 0 Z " fill="#000000" transform="translate(499.5625,161.4375)"/>
<path d="M0 0 C2.16015625 0.34375 2.16015625 0.34375 4.66015625 1.90625 C6.69042159 5.20543118 7.16015625 7.46445251 7.16015625 11.34375 C4.7386879 16.28758121 0.91707437 20.52233905 -3.83984375 23.34375 C-6.97939182 24.18533988 -8.489693 23.93813158 -11.83984375 23.34375 C-15.47598389 20.84390366 -16.61547416 19.33471567 -17.58984375 15.03125 C-16.52145348 9.77833117 -13.57907432 7.02693214 -9.83984375 3.34375 C-9.3603125 2.78042969 -8.88078125 2.21710938 -8.38671875 1.63671875 C-5.79348153 -0.53086084 -3.24730679 -0.12672417 0 0 Z " fill="#000000" transform="translate(492.83984375,131.65625)"/>
<path d="M0 0 C3.03215675 2.19831364 3.81654398 3.44963194 5 7 C5.1447963 8.95475009 5.22067502 10.9151138 5.25 12.875 C5.27578125 13.90367188 5.3015625 14.93234375 5.328125 15.9921875 C4.95207858 19.4392797 4.06101514 21.23592829 2 24 C-1.75047482 26.50031654 -3.55856266 26.53603554 -8 26 C-10.69495185 24.00518803 -12.66042 22.42333451 -13.46289062 19.05981445 C-13.63687439 16.83154303 -13.63343774 14.67108023 -13.5625 12.4375 C-13.57345703 11.68275391 -13.58441406 10.92800781 -13.59570312 10.15039062 C-13.54923239 6.63410471 -13.28710102 4.40859143 -11.24609375 1.50390625 C-7.58877435 -0.94490761 -4.24179707 -0.78753953 0 0 Z " fill="#000000" transform="translate(431,0)"/>
<path d="M0 0 C5.17677 1.33238179 8.678186 5.11028538 11.6171875 9.42578125 C13.19719236 12.53035219 13.41395298 14.45135078 12.7578125 17.86328125 C11.17048376 21.03793872 9.91708799 23.09558093 6.47265625 24.2578125 C2.29786448 24.58361295 0.06258492 24.08628956 -3.4296875 21.65625 C-11.22654516 14.44637168 -11.22654516 14.44637168 -11.4921875 9.30078125 C-9.83754541 2.32764671 -7.1869977 -0.41509063 0 0 Z " fill="#000000" transform="translate(432.6171875,131.38671875)"/>
</svg>
