<?xml version="1.0" encoding="UTF-8"?>
<svg version="1.1" xmlns="http://www.w3.org/2000/svg" width="512" height="512">
<path d="M0 0 C0 43.23 0 86.46 0 131 C-3.80506211 129.73164596 -6.94913392 128.65017708 -10.44198608 126.89926147 C-11.27311102 126.4850765 -12.10423595 126.07089153 -12.96054649 125.6441555 C-13.85705736 125.19230196 -14.75356823 124.74044842 -15.67724609 124.27490234 C-16.6493635 123.78896418 -17.6214809 123.30302601 -18.62305641 122.80236244 C-21.75839872 121.23394699 -24.89095784 119.66006116 -28.0234375 118.0859375 C-29.96311588 117.1146274 -31.90297495 116.14367807 -33.84301758 115.1730957 C-41.02253531 111.57810127 -48.19855732 107.97612902 -55.375 104.375 C-79.444375 92.309375 -79.444375 92.309375 -104 80 C-106.97 125.54 -109.94 171.08 -113 218 C-116.4876619 217.12808452 -117.9363182 216.57130025 -120.73828125 214.62109375 C-121.46370117 214.12053467 -122.18912109 213.61997559 -122.93652344 213.10424805 C-124.11263184 212.27920776 -124.11263184 212.27920776 -125.3125 211.4375 C-126.14426758 210.86104736 -126.97603516 210.28459473 -127.83300781 209.69067383 C-130.55922838 207.79931418 -133.27957178 205.89967917 -136 204 C-137.85246961 202.71297298 -139.7053371 201.42651846 -141.55859375 200.140625 C-146.38595639 196.7890537 -151.20863977 193.43081934 -156.02978516 190.0703125 C-173.90385452 177.60653633 -173.90385452 177.60653633 -191.84301758 165.23681641 C-198.95737393 160.35489917 -206.03302029 155.41724501 -213.109375 150.48046875 C-214.04523438 149.82820312 -214.98109375 149.1759375 -215.9453125 148.50390625 C-217.19078857 147.63487671 -217.19078857 147.63487671 -218.46142578 146.74829102 C-221.287806 144.80179085 -224.14298017 142.90116634 -227 141 C-227.20808289 141.87039917 -227.41616577 142.74079834 -227.6305542 143.63757324 C-230.73782999 156.36488723 -234.3385687 168.94020734 -237.953125 181.53125 C-238.62024786 183.86244164 -239.28713426 186.19370097 -239.95379639 188.52502441 C-241.69402101 194.60823899 -243.4374188 200.69053954 -245.18151855 206.77264404 C-246.96671018 213.00021558 -248.74884466 219.2286618 -250.53125 225.45703125 C-254.01787128 237.63887026 -257.50774728 249.81977427 -261 262 C-264.59407967 260.61903638 -267.37053858 259.16770449 -270.4140625 256.796875 C-271.24744141 256.15363281 -272.08082031 255.51039063 -272.93945312 254.84765625 C-273.82568359 254.15542969 -274.71191406 253.46320313 -275.625 252.75 C-277.52244277 251.28516892 -279.42090037 249.82165155 -281.3203125 248.359375 C-282.27454102 247.62396484 -283.22876953 246.88855469 -284.21191406 246.13085938 C-288.26741633 243.03134766 -292.37898363 240.01154553 -296.5 237 C-303.2255499 232.07515731 -309.88047836 227.06641235 -316.5 222 C-323.89908419 216.33820422 -331.3512507 210.75875121 -338.86450195 205.24951172 C-347.96427889 198.57269553 -356.98207853 191.78675713 -366 185 C-372.00619553 199.8801394 -377.81793767 214.82964857 -383.5625 229.8125 C-384.43573244 232.0869678 -385.30910669 234.36138116 -386.18261719 236.63574219 C-387.94087721 241.21412148 -389.69848452 245.79275047 -391.45556641 250.37158203 C-394.88662924 259.31147825 -398.32483686 268.24862395 -401.76339722 277.18563843 C-403.31655812 281.22258845 -404.86920675 285.25973548 -406.421875 289.296875 C-406.92805731 290.61295672 -407.4342419 291.92903757 -407.94042969 293.24511719 C-408.46491699 294.60878418 -408.46491699 294.60878418 -409 296 C-412 296 -412 296 -413.85279369 294.5191431 C-414.55059098 293.81987926 -415.24838827 293.12061541 -415.96733093 292.40016174 C-417.17253387 291.20331253 -417.17253387 291.20331253 -418.40208435 289.98228455 C-419.27961868 289.09553543 -420.15715302 288.20878632 -421.0612793 287.29516602 C-421.98830658 286.37018311 -422.91533386 285.4452002 -423.87045288 284.4921875 C-426.41631536 281.95146782 -428.95272519 279.4014971 -431.48744559 276.84966779 C-434.13694329 274.18516184 -436.79451714 271.52873496 -439.4511261 268.87132263 C-443.91068646 264.40806749 -448.36456613 259.9392085 -452.81469727 255.46655273 C-458.53465439 249.71770364 -464.26386038 243.97816526 -469.99605083 238.24151707 C-474.91501693 233.31857698 -479.82971229 228.3913797 -484.74372506 223.46349597 C-486.32809042 221.87502454 -487.91304758 220.2871454 -489.49808311 218.69934273 C-492.4441925 215.747449 -495.38583267 212.79114155 -498.3269043 209.83422852 C-499.65231483 208.50714119 -499.65231483 208.50714119 -501.00450134 207.15324402 C-501.7995105 206.35252472 -502.59451965 205.55180542 -503.41362 204.7268219 C-504.11028621 204.02718102 -504.80695242 203.32754015 -505.52472973 202.60669804 C-507 201 -507 201 -507 200 C-506.16270859 199.92602493 -506.16270859 199.92602493 -505.3085022 199.85055542 C-413.2317229 191.68045572 -323.06613855 174.75776603 -237 140 C-235.34895264 139.33460205 -235.34895264 139.33460205 -233.66455078 138.65576172 C-213.36944408 130.42358807 -193.50397054 121.37649888 -173.78125 111.859375 C-172.16624415 111.08020551 -170.54998959 110.30362557 -168.93359375 109.52734375 C-156.22871443 103.40340911 -143.94926732 96.60716138 -131.72949219 89.56982422 C-129.21261806 88.12228391 -126.68961244 86.68623741 -124.1640625 85.25390625 C-96.00924234 69.2193602 -69.06652932 51.22840299 -43 32 C-42.44070801 31.5884668 -41.88141602 31.17693359 -41.30517578 30.75292969 C-31.63488979 23.6218024 -22.17229514 16.20948772 -12.84765625 8.6328125 C-11.82152222 7.80197144 -11.82152222 7.80197144 -10.7746582 6.9543457 C-9.44546273 5.87646803 -8.11965406 4.79439773 -6.79760742 3.70776367 C-2.22250179 0 -2.22250179 0 0 0 Z " fill="#93CAE2" transform="translate(508,0)"/>
<path d="M0 0 C4.63120016 1.35513247 8.50028422 3.32961324 12.5625 5.875 C13.90514854 6.69581486 15.2489636 7.51472368 16.59375 8.33203125 C17.30917969 8.76725098 18.02460938 9.2024707 18.76171875 9.65087891 C44.9476356 25.43440601 72.06367173 39.59348174 100 52 C101.14678223 52.51014648 102.29356445 53.02029297 103.47509766 53.54589844 C185.92316755 90.01220225 273.41315565 111.51548078 369.375 120.1875 C370.67836304 120.29505615 370.67836304 120.29505615 372.00805664 120.40478516 C390.17155453 121.78531176 408.35256779 122.20214402 426.5625 122.1875 C427.61505981 122.18789276 428.66761963 122.18828552 429.7520752 122.18869019 C448.27457338 122.18049316 466.68540542 121.45987961 485.16357422 120.24365234 C490.71048409 119.89136674 496.26020386 119.62557754 501.8125 119.375 C502.67327148 119.33511963 503.53404297 119.29523926 504.42089844 119.25415039 C506.28054045 119.16815883 508.14025937 119.08383172 510 119 C506.58194041 125.43405098 502.77630008 131.4551474 498.625 137.4375 C497.28309844 139.38880342 495.94200697 141.34066409 494.6015625 143.29296875 C493.8684082 144.35950684 493.13525391 145.42604492 492.37988281 146.52490234 C487.88581227 153.07670008 483.44806482 159.66693503 479 166.25 C478.02438028 167.69322879 477.04871263 169.13642519 476.07299805 170.57958984 C474.5801131 172.78770501 473.0872634 174.9958439 471.59458923 177.20410156 C467.93862486 182.61259287 464.28034221 188.01951145 460.62109375 193.42578125 C459.57486395 194.97167573 458.52863992 196.51757412 457.48242188 198.06347656 C455.9776054 200.287006 454.47271476 202.51048497 452.9675293 204.73376465 C447.95384957 212.13961739 442.94237149 219.54624533 438 227 C434.17650548 225.72550183 433.8637002 224.51923536 431.91796875 221.05859375 C431.32298584 220.0123584 430.72800293 218.96612305 430.11499023 217.88818359 C429.47891846 216.74945801 428.84284668 215.61073242 428.1875 214.4375 C427.51674617 213.25282864 426.84493789 212.06875374 426.17211914 210.88525391 C424.78674451 208.44755767 423.4050022 206.00785636 422.02539062 203.56689453 C419.04611553 198.30715387 415.99207298 193.09125742 412.9375 187.875 C411.77981573 185.89330638 410.62226378 183.91153546 409.46484375 181.9296875 C408.89362793 180.95225586 408.32241211 179.97482422 407.73388672 178.96777344 C405.40378715 174.97950388 403.07647605 170.98961115 400.74951172 166.99951172 C399.59138714 165.01392442 398.43286422 163.02856941 397.27392578 161.04345703 C394.21261142 155.79906716 391.1583079 150.55074106 388.11328125 145.296875 C387.47712891 144.20117188 386.84097656 143.10546875 386.18554688 141.9765625 C384.96474947 139.87358304 383.74590247 137.76946977 382.52929688 135.6640625 C381.97951172 134.71789062 381.42972656 133.77171875 380.86328125 132.796875 C380.38157471 131.96510742 379.89986816 131.13333984 379.40356445 130.27636719 C378.04810544 128.07801968 376.58375485 126.03830508 375 124 C374.45085937 124.64001953 374.45085937 124.64001953 373.890625 125.29296875 C369.54181374 130.31481032 365.06280926 135.20476768 360.5480957 140.07666016 C356.75295049 144.17501508 353.00542038 148.31312048 349.27734375 152.47265625 C346.70190225 155.33082203 344.10314236 158.16710261 341.5 161 C338.14706883 164.64927171 334.81001643 168.31169598 331.5 172 C327.72462783 176.20684327 323.91019552 180.37674853 320.0859375 184.5390625 C316.46992343 188.47829571 312.89102241 192.4494338 309.3203125 196.4296875 C306.68920204 199.34428461 304.03346561 202.23538313 301.375 205.125 C297.17813249 209.68855578 293.04747761 214.3032683 289 219 C286.90451098 216.37780668 285.43875043 214.00135852 284.2644043 210.8605957 C283.79948074 209.63239357 283.79948074 209.63239357 283.32516479 208.37937927 C282.9948526 207.48719193 282.66454041 206.59500458 282.32421875 205.67578125 C281.96603058 204.72522354 281.60784241 203.77466583 281.23880005 202.79530334 C280.45896932 200.72409448 279.68202926 198.65179549 278.90762329 196.57855225 C276.81358418 190.97318335 274.69834318 185.37581104 272.5859375 179.77734375 C272.14101456 178.59646179 271.69609161 177.41557983 271.23768616 176.19891357 C266.08415761 162.53712851 260.82320106 148.91702483 255.55636978 135.29861069 C254.56493296 132.73480381 253.57409553 130.17076544 252.58322906 127.60673809 C250.05722855 121.07048422 247.5294294 114.53492766 245 108 C241.89959601 108 240.53607928 109.84904646 238.1875 111.8125 C237.20136719 112.63363281 236.21523437 113.45476562 235.19921875 114.30078125 C234.13202759 115.19958971 233.06563639 116.09934874 232 117 C231.46842285 117.44907715 230.9368457 117.8981543 230.38916016 118.36083984 C228.20381377 120.20886414 226.01979284 122.05842433 223.83862305 123.91137695 C219.54071796 127.55852723 215.1842225 131.12912122 210.8125 134.6875 C207.68200334 137.26146392 204.58827539 139.87569086 201.5 142.5 C196.65040619 146.62101634 191.74839194 150.66991354 186.8125 154.6875 C183.68200334 157.26146392 180.58827539 159.87569086 177.5 162.5 C172.658156 166.61443082 167.76435748 170.65730439 162.8359375 174.66796875 C159.02329331 177.80315963 155.25926436 180.99413759 151.50195312 184.1953125 C150.00542006 185.46839834 148.50283021 186.73435387 147 188 C146.11054688 188.78761719 145.22109375 189.57523438 144.3046875 190.38671875 C143.54414063 190.91910156 142.78359375 191.45148438 142 192 C141.01 191.67 140.02 191.34 139 191 C138.87207849 190.35854884 138.74415697 189.71709768 138.61235905 189.05620861 C135.50145303 173.45753443 132.38842501 157.85928547 129.27302647 142.26150799 C127.7665032 134.71857348 126.26070189 127.17549619 124.7565918 119.63208008 C123.44580465 113.05822714 122.13367141 106.48464457 120.81991237 99.91138488 C120.12416013 96.43001347 119.42908858 92.94850924 118.73562813 89.46668053 C117.96199288 85.58242989 117.18535284 81.69878347 116.40844727 77.81518555 C116.17827408 76.65712906 115.94810089 75.49907257 115.71095276 74.30592346 C115.39335999 72.72208359 115.39335999 72.72208359 115.0693512 71.10624695 C114.88591439 70.18721934 114.70247759 69.26819174 114.51348209 68.32131481 C114.0114689 65.86129788 114.0114689 65.86129788 113 63 C112.05382812 63.71542969 111.10765625 64.43085938 110.1328125 65.16796875 C99.8545209 72.91948074 89.45424063 80.48818551 79 88 C69.00328001 95.19119592 59.04220002 102.42600851 49.13867188 109.74511719 C42.71966416 114.4837147 36.26139815 119.16616591 29.78515625 123.82617188 C29.08390625 124.33083984 28.38265625 124.83550781 27.66015625 125.35546875 C27.01320801 125.81743652 26.36625977 126.2794043 25.69970703 126.75537109 C24.32362484 127.7630222 22.99511565 128.83542661 21.68359375 129.92578125 C21.12800781 130.28027344 20.57242187 130.63476562 20 131 C19.01 130.67 18.02 130.34 17 130 C14.78025084 113.64115864 12.56353205 97.28190996 10.35042572 80.92216873 C9.32278553 73.32617172 8.29415197 65.73031169 7.26318359 58.13476562 C6.36465648 51.51494713 5.46798934 44.89487982 4.57356024 38.27450633 C4.09984885 34.76868617 3.62520333 31.26299818 3.14833069 27.75760651 C2.61618164 23.84562872 2.08818507 19.9330967 1.56054688 16.02050781 C1.40158432 14.85669586 1.24262177 13.69288391 1.07884216 12.49380493 C0.93580154 11.42812286 0.79276093 10.3624408 0.64538574 9.26446533 C0.5200219 8.33898518 0.39465805 7.41350502 0.2654953 6.45998001 C0 4 0 4 0 0 Z " fill="#FBCC34" transform="translate(1,279)"/>
<path d="M0 0 C4.06575732 2.78278501 6.44877969 6.51242408 7.7578125 11.203125 C8.230672 17.06658283 7.72494287 20.96119468 4.7578125 26.203125 C0.48647864 30.84267729 -3.83836565 32.96668351 -10.0546875 33.578125 C-15.97174366 33.41034458 -20.53655868 30.95363879 -24.6171875 26.765625 C-27.82492816 21.70726473 -29.1412835 17.23039819 -28.2421875 11.203125 C-26.10990641 4.85238512 -22.84351758 1.14978991 -16.9296875 -2.046875 C-10.52091461 -3.83536976 -5.71802328 -3.18415414 0 0 Z " fill="#ED1C24" transform="translate(125.2421875,45.796875)"/>
<path d="M0 0 C4.46876455 3.07848225 8.07974831 6.73924494 9.8125 11.9375 C10.34635142 17.90226294 10.36520149 22.89495595 6.8125 27.9375 C2.08743079 32.78811452 -1.16016994 34.6852225 -7.9375 35.25 C-13.81908259 35.16221519 -18.19763482 32.66554081 -22.5625 28.875 C-25.32011147 23.89008695 -26.73462285 18.31712345 -25.8125 12.62109375 C-23.8963102 6.8834118 -20.46288732 3.4371871 -15.4375 0.125 C-10.07653866 -1.8338128 -5.40644218 -1.80214739 0 0 Z " fill="#05AAE9" transform="translate(53.1875,454.0625)"/>
<path d="M0 0 C4.40514914 2.52855561 7.03179306 5.71924829 8.75 10.5 C9.66242892 16.68521526 9.4752363 22.28466918 5.75 27.5 C1.49292089 31.66247736 -2.31696476 34.4433076 -8.41796875 34.53125 C-15.0435788 34.08732303 -19.12098589 31.91671872 -23.5625 26.875 C-27.21007775 21.74137206 -26.91232123 16.64572488 -26.25 10.5 C-24.59155105 5.67964839 -21.90458463 2.53704075 -17.5 0 C-11.56985524 -2.49690306 -5.93014476 -2.49690306 0 0 Z " fill="#FBCC33" transform="translate(455.25,271.5)"/>
<path d="M0 0 C6.27 0 12.54 0 19 0 C19 8.91 19 17.82 19 27 C12.73 27 6.46 27 0 27 C0 18.09 0 9.18 0 0 Z " fill="#FF1D25" transform="translate(306,235)"/>
<path d="M0 0 C3.15204981 1.39347376 5.26171773 3.02485079 7.671875 5.4765625 C8.66767578 6.48203125 8.66767578 6.48203125 9.68359375 7.5078125 C10.36550781 8.20648438 11.04742187 8.90515625 11.75 9.625 C12.44738281 10.33140625 13.14476562 11.0378125 13.86328125 11.765625 C15.58012488 13.50598703 17.29211832 15.25084981 19 17 C17.21799313 20.85027991 14.92324595 23.2799142 11.875 26.25 C10.96492188 27.14203125 10.05484375 28.0340625 9.1171875 28.953125 C8.41851562 29.62859375 7.71984375 30.3040625 7 31 C3.84795019 29.60652624 1.73828227 27.97514921 -0.671875 25.5234375 C-1.33574219 24.853125 -1.99960938 24.1828125 -2.68359375 23.4921875 C-3.36550781 22.79351562 -4.04742187 22.09484375 -4.75 21.375 C-5.44738281 20.66859375 -6.14476562 19.9621875 -6.86328125 19.234375 C-8.58012488 17.49401297 -10.29211832 15.74915019 -12 14 C-10.21799313 10.14972009 -7.92324595 7.7200858 -4.875 4.75 C-3.96492187 3.85796875 -3.05484375 2.9659375 -2.1171875 2.046875 C-1.41851562 1.37140625 -0.71984375 0.6959375 0 0 Z " fill="#05A9E8" transform="translate(164,281)"/>
<path d="M0 0 C4.06829836 1.6177356 6.84192411 5.08195861 9.88525391 8.13671875 C10.59101563 8.81412109 11.29677734 9.49152344 12.02392578 10.18945312 C13.01682617 11.17848633 13.01682617 11.17848633 14.02978516 12.1875 C14.63798096 12.78860596 15.24617676 13.38971191 15.87280273 14.0090332 C17.07275391 15.82421875 17.07275391 15.82421875 16.91943359 17.87670898 C15.53388428 21.06371211 12.98809646 23.21702021 10.51025391 25.57421875 C9.73004883 26.33412109 9.73004883 26.33412109 8.93408203 27.109375 C7.65365307 28.3545628 6.36407836 29.59033377 5.07275391 30.82421875 C0.57230003 27.12384557 -3.72596959 23.23365513 -7.92724609 19.19921875 C-8.43231689 18.73217529 -8.9373877 18.26513184 -9.45776367 17.78393555 C-12.89301517 14.42975193 -12.89301517 14.42975193 -13.04052734 11.8203125 C-11.44090593 8.95221937 -9.42131111 6.84530064 -7.11474609 4.51171875 C-6.24205078 3.60808594 -5.36935547 2.70445313 -4.47021484 1.7734375 C-1.92724609 -0.17578125 -1.92724609 -0.17578125 0 0 Z " fill="#FBCD32" transform="translate(16.92724609375,72.17578125)"/>
<path d="M0 0 C3.00643606 1.27991528 4.93799603 3.35292971 7.24853516 5.63671875 C8.60398437 6.94576172 8.60398437 6.94576172 9.98681641 8.28125 C11.93603516 10.82421875 11.93603516 10.82421875 11.76025391 12.75146484 C10.14251831 16.8197632 6.6782953 19.59338895 3.62353516 22.63671875 C2.94613281 23.34248047 2.26873047 24.04824219 1.57080078 24.77539062 C0.58176758 25.76829102 0.58176758 25.76829102 -0.42724609 26.78125 C-1.02835205 27.3894458 -1.62945801 27.9976416 -2.2487793 28.62426758 C-4.06396484 29.82421875 -4.06396484 29.82421875 -6.12792969 29.6484375 C-9.13436575 28.36852222 -11.06592571 26.29550779 -13.37646484 24.01171875 C-14.28009766 23.13902344 -15.18373047 22.26632812 -16.11474609 21.3671875 C-18.06396484 18.82421875 -18.06396484 18.82421875 -17.88818359 16.89697266 C-16.27044799 12.8286743 -12.80622499 10.05504855 -9.75146484 7.01171875 C-9.0740625 6.30595703 -8.39666016 5.60019531 -7.69873047 4.87304688 C-7.039375 4.21111328 -6.38001953 3.54917969 -5.70068359 2.8671875 C-5.09957764 2.2589917 -4.49847168 1.6507959 -3.87915039 1.02416992 C-2.06396484 -0.17578125 -2.06396484 -0.17578125 0 0 Z " fill="#7AC943" transform="translate(371.06396484375,325.17578125)"/>
<path d="M0 0 C3.15204981 1.39347376 5.26171773 3.02485079 7.671875 5.4765625 C8.66767578 6.48203125 8.66767578 6.48203125 9.68359375 7.5078125 C10.36550781 8.20648438 11.04742187 8.90515625 11.75 9.625 C12.44738281 10.33140625 13.14476562 11.0378125 13.86328125 11.765625 C15.58012488 13.50598703 17.29211832 15.25084981 19 17 C17.21799313 20.85027991 14.92324595 23.2799142 11.875 26.25 C10.96492188 27.14203125 10.05484375 28.0340625 9.1171875 28.953125 C8.41851562 29.62859375 7.71984375 30.3040625 7 31 C3.84795019 29.60652624 1.73828227 27.97514921 -0.671875 25.5234375 C-1.33574219 24.853125 -1.99960937 24.1828125 -2.68359375 23.4921875 C-3.36550781 22.79351562 -4.04742187 22.09484375 -4.75 21.375 C-5.44738281 20.66859375 -6.14476562 19.9621875 -6.86328125 19.234375 C-8.58012488 17.49401297 -10.29211832 15.74915019 -12 14 C-8 9.33333333 -4 4.66666667 0 0 Z " fill="#79C943" transform="translate(469,150)"/>
<path d="M0 0 C5.94 0 11.88 0 18 0 C18 8.91 18 17.82 18 27 C12.06 27 6.12 27 0 27 C0 18.09 0 9.18 0 0 Z " fill="#79C943" transform="translate(211,462)"/>
<path d="M0 0 C5.94 0 11.88 0 18 0 C18 8.91 18 17.82 18 27 C12.06 27 6.12 27 0 27 C0 18.09 0 9.18 0 0 Z " fill="#FF1D24" transform="translate(350,26)"/>
<path d="M0 0 C3.20569821 1.36008982 5.3528641 3.91417925 7.71337891 6.39550781 C8.21998047 6.91564453 8.72658203 7.43578125 9.24853516 7.97167969 C10.49372296 9.25210865 11.72949392 10.54168336 12.96337891 11.83300781 C7.69236477 18.24370069 1.87209739 24.01891294 -4.03662109 29.83300781 C-7.93947876 28.24633203 -10.37183091 25.699503 -13.28662109 22.70800781 C-14.17865234 21.79792969 -15.07068359 20.88785156 -15.98974609 19.95019531 C-16.66521484 19.25152344 -17.34068359 18.55285156 -18.03662109 17.83300781 C-15.9397054 13.19219894 -12.70833603 10.09972829 -9.16162109 6.52050781 C-8.53642578 5.86244141 -7.91123047 5.204375 -7.26708984 4.52636719 C-6.65736328 3.90955078 -6.04763672 3.29273437 -5.41943359 2.65722656 C-4.86658691 2.09092529 -4.31374023 1.52462402 -3.74414062 0.94116211 C-2.03662109 -0.16699219 -2.03662109 -0.16699219 0 0 Z " fill="#7AC943" transform="translate(170.03662109375,116.1669921875)"/>
<path d="M0 0 C6.41069287 5.27101414 12.18590512 11.09128152 18 17 C16.41332422 20.90285767 13.86649519 23.33520982 10.875 26.25 C9.96492188 27.14203125 9.05484375 28.0340625 8.1171875 28.953125 C7.41851562 29.62859375 6.71984375 30.3040625 6 31 C1.64261331 27.35402338 -2.44178721 23.59867609 -6.421875 19.546875 C-8.16169623 17.84150567 -9.98531012 16.36998912 -12 15 C-11.58685438 10.55073948 -8.49538473 8.15899896 -5.4375 5.25 C-4.91736328 4.74339844 -4.39722656 4.23679687 -3.86132812 3.71484375 C-2.58089916 2.46965595 -1.29132446 1.23388498 0 0 Z " fill="#05AAE9" transform="translate(86,403)"/>
<path d="M0 0 C3.90285767 1.58667578 6.33520982 4.13350481 9.25 7.125 C10.14203125 8.03507812 11.0340625 8.94515625 11.953125 9.8828125 C12.62859375 10.58148438 13.3040625 11.28015625 14 12 C8.72898586 18.41069287 2.90871848 24.18590512 -3 30 C-6.90285767 28.41332422 -9.33520982 25.86649519 -12.25 22.875 C-13.14203125 21.96492188 -14.0340625 21.05484375 -14.953125 20.1171875 C-15.62859375 19.41851562 -16.3040625 18.71984375 -17 18 C-11.72898586 11.58930713 -5.90871848 5.81409488 0 0 Z " fill="#FF1D25" transform="translate(99,482)"/>
<path d="M0 0 C4.53451965 3.83828995 8.84901916 7.74777572 13 12 C11.60652624 15.15204981 9.97514921 17.26171773 7.5234375 19.671875 C6.853125 20.33574219 6.1828125 20.99960937 5.4921875 21.68359375 C4.79351562 22.36550781 4.09484375 23.04742187 3.375 23.75 C2.66859375 24.44738281 1.9621875 25.14476562 1.234375 25.86328125 C-0.50598703 27.58012488 -2.25084981 29.29211832 -4 31 C-8.53451965 27.16171005 -12.84901916 23.25222428 -17 19 C-15.60652624 15.84795019 -13.97514921 13.73828227 -11.5234375 11.328125 C-10.51796875 10.33232422 -10.51796875 10.33232422 -9.4921875 9.31640625 C-8.79351562 8.63449219 -8.09484375 7.95257813 -7.375 7.25 C-6.66859375 6.55261719 -5.9621875 5.85523438 -5.234375 5.13671875 C-3.49401297 3.41987512 -1.74915019 1.70788168 0 0 Z " fill="#06AAE8" transform="translate(370,473)"/>
<path d="M0 0 C4.53451965 3.83828995 8.84901916 7.74777572 13 12 C11.60652624 15.15204981 9.97514921 17.26171773 7.5234375 19.671875 C6.853125 20.33574219 6.1828125 20.99960937 5.4921875 21.68359375 C4.79351562 22.36550781 4.09484375 23.04742188 3.375 23.75 C2.66859375 24.44738281 1.9621875 25.14476563 1.234375 25.86328125 C-0.50598703 27.58012488 -2.25084981 29.29211832 -4 31 C-8.53451965 27.16171005 -12.84901916 23.25222428 -17 19 C-15.60652624 15.84795019 -13.97514921 13.73828227 -11.5234375 11.328125 C-10.51796875 10.33232422 -10.51796875 10.33232422 -9.4921875 9.31640625 C-8.79351562 8.63449219 -8.09484375 7.95257812 -7.375 7.25 C-6.66859375 6.55261719 -5.9621875 5.85523438 -5.234375 5.13671875 C-3.49401297 3.41987512 -1.74915019 1.70788168 0 0 Z " fill="#05A9E8" transform="translate(248,2)"/>
</svg>
