<?xml version="1.0" encoding="UTF-8"?>
<svg version="1.1" xmlns="http://www.w3.org/2000/svg" width="512" height="512">
<path d="M0 0 C0.69706055 0.22913086 1.39412109 0.45826172 2.11230469 0.69433594 C31.66434455 10.61219052 58.01789354 27.07774926 80.48925781 48.55664062 C81.51252583 49.53426838 82.54069027 50.50679224 83.57324219 51.47460938 C92.83464611 60.17864006 100.60459727 69.67579639 108 80 C108.46035645 80.64227539 108.92071289 81.28455078 109.39501953 81.94628906 C127 106.79657043 127 106.79657043 127 114 C127.79019531 113.84402344 128.58039063 113.68804687 129.39453125 113.52734375 C150.65967091 109.85758822 170.75256612 113.24936284 189 125 C191.83258512 127.08435509 194.50674322 129.26435022 197.16796875 131.5625 C200.48994796 134.42169314 203.9184851 137.11898878 207.375 139.8125 C209.07070221 141.13819676 210.76592622 142.46432194 212.45605469 143.79711914 C213.90326875 144.92463711 215.37664793 146.01834231 216.8515625 147.109375 C219 149 219 149 220 152.4375 C220 156.37108373 219.41868244 157.95425175 217 161 C213.89548806 162.55225597 211.33549064 162.70315749 208 162 C201.50726647 158.8830737 196.08388079 154.31431382 190.6875 149.625 C177.91807801 138.55245422 163.95379025 129.83422012 146.5 129.875 C144.84484375 129.87113281 144.84484375 129.87113281 143.15625 129.8671875 C140.31507756 129.98674179 137.76192358 130.35074185 135 131 C135.38671875 132.23492187 135.7734375 133.46984375 136.171875 134.7421875 C138.84545425 143.39220501 141.38823876 152.03855443 143.375 160.875 C143.54225586 161.60444824 143.70951172 162.33389648 143.88183594 163.08544922 C144.75732861 167.1230708 145.16825289 170.87133303 145 175 C146.38058594 175.03867187 146.38058594 175.03867187 147.7890625 175.078125 C166.5873104 175.92040902 182.65586617 182.00492244 196.890625 194.36328125 C199.38861502 196.52723772 201.97983329 198.54110013 204.609375 200.54296875 C205.42494873 201.16478027 206.24052246 201.7865918 207.08081055 202.42724609 C208.71119157 203.66579034 210.34536912 204.89935581 211.98364258 206.12744141 C212.73282959 206.70026855 213.4820166 207.2730957 214.25390625 207.86328125 C214.92752197 208.37157471 215.6011377 208.87986816 216.29516602 209.40356445 C218.178431 211.16708583 219.08485011 212.59585262 220 215 C219.85411447 218.5012527 219.35842363 220.47615008 217.375 223.375 C213.84549167 225.78992675 212.24445497 225.74109531 208 225 C201.24551005 221.76530108 195.6996996 216.96958933 190.125 212.0625 C177.06104503 200.60301548 163.98286188 195.28646116 147 192 C147.01047363 192.93158936 147.02094727 193.86317871 147.03173828 194.82299805 C147.06621854 198.34369477 147.09108967 201.86420707 147.10986328 205.38500977 C147.11980161 206.89675767 147.13335698 208.40848699 147.15087891 209.92016602 C147.25914856 219.51476826 146.8319455 228.54596334 145 238 C146.38058594 238.03867187 146.38058594 238.03867187 147.7890625 238.078125 C167.0611813 238.94164152 182.32535056 245.47501887 197.22900391 257.56445312 C199.13744392 259.11141029 201.05780334 260.64264004 202.98046875 262.171875 C206.12705864 264.67717722 209.26982258 267.1869132 212.39453125 269.71948242 C213.86295675 270.89069467 215.36745825 272.01630389 216.875 273.13671875 C219 275 219 275 220 278.4375 C220 282.37108373 219.41868244 283.95425175 217 287 C213.89466883 288.55266559 211.33669291 288.69865772 208 288 C200.48486942 284.4491616 194.39172148 278.85207342 188.2019043 273.42285156 C174.45551619 261.4694706 160.20427282 255.7299737 142 256 C141.76047607 256.86443726 141.76047607 256.86443726 141.51611328 257.74633789 C133.7536646 285.37248418 122.44240522 311.10864505 105 334 C104.00033203 335.31871094 104.00033203 335.31871094 102.98046875 336.6640625 C97.69307751 343.44829159 91.90345158 349.75527383 86 356 C85.31212402 356.73887451 85.31212402 356.73887451 84.61035156 357.49267578 C76.23703765 366.44804433 66.93561348 373.84320634 57 381 C56.37754395 381.45117188 55.75508789 381.90234375 55.11376953 382.3671875 C38.25011044 394.46174333 19.63511506 403.40339691 0 410 C-0.83966309 410.28214355 -1.67932617 410.56428711 -2.54443359 410.85498047 C-56.54685009 428.54309102 -115.58572686 422.41007037 -166.26269531 397.58813477 C-175.27896433 393.01994004 -183.78904666 387.88908429 -192 382 C-192.58668457 381.58008789 -193.17336914 381.16017578 -193.77783203 380.72753906 C-201.07293177 375.44039747 -207.79389088 369.61729513 -214.34375 363.4453125 C-216.94458003 360.99200723 -216.94458003 360.99200723 -219.65234375 358.890625 C-221.71336811 357.23083167 -223.35781924 355.63425039 -225.0625 353.625 C-227.27306344 351.02518517 -229.4925799 348.43975577 -231.765625 345.89453125 C-268.90606012 303.98010594 -286.86664909 247.4026909 -283.72265625 191.78515625 C-280.46236816 142.68930364 -261.37123066 96.40016519 -227.984375 60.171875 C-226.23881698 58.26138237 -224.58142549 56.30995786 -222.9375 54.3125 C-220.33328146 51.26365879 -217.49993236 48.65874257 -214.44140625 46.0703125 C-212.57019703 44.48352708 -210.73170228 42.87603784 -208.90234375 41.2421875 C-152.79809767 -8.4847414 -70.72002862 -23.43367855 0 0 Z " fill="#FEE1E1" transform="translate(288,51)"/>
<path d="M0 0 C0.69706055 0.22913086 1.39412109 0.45826172 2.11230469 0.69433594 C31.66434455 10.61219052 58.01789354 27.07774926 80.48925781 48.55664062 C81.51252583 49.53426838 82.54069027 50.50679224 83.57324219 51.47460938 C92.83464611 60.17864006 100.60459727 69.67579639 108 80 C108.46035645 80.64227539 108.92071289 81.28455078 109.39501953 81.94628906 C127 106.79657043 127 106.79657043 127 114 C127.79019531 113.84402344 128.58039063 113.68804687 129.39453125 113.52734375 C150.65967091 109.85758822 170.75256612 113.24936284 189 125 C191.83258512 127.08435509 194.50674322 129.26435022 197.16796875 131.5625 C200.48994796 134.42169314 203.9184851 137.11898878 207.375 139.8125 C209.07070221 141.13819676 210.76592622 142.46432194 212.45605469 143.79711914 C213.90326875 144.92463711 215.37664793 146.01834231 216.8515625 147.109375 C219 149 219 149 220 152.4375 C220 156.37108373 219.41868244 157.95425175 217 161 C213.89548806 162.55225597 211.33549064 162.70315749 208 162 C201.50726647 158.8830737 196.08388079 154.31431382 190.6875 149.625 C177.91807801 138.55245422 163.95379025 129.83422012 146.5 129.875 C144.84484375 129.87113281 144.84484375 129.87113281 143.15625 129.8671875 C140.31507756 129.98674179 137.76192358 130.35074185 135 131 C135.38671875 132.23492187 135.7734375 133.46984375 136.171875 134.7421875 C138.84545425 143.39220501 141.38823876 152.03855443 143.375 160.875 C143.54225586 161.60444824 143.70951172 162.33389648 143.88183594 163.08544922 C144.75732861 167.1230708 145.16825289 170.87133303 145 175 C146.38058594 175.03867187 146.38058594 175.03867187 147.7890625 175.078125 C166.5873104 175.92040902 182.65586617 182.00492244 196.890625 194.36328125 C199.38861502 196.52723772 201.97983329 198.54110013 204.609375 200.54296875 C205.42494873 201.16478027 206.24052246 201.7865918 207.08081055 202.42724609 C208.71119157 203.66579034 210.34536912 204.89935581 211.98364258 206.12744141 C212.73282959 206.70026855 213.4820166 207.2730957 214.25390625 207.86328125 C214.92752197 208.37157471 215.6011377 208.87986816 216.29516602 209.40356445 C218.178431 211.16708583 219.08485011 212.59585262 220 215 C219.85411447 218.5012527 219.35842363 220.47615008 217.375 223.375 C213.84549167 225.78992675 212.24445497 225.74109531 208 225 C201.24551005 221.76530108 195.6996996 216.96958933 190.125 212.0625 C177.06104503 200.60301548 163.98286188 195.28646116 147 192 C147.01047363 192.93158936 147.02094727 193.86317871 147.03173828 194.82299805 C147.06621854 198.34369477 147.09108967 201.86420707 147.10986328 205.38500977 C147.11980161 206.89675767 147.13335698 208.40848699 147.15087891 209.92016602 C147.25914856 219.51476826 146.8319455 228.54596334 145 238 C146.38058594 238.03867187 146.38058594 238.03867187 147.7890625 238.078125 C167.0611813 238.94164152 182.32535056 245.47501887 197.22900391 257.56445312 C199.13744392 259.11141029 201.05780334 260.64264004 202.98046875 262.171875 C206.12705864 264.67717722 209.26982258 267.1869132 212.39453125 269.71948242 C213.86295675 270.89069467 215.36745825 272.01630389 216.875 273.13671875 C219 275 219 275 220 278.4375 C220 282.37108373 219.41868244 283.95425175 217 287 C213.89466883 288.55266559 211.33669291 288.69865772 208 288 C200.48486942 284.4491616 194.39172148 278.85207342 188.2019043 273.42285156 C174.45551619 261.4694706 160.20427282 255.7299737 142 256 C141.76047607 256.86443726 141.76047607 256.86443726 141.51611328 257.74633789 C133.7536646 285.37248418 122.44240522 311.10864505 105 334 C104.00033203 335.31871094 104.00033203 335.31871094 102.98046875 336.6640625 C97.69307751 343.44829159 91.90345158 349.75527383 86 356 C85.31212402 356.73887451 85.31212402 356.73887451 84.61035156 357.49267578 C76.23703765 366.44804433 66.93561348 373.84320634 57 381 C56.37754395 381.45117188 55.75508789 381.90234375 55.11376953 382.3671875 C38.25011044 394.46174333 19.63511506 403.40339691 0 410 C-0.83966309 410.28214355 -1.67932617 410.56428711 -2.54443359 410.85498047 C-56.54685009 428.54309102 -115.58572686 422.41007037 -166.26269531 397.58813477 C-175.27896433 393.01994004 -183.78904666 387.88908429 -192 382 C-192.58668457 381.58008789 -193.17336914 381.16017578 -193.77783203 380.72753906 C-201.07293177 375.44039747 -207.79389088 369.61729513 -214.34375 363.4453125 C-216.94458003 360.99200723 -216.94458003 360.99200723 -219.65234375 358.890625 C-221.71336811 357.23083167 -223.35781924 355.63425039 -225.0625 353.625 C-227.27306344 351.02518517 -229.4925799 348.43975577 -231.765625 345.89453125 C-268.90606012 303.98010594 -286.86664909 247.4026909 -283.72265625 191.78515625 C-280.46236816 142.68930364 -261.37123066 96.40016519 -227.984375 60.171875 C-226.23881698 58.26138237 -224.58142549 56.30995786 -222.9375 54.3125 C-220.33328146 51.26365879 -217.49993236 48.65874257 -214.44140625 46.0703125 C-212.57019703 44.48352708 -210.73170228 42.87603784 -208.90234375 41.2421875 C-152.79809767 -8.4847414 -70.72002862 -23.43367855 0 0 Z M-173 80 C-173.85078125 80.74121094 -174.7015625 81.48242188 -175.578125 82.24609375 C-178.08472707 84.4643597 -180.54867255 86.72090634 -183 89 C-183.72703125 89.66128906 -184.4540625 90.32257813 -185.203125 91.00390625 C-211.19686245 115.64185524 -229.4355633 154.77840642 -231.17114258 190.52490234 C-231.23118847 194.16472125 -231.2243076 197.79742256 -231.1875 201.4375 C-231.18685547 202.64470703 -231.18621094 203.85191406 -231.18554688 205.09570312 C-230.97011935 249.83281889 -214.03591862 289.05526971 -183 321 C-182.47083984 321.55179932 -181.94167969 322.10359863 -181.39648438 322.67211914 C-161.57394921 343.00701644 -134.49752075 357.40206942 -107 364 C-106.24460937 364.19980469 -105.48921875 364.39960938 -104.7109375 364.60546875 C-102.48211623 365.16058716 -100.26188319 365.59915994 -98 366 C-96.9584375 366.185625 -95.916875 366.37125 -94.84375 366.5625 C-51.49870596 373.11889322 -7.36843635 362.96833009 28 337 C31.44026319 334.44451714 34.75035916 331.79355089 38 329 C38.94230469 328.19175781 39.88460938 327.38351562 40.85546875 326.55078125 C51.30571208 317.38064591 60.79896526 306.9385576 68 295 C64.76662339 293.94877256 62.69705666 294.10463544 59.41796875 294.9140625 C40.73707869 298.97110986 21.32972984 295.8994844 5 286 C1.43936519 283.55951135 -1.98094441 280.97828602 -5.36132812 278.29443359 C-7.16044224 276.8732621 -8.9773244 275.47692842 -10.796875 274.08203125 C-12.07338376 273.09695916 -13.3494333 272.11129167 -14.625 271.125 C-15.22940918 270.6606958 -15.83381836 270.1963916 -16.45654297 269.71801758 C-19.15309474 267.60943284 -21.08399439 265.87400842 -23 263 C-22.8684799 259.31743715 -22.73329557 256.90251763 -20.375 254 C-16.87933701 252.5281419 -14.66890067 253.13830621 -11 254 C-8.69585317 255.63067108 -6.78780424 257.15761668 -4.75 259.0625 C-3.61305978 260.0704025 -2.47370186 261.07558387 -1.33203125 262.078125 C-0.77080566 262.57505859 -0.20958008 263.07199219 0.36865234 263.58398438 C16.4183649 277.51519252 32.18728328 282.03512983 53 281 C63.07418737 279.92441007 74.95333446 275.44100449 82 268 C83.87387123 265.15562218 84.92461313 262.22164218 86 259 C86.61488281 257.26556641 86.61488281 257.26556641 87.2421875 255.49609375 C89.71451016 248.26606196 91.53901999 241.03508328 92.8125 233.5 C92.93633057 232.77111572 93.06016113 232.04223145 93.18774414 231.29125977 C93.93547984 226.47967133 94.10416076 221.868145 94 217 C90.63693956 218.23564786 87.94076727 219.62977144 85.0625 221.75 C73.08639294 229.8937528 60.1397986 233.40389365 45.8125 233.3125 C44.90338867 233.30831055 43.99427734 233.30412109 43.05761719 233.29980469 C31.82096843 233.11378056 20.97845164 231.41887795 11 226 C10.09121094 225.52949219 9.18242187 225.05898438 8.24609375 224.57421875 C1.04894178 220.64252817 -4.94080102 215.89693535 -11.0703125 210.5234375 C-13.38556624 208.52923228 -15.67158239 206.72251621 -18.1875 205 C-21 203 -21 203 -23 200 C-22.8684799 196.31743715 -22.73329557 193.90251763 -20.375 191 C-16.85429266 189.51759691 -14.69599117 190.10562365 -11 191 C-8.47633343 192.61222311 -6.36439715 194.57727731 -4.1875 196.625 C-2.95718344 197.72704328 -1.724102 198.82600762 -0.48828125 199.921875 C0.10774902 200.45361328 0.7037793 200.98535156 1.31787109 201.53320312 C13.06167628 211.77366489 26.56824877 218.44131864 42.25 218.25 C43.0862793 218.24033203 43.92255859 218.23066406 44.78417969 218.22070312 C63.48541587 217.85953595 79.28379995 210.58016989 92.76074219 197.46533203 C94.53666086 195.36543765 95.0002047 193.79904349 95.0625 191.0625 C94.67333481 188.57261574 94.67333481 188.57261574 94 186 C93.72516616 183.91719064 93.45459134 181.83381638 93.1875 179.75 C91.48841169 169.28757077 91.48841169 169.28757077 89 159 C88.34 158.67 87.68 158.34 87 158 C84.55224765 159.16803965 82.19334171 160.39528973 79.8125 161.6875 C62.3955511 170.64869096 42.13802575 173.34861855 23 168 C9.94824105 163.5978257 -0.81084017 156.52006092 -11.0703125 147.5234375 C-13.38556624 145.52923228 -15.67158239 143.72251621 -18.1875 142 C-21 140 -21 140 -23 137 C-22.78087649 130.86454183 -22.78087649 130.86454183 -20.25 128.0625 C-17.43929189 126.73522117 -16.09824789 126.58049112 -13 127 C-10.64669736 128.57180639 -8.58507148 130.12296638 -6.4375 131.9375 C-5.18948821 132.951366 -3.94077877 133.96437378 -2.69140625 134.9765625 C-2.07023926 135.48606445 -1.44907227 135.99556641 -0.80908203 136.52050781 C12.5742148 147.46555219 25.202095 155.45151545 42.875 155.25 C43.76413086 155.24033203 44.65326172 155.23066406 45.56933594 155.22070312 C59.45842801 154.96548276 70.4090079 150.72732807 82 143 C81.40510024 137.81289153 78.97401131 133.60317069 76.5625 129.0625 C75.89033447 127.79660034 75.89033447 127.79660034 75.20458984 126.50512695 C68.08545839 113.37121339 58.95591056 102.08216144 49 91 C48.35933594 90.27425781 47.71867187 89.54851562 47.05859375 88.80078125 C20.99146761 60.98418356 -20.39219362 43.42389545 -58.07373047 41.87353516 C-100.43692393 40.84856654 -140.64865565 51.51675117 -173 80 Z " fill="#60276E" transform="translate(288,51)"/>
<path d="M0 0 C1.38632021 0.21096903 2.77306294 0.4191753 4.16015625 0.625 C14.11023636 2.16165721 23.50304469 4.68285922 33 8 C33.65323242 8.22558594 34.30646484 8.45117188 34.97949219 8.68359375 C81.50698406 24.91891373 119.7917368 57.09252197 144 100 C144.93392578 101.6396875 144.93392578 101.6396875 145.88671875 103.3125 C150 110.67613636 150 110.67613636 150 113 C148.15277176 114.22264708 146.24452115 115.35379694 144.3125 116.4375 C143.25675781 117.03433594 142.20101563 117.63117188 141.11328125 118.24609375 C140.08589844 118.82488281 139.05851562 119.40367187 138 120 C136.32976408 120.99402704 134.66175012 121.99185104 133 123 C132.3709375 121.83984375 131.741875 120.6796875 131.09375 119.484375 C126.11896143 110.37387169 121.08012183 101.43261757 115 93 C114.23816406 91.94039063 113.47632813 90.88078125 112.69140625 89.7890625 C86.28249282 54.17516871 44.58559719 27.62131249 0.4375 21 C-2.37059487 20.60785025 -5.17961805 20.28904536 -8 20 C-8.76103027 19.91081299 -9.52206055 19.82162598 -10.30615234 19.72973633 C-37.58863018 16.68045398 -65.17809606 19.69079269 -91 29 C-91.77327637 29.2779541 -92.54655273 29.5559082 -93.34326172 29.84228516 C-113.65534001 37.34754087 -131.79954635 48.71808108 -148 63 C-148.54833496 63.47147461 -149.09666992 63.94294922 -149.66162109 64.42871094 C-161.67786677 74.76187551 -171.46423453 86.66468723 -180 100 C-180.40605469 100.63389648 -180.81210938 101.26779297 -181.23046875 101.92089844 C-191.34311761 117.92222052 -198.16279092 134.74045884 -203 153 C-203.29648438 154.07894531 -203.59296875 155.15789062 -203.8984375 156.26953125 C-207.20124455 168.74498561 -208.38392616 181.00132044 -208.3125 193.875 C-208.31001251 194.5947702 -208.30752502 195.31454041 -208.30496216 196.05612183 C-208.03954391 246.00783577 -189.18326875 291.0860003 -153.70605469 326.35351562 C-149.69744838 330.22215342 -145.47115365 333.68410253 -141 337 C-140.47083984 337.39880371 -139.94167969 337.79760742 -139.39648438 338.20849609 C-130.97178768 344.53673568 -122.27278765 350.00776557 -113 355 C-111.96101563 355.58394531 -110.92203125 356.16789062 -109.8515625 356.76953125 C-94.51915865 364.99260014 -77.16889775 370.36624752 -60 373 C-58.91332031 373.20238281 -57.82664063 373.40476562 -56.70703125 373.61328125 C-38.18555493 376.68972986 -18.50639857 375.8911883 0 373 C1.19496094 372.82855469 2.38992187 372.65710938 3.62109375 372.48046875 C46.91439072 365.1305662 87.92391716 338.33387243 113.80981445 303.17626953 C119.97080202 294.47273713 125.35456237 285.11920442 130.21313477 275.63085938 C132.86677986 270.54686694 135.57300427 266.9378431 140.0625 263.375 C140.62106689 262.91697998 141.17963379 262.45895996 141.75512695 261.98706055 C155.49136589 251 155.49136589 251 161 251 C159.80229867 257.09649612 158.16733408 262.79038473 155.875 268.5625 C155.41649658 269.72422729 155.41649658 269.72422729 154.94873047 270.90942383 C147.49414885 289.42509478 137.63996653 306.55729837 125 322 C124.54786133 322.56041992 124.09572266 323.12083984 123.62988281 323.69824219 C100.44008239 352.31029239 70.29875682 372.14369446 36 385 C35.18136475 385.31952637 34.36272949 385.63905273 33.51928711 385.96826172 C26.83106576 388.51484551 20.20115136 390.23597719 13.1875 391.625 C11.72086914 391.93050781 11.72086914 391.93050781 10.22460938 392.2421875 C-3.27219635 394.98909121 -16.31951216 396.38224905 -30.0625 396.3125 C-30.82968353 396.31034485 -31.59686707 396.3081897 -32.38729858 396.30596924 C-85.22335028 396.06854085 -133.0247754 374.14040408 -171 338 C-171.70511719 337.34773438 -172.41023438 336.69546875 -173.13671875 336.0234375 C-187.59705256 322.23772373 -198.73583232 304.55801258 -208 287 C-208.59554687 285.87722656 -209.19109375 284.75445312 -209.8046875 283.59765625 C-223.41686446 256.21648001 -229.22341386 226.93604028 -229.25 196.5625 C-229.25067474 195.86168304 -229.25134949 195.16086609 -229.25204468 194.43881226 C-229.23376669 182.40967619 -228.39248457 170.80465073 -226 159 C-225.83371094 158.14970215 -225.66742188 157.2994043 -225.49609375 156.42333984 C-220.1676155 129.84508766 -209.14735722 103.85956462 -193 82 C-192.24460938 80.96230469 -191.48921875 79.92460937 -190.7109375 78.85546875 C-185.07163753 71.24536037 -178.87906848 64.23697877 -172.33398438 57.39697266 C-171.19641327 56.20568754 -170.07321776 55.00070236 -168.953125 53.79296875 C-151.41682296 35.3948399 -128.09569619 22.08689922 -105 12 C-104.00355469 11.56042969 -103.00710937 11.12085937 -101.98046875 10.66796875 C-70.52641075 -2.31765152 -33.48810898 -5.97335277 0 0 Z " fill="#FCE7E7" transform="translate(250,59)"/>
<path d="M0 0 C1.38632021 0.21096903 2.77306294 0.4191753 4.16015625 0.625 C14.11023636 2.16165721 23.50304469 4.68285922 33 8 C33.65323242 8.22558594 34.30646484 8.45117188 34.97949219 8.68359375 C81.50698406 24.91891373 119.7917368 57.09252197 144 100 C144.93392578 101.6396875 144.93392578 101.6396875 145.88671875 103.3125 C150 110.67613636 150 110.67613636 150 113 C148.15277176 114.22264708 146.24452115 115.35379694 144.3125 116.4375 C143.25675781 117.03433594 142.20101563 117.63117188 141.11328125 118.24609375 C140.08589844 118.82488281 139.05851562 119.40367187 138 120 C136.32976408 120.99402704 134.66175012 121.99185104 133 123 C132.3709375 121.83984375 131.741875 120.6796875 131.09375 119.484375 C126.11896143 110.37387169 121.08012183 101.43261757 115 93 C114.23816406 91.94039063 113.47632813 90.88078125 112.69140625 89.7890625 C86.28249282 54.17516871 44.58559719 27.62131249 0.4375 21 C-2.37059487 20.60785025 -5.17961805 20.28904536 -8 20 C-8.76103027 19.91081299 -9.52206055 19.82162598 -10.30615234 19.72973633 C-37.58863018 16.68045398 -65.17809606 19.69079269 -91 29 C-91.77327637 29.2779541 -92.54655273 29.5559082 -93.34326172 29.84228516 C-113.65534001 37.34754087 -131.79954635 48.71808108 -148 63 C-148.54833496 63.47147461 -149.09666992 63.94294922 -149.66162109 64.42871094 C-164.6927016 77.35443107 -176.140478 92.87149707 -186 110 C-187 107 -187 107 -185.515625 103.55078125 C-184.77424861 102.13071341 -184.01792904 100.71838641 -183.25 99.3125 C-182.84458984 98.56081543 -182.43917969 97.80913086 -182.02148438 97.03466797 C-175.28544905 84.81218809 -167.1293439 73.54398097 -158 63 C-157.29488281 62.18402344 -156.58976562 61.36804688 -155.86328125 60.52734375 C-136.12633556 38.16825446 -111.91660226 18.71842698 -84.07421875 7.37890625 C-80.91109425 6.34974548 -80.91109425 6.34974548 -80 4 C-57.10974337 -5.67265269 -23.97872826 -4.27714216 0 0 Z " fill="#FCDFE0" transform="translate(250,59)"/>
<path d="M0 0 C-1.19770133 6.09649612 -2.83266592 11.79038473 -5.125 17.5625 C-5.43066895 18.33698486 -5.73633789 19.11146973 -6.05126953 19.90942383 C-13.50585115 38.42509478 -23.36003347 55.55729837 -36 71 C-36.45213867 71.56041992 -36.90427734 72.12083984 -37.37011719 72.69824219 C-60.60721516 101.36864907 -90.69872612 121.02113961 -125 134 C-126.50046875 134.5878125 -126.50046875 134.5878125 -128.03125 135.1875 C-133.94355876 137.44613481 -139.75542874 138.97052621 -146 140 C-142.89801259 136.60918033 -139.23902616 135.27692859 -135.0625 133.5625 C-119.44606547 126.86860447 -105.03435437 117.88348413 -92 107 C-91.42024414 106.52030762 -90.84048828 106.04061523 -90.24316406 105.54638672 C-70.70409873 89.31946941 -54.2007833 70.36116256 -42 48 C-42.99 48.495 -42.99 48.495 -44 49 C-42.43786438 44.62934397 -40.17812122 40.80538315 -37.75 36.875 C-35.00036251 32.41254485 -32.49239971 27.99458964 -30.25 23.25 C-25.67732342 14.76149542 -10.15532128 0 0 0 Z " fill="#FCCDCE" transform="translate(411,310)"/>
<path d="M0 0 C49.26053645 10.51291936 93.78232437 41.96305956 121.31542969 84.00878906 C123.99894151 88.26984212 126.52588526 92.61480215 129 97 C129.93392578 98.6396875 129.93392578 98.6396875 130.88671875 100.3125 C135 107.67613636 135 107.67613636 135 110 C133.15277176 111.22264708 131.24452115 112.35379694 129.3125 113.4375 C128.25675781 114.03433594 127.20101562 114.63117188 126.11328125 115.24609375 C125.08589844 115.82488281 124.05851562 116.40367187 123 117 C121.32976408 117.99402704 119.66175012 118.99185104 118 120 C116.3700395 117.10693236 114.74692832 114.21007717 113.125 111.3125 C112.66480469 110.49587891 112.20460938 109.67925781 111.73046875 108.83789062 C109.04699164 104.03485552 106.72915362 99.44619277 105.15234375 94.15625 C103.730994 90.26319714 101.77626018 86.98882799 99.5625 83.5 C99.12147949 82.80221436 98.68045898 82.10442871 98.22607422 81.38549805 C90.38206013 69.19121972 80.99454388 58.46105017 71 48 C70.32582031 47.27296875 69.65164063 46.5459375 68.95703125 45.796875 C63.44043681 40.00974395 57.17271851 35.18487522 50.81152344 30.37158203 C49.65425384 29.49536362 48.50083867 28.61401544 47.35253906 27.72607422 C33.00021893 16.65641886 16.61642762 8.14819905 0 1 C0 0.67 0 0.34 0 0 Z " fill="#FCCCCD" transform="translate(265,62)"/>
<path d="M0 0 C4.11732916 4.24150258 6.60016757 8.79513136 9.1875 14.0625 C13.31402525 22.14996382 18.19462195 29.04716029 24 36 C24.59425781 36.74636719 25.18851563 37.49273437 25.80078125 38.26171875 C33.93327957 48.14105441 44.90360029 55.40959352 55.5625 62.3125 C58 64 58 64 59 66 C59.35173852 69.79877599 59.52701444 72.14360153 57.5 75.4375 C54.02971678 77.60642702 50.93824841 77.6744174 47 77 C43.9875738 75.61162359 41.44832624 73.75023693 38.8125 71.75 C38.07636475 71.20931885 37.34022949 70.6686377 36.58178711 70.11157227 C29.59134564 64.88256151 23.16070585 59.17550507 17 53 C16.14148438 52.15308594 15.28296875 51.30617188 14.3984375 50.43359375 C4.48374677 40.12546291 -10.70062094 22.34444018 -11.625 7.5 C-11 4 -11 4 -9.4375 1.5 C-5.97981448 -0.62780647 -3.98743781 -0.69955049 0 0 Z " fill="#61286E" transform="translate(103,300)"/>
<path d="M0 0 C0.41310561 15.95011338 -0.49197794 31.24037203 -3 47 C-4.53720703 47.48919922 -4.53720703 47.48919922 -6.10546875 47.98828125 C-7.46625123 48.42936247 -8.82692249 48.87078693 -10.1875 49.3125 C-10.86103516 49.52583984 -11.53457031 49.73917969 -12.22851562 49.95898438 C-16.17167303 51.24772363 -19.45995396 52.793134 -23 55 C-23.66 55 -24.32 55 -25 55 C-24.48703768 50.1959106 -23.93305095 45.40449397 -23.28125 40.6171875 C-23.15484131 39.68447021 -23.02843262 38.75175293 -22.89819336 37.79077148 C-22.62670396 35.80278991 -22.35131278 33.81533822 -22.07250977 31.82836914 C-21.46422316 27.32762449 -20.91640734 22.92521809 -20.93359375 18.37890625 C-20.9429161 8.97265557 -20.9429161 8.97265557 -17.89453125 5.828125 C-15.30098458 4.21913002 -12.85750601 3.06099705 -10 2 C-9.16984375 1.62488281 -8.3396875 1.24976563 -7.484375 0.86328125 C-4.81849852 -0.06306891 -2.7983656 -0.06439388 0 0 Z " fill="#FCCCCD" transform="translate(419,245)"/>
<path d="M0 0 C5.36265389 13.06210668 9.64215498 27.81632484 10 42 C8.69675781 42.39832031 8.69675781 42.39832031 7.3671875 42.8046875 C6.21476562 43.15789062 5.06234375 43.51109375 3.875 43.875 C2.16957031 44.39707031 2.16957031 44.39707031 0.4296875 44.9296875 C-2.72751664 45.91496533 -5.86627606 46.94272536 -9 48 C-9.15855469 47.30519531 -9.31710937 46.61039063 -9.48046875 45.89453125 C-9.83044922 44.36892578 -9.83044922 44.36892578 -10.1875 42.8125 C-10.45433594 41.64332031 -10.72117187 40.47414062 -10.99609375 39.26953125 C-11.74236962 36.04863884 -12.53820176 32.84229429 -13.34765625 29.63671875 C-13.57880127 28.70690186 -13.80994629 27.77708496 -14.0480957 26.8190918 C-14.5108844 24.9603714 -14.98189693 23.10367658 -15.46166992 21.24926758 C-15.6754126 20.38325928 -15.88915527 19.51725098 -16.109375 18.625 C-16.40279785 17.46871094 -16.40279785 17.46871094 -16.70214844 16.2890625 C-17.05529805 13.57502089 -16.78855187 11.6167192 -16 9 C-13.56640625 6.796875 -13.56640625 6.796875 -10.5625 4.75 C-9.57378906 4.06421875 -8.58507812 3.3784375 -7.56640625 2.671875 C-3.46495327 0 -3.46495327 0 0 0 Z " fill="#FCCBCD" transform="translate(407,187)"/>
<path d="M0 0 C3.82101282 1.18104033 5.05975895 1.89725925 7.4375 5.0625 C7.87087015 7.84550288 8.08747108 10.27551614 8.125 13.0625 C8.17103791 14.5886077 8.21922801 16.11465194 8.26953125 17.640625 C8.30167725 18.76500977 8.30167725 18.76500977 8.33447266 19.91210938 C8.47781928 22.90404548 8.91029518 25.84577823 9.3125 28.8125 C9.66590249 32.89626207 9.66313064 33.7069608 7.375 37.3125 C3.9120861 39.37551254 2.38852533 39.88563028 -1.5625 39.0625 C-4.73152615 37.045847 -6.18807918 35.25754262 -7.31640625 31.65625 C-8.5166461 25.54593803 -8.82546766 19.33861873 -9 13.125 C-9.03456299 12.40344727 -9.06912598 11.68189453 -9.10473633 10.93847656 C-9.13565567 6.98633909 -8.69063871 5.22929751 -6.2578125 2.0625 C-3.5625 0.0625 -3.5625 0.0625 0 0 Z " fill="#62296F" transform="translate(89.5625,247.9375)"/>
<path d="M0 0 C0.66 0.33 1.32 0.66 2 1 C1.26420788 2.46555316 0.51074874 3.92224487 -0.25 5.375 C-0.87648438 6.59316406 -0.87648438 6.59316406 -1.515625 7.8359375 C-3.14267975 10.20801205 -4.35386639 10.97094804 -7 12 C-5.44298069 7.32894208 -2.91552627 3.91294315 0 0 Z " fill="#F6D6D9" transform="translate(374,347)"/>
<path d="M0 0 C1 3 1 3 0.00390625 5.04296875 C-0.47175781 5.75066406 -0.94742188 6.45835937 -1.4375 7.1875 C-1.91058594 7.90292969 -2.38367188 8.61835938 -2.87109375 9.35546875 C-3.24363281 9.89816406 -3.61617188 10.44085938 -4 11 C-5 8 -5 8 -4.00390625 5.95703125 C-3.52824219 5.24933594 -3.05257812 4.54164063 -2.5625 3.8125 C-2.08941406 3.09707031 -1.61632812 2.38164062 -1.12890625 1.64453125 C-0.75636719 1.10183594 -0.38382812 0.55914062 0 0 Z " fill="#F1D2D8" transform="translate(68,158)"/>
</svg>
